SplineFontDB: 3.2
FontName: SeriousShannsBoldItalic
FullName: Serious Shanns Bold Italic
FamilyName: Serious Shanns Bold Italic
Weight: Bold
Copyright: https://github.com/kaBeech/serious-shanns/blob/main/LICENSE
Version: 6.0.0
ItalicAngle: -12.5
UnderlinePosition: 0
UnderlineWidth: 0
Ascent: 800
Descent: 200
InvalidEm: 0
sfntRevision: 0x00003333
LayerCount: 2
Layer: 0 0 "Back" 1
Layer: 1 0 "Fore" 0
XUID: [1021 45 630387186 10904090]
StyleMap: 0x0040
FSType: 0
OS2Version: 3
OS2_WeightWidthSlopeOnly: 0
OS2_UseTypoMetrics: 0
CreationTime: 1532631502
ModificationTime: 315532800
PfmFamily: 49
TTFWeight: 700
TTFWidth: 5
LineGap: 0
VLineGap: 0
Panose: 0 0 0 0 0 0 0 0 0 0
OS2TypoAscent: 613
OS2TypoAOffset: 0
OS2TypoDescent: -188
OS2TypoDOffset: 0
OS2TypoLinegap: 98
OS2WinAscent: 778
OS2WinAOffset: 0
OS2WinDescent: 308
OS2WinDOffset: 0
HheadAscent: 796
HheadAOffset: 0
HheadDescent: -317
HheadDOffset: 0
OS2SubXSize: 317
OS2SubYSize: 293
OS2SubXOff: 0
OS2SubYOff: 37
OS2SupXSize: 317
OS2SupYSize: 293
OS2SupXOff: 0
OS2SupYOff: 171
OS2StrikeYSize: 0
OS2StrikeYPos: 132
OS2CapHeight: 576
OS2XHeight: 485
OS2Vendor: 'NONE'
OS2CodePages: 00000001.00000000
OS2UnicodeRanges: 00000001.00000000.00000000.00000000
MarkAttachClasses: 1
DEI: 91125
LangName: 1033 "" "" "Normal" "" "" "Version 0.2.0"
Encoding: UnicodeBmp
Compacted: 1
UnicodeInterp: none
NameList: AGL For New Fonts
DisplaySize: -48
AntiAlias: 1
FitToEm: 0
WinInfo: 0 16 14
BeginPrivate: 9
BlueValues 32 [-40 -6 499 523 706 718 765 769]
OtherBlues 11 [-297 -287]
BlueScale 9 0.0291667
BlueShift 1 0
StdHW 5 [111]
StdVW 5 [118]
StemSnapH 33 [100 106 110 111 114 116 119 179]
StemSnapV 5 [118]
ForceBold 4 true
EndPrivate
BeginChars: 65537 121

StartChar: .notdef
Encoding: 65536 -1 0
Width: 548
VWidth: 886
GlyphClass: 1
Flags: W
HStem: -201.925 66.2998<73.9248 308.525> 616.625 66.2998<247.325 481.925>
LayerCount: 2
Fore
SplineSet
-3.4248046875 -201.924804688 m 1
 201.424804688 682.924804688 l 1
 558.424804688 682.924804688 l 1
 354.424804688 -201.924804688 l 1
 -3.4248046875 -201.924804688 l 1
247.325195312 616.625 m 1
 73.9248046875 -135.625 l 1
 308.525390625 -135.625 l 1
 481.924804688 616.625 l 1
 247.325195312 616.625 l 1
EndSplineSet
Validated: 524289
EndChar

StartChar: exclam
Encoding: 33 33 8
Width: 548
VWidth: 907
GlyphClass: 2
Flags: HMW
HStem: 25.9268 152.15<187.039 251.922 196.389 251.922>
VStem: 146.239 263.498
LayerCount: 2
Fore
SplineSet
409.737304688 684.674804688 m 0
 408.604492188 679.575195312 400.388671875 647.84375 385.088867188 589.4765625 c 0
 369.7890625 531.110351562 358.171875 484.360351562 350.239257812 449.2265625 c 0
 346.272460938 432.793945312 342.447265625 415.651367188 338.763671875 397.801757812 c 0
 335.081054688 379.952148438 331.680664062 364.651367188 328.564453125 351.901367188 c 0
 325.447265625 339.151367188 323.0390625 330.369140625 321.338867188 325.551757812 c 0
 319.638671875 320.735351562 318.081054688 314.642578125 316.6640625 307.276367188 c 0
 315.247070312 299.909179688 313.689453125 293.109375 311.989257812 286.875976562 c 0
 306.888671875 271.008789062 298.388671875 258.826171875 286.489257812 250.326171875 c 0
 275.15625 242.392578125 263.255859375 238.142578125 250.7890625 237.576171875 c 2
 248.239257812 237.576171875 l 2
 235.206054688 237.576171875 225.573242188 242.392578125 219.33984375 252.026367188 c 0
 215.561523438 257.693359375 213.672851562 264.745117188 213.672851562 273.182617188 c 0
 213.672851562 277.401367188 214.14453125 281.965820312 215.088867188 286.875976562 c 0
 216.7890625 293.67578125 219.763671875 302.600585938 224.013671875 313.651367188 c 0
 228.263671875 324.701171875 231.239257812 332.776367188 232.939453125 337.875976562 c 0
 234.638671875 342.975585938 237.046875 351.618164062 240.1640625 363.80078125 c 0
 243.28125 375.984375 246.114257812 387.7421875 248.6640625 399.075195312 c 0
 251.213867188 410.408203125 254.755859375 427.69140625 259.2890625 450.924804688 c 0
 264.388671875 478.124023438 269.772460938 504.19140625 275.439453125 529.124023438 c 0
 281.106445312 554.057617188 285.78125 573.607421875 289.463867188 587.774414062 c 0
 293.147460938 601.94140625 297.6796875 619.5078125 303.063476562 640.475585938 c 0
 308.446289062 661.442382812 311.98828125 675.325195312 313.688476562 682.125 c 0
 318.221679688 700.2578125 326.295898438 714.283203125 337.913085938 724.200195312 c 0
 349.530273438 734.1171875 361.85546875 739.075195312 374.888671875 739.075195312 c 2
 378.288085938 739.075195312 l 2
 390.754882812 739.075195312 400.10546875 734.541992188 406.337890625 725.475585938 c 0
 410.147460938 719.934570312 412.051757812 712.701171875 412.051757812 703.775390625 c 0
 412.051757812 698.09375 411.280273438 691.727539062 409.737304688 684.674804688 c 0
196.388671875 25.9267578125 m 2
 177.689453125 25.9267578125 163.805664062 32.7265625 154.739257812 46.3271484375 c 0
 147.432617188 57.09375 143.780273438 69.294921875 143.780273438 82.931640625 c 0
 143.780273438 89.3916015625 144.599609375 96.1728515625 146.239257812 103.276367188 c 0
 150.772460938 123.676757812 162.388671875 140.959960938 181.088867188 155.126953125 c 0
 201.489257812 170.426757812 221.747070312 178.077148438 241.864257812 178.077148438 c 0
 261.981445312 178.077148438 276.856445312 171.276367188 286.489257812 157.676757812 c 0
 293.2890625 148.232421875 296.689453125 137.213867188 296.689453125 124.62109375 c 0
 296.689453125 118.325195312 295.838867188 111.634765625 294.138671875 104.551757812 c 0
 289.0390625 83.3017578125 278.4140625 65.59375 262.263671875 51.4267578125 c 0
 246.114257812 37.259765625 226.989257812 28.759765625 204.888671875 25.9267578125 c 2
 196.388671875 25.9267578125 l 2
EndSplineSet
Validated: 524289
EndChar

StartChar: quotedbl
Encoding: 34 34 9
Width: 548
VWidth: 941
GlyphClass: 2
Flags: W
HStem: 450.909 316.307
LayerCount: 2
Fore
SplineSet
291.586914062 719.509765625 m 0
 290.454101562 712.142578125 287.901367188 700.243164062 283.934570312 683.810546875 c 0
 279.967773438 667.376953125 272.318359375 636.77734375 260.985351562 592.010742188 c 0
 249.084960938 544.977539062 239.735351562 512.110351562 232.934570312 493.41015625 c 0
 227.834960938 479.243164062 219.618164062 468.4765625 208.28515625 461.109375 c 0
 198.084960938 454.309570312 188.16796875 450.909179688 178.53515625 450.909179688 c 0
 165.501953125 450.909179688 154.168945312 455.159179688 144.536132812 463.659179688 c 0
 138.982421875 469.212890625 136.206054688 476.154296875 136.206054688 484.484375 c 0
 136.206054688 488.0546875 136.715820312 491.879882812 137.735351562 495.958984375 c 2
 139.435546875 501.059570312 l 2
 145.668945312 523.159179688 152.46875 550.359375 159.8359375 582.659179688 c 0
 162.102539062 591.7265625 164.0859375 601.359375 165.786132812 611.559570312 c 0
 178.252929688 668.79296875 186.469726562 707.325195312 190.436523438 727.158203125 c 0
 192.13671875 734.525390625 195.25390625 741.04296875 199.786132812 746.708984375 c 0
 205.453125 753.509765625 211.970703125 758.609375 219.336914062 762.009765625 c 0
 228.26171875 765.48046875 236.969726562 767.215820312 245.459960938 767.215820312 c 0
 246.673828125 767.215820312 247.8828125 767.180664062 249.086914062 767.109375 c 0
 257.020507812 767.109375 263.395507812 766.401367188 268.211914062 764.984375 c 0
 273.029296875 763.567382812 277.704101562 761.159179688 282.237304688 757.759765625 c 0
 286.770507812 754.359375 289.887695312 749.259765625 291.586914062 742.458984375 c 0
 293.287109375 735.659179688 293.287109375 728.009765625 291.586914062 719.509765625 c 0
418.235351562 718.66015625 m 0
 417.1015625 712.993164062 415.967773438 707.611328125 414.834960938 702.510742188 c 0
 408.03515625 673.611328125 398.967773438 636.778320312 387.634765625 592.010742188 c 0
 375.735351562 544.978515625 366.66796875 512.111328125 360.434570312 493.411132812 c 0
 355.334960938 479.244140625 346.834960938 468.477539062 334.934570312 461.110351562 c 0
 324.735351562 454.310546875 314.53515625 450.91015625 304.334960938 450.91015625 c 0
 291.301757812 450.91015625 280.53515625 455.16015625 272.03515625 463.66015625 c 0
 266.189453125 469.505859375 263.266601562 476.889648438 263.266601562 485.8125 c 0
 263.266601562 488.999023438 263.639648438 492.381835938 264.384765625 495.959960938 c 2
 266.084960938 501.060546875 l 2
 271.751953125 520.327148438 277.702148438 543.560546875 283.934570312 570.760742188 c 0
 296.967773438 627.993164062 307.735351562 678.709960938 316.235351562 722.91015625 c 1
 316.235351562 725.459960938 l 2
 317.934570312 733.393554688 321.4765625 740.618164062 326.860351562 747.135742188 c 0
 332.243164062 753.65234375 338.618164062 758.610351562 345.985351562 762.010742188 c 0
 354.909179688 765.481445312 363.6171875 767.216796875 372.107421875 767.216796875 c 0
 373.321289062 767.216796875 374.530273438 767.181640625 375.735351562 767.110351562 c 0
 383.66796875 767.110351562 390.04296875 766.40234375 394.860351562 764.985351562 c 0
 399.676757812 763.568359375 404.3515625 761.443359375 408.884765625 758.610351562 c 0
 413.985351562 755.209960938 417.243164062 749.96875 418.66015625 742.885742188 c 0
 420.077148438 735.801757812 419.934570312 727.727539062 418.235351562 718.66015625 c 0
EndSplineSet
Validated: 524289
EndChar

StartChar: numbersign
Encoding: 35 35 10
Width: 548
VWidth: 904
GlyphClass: 2
Flags: HMW
HStem: 42.3179 17.85G<66.0822 72.3156> 205.944 92.2259<220.216 220.216> 422.27 92.6517<311.162 344.312 272.912 380.012>
LayerCount: 2
Fore
SplineSet
173.465820312 420.568359375 m 1
 158.732421875 420.000976562 150.512695312 420.002929688 148.8125 420.569335938 c 0
 134.645507812 420.569335938 124.4453125 424.252929688 118.211914062 431.619140625 c 0
 113.412109375 437.619140625 111.012695312 444.749023438 111.012695312 453.0078125 c 0
 111.012695312 456.44921875 111.428710938 460.0859375 112.262695312 463.919921875 c 2
 112.262695312 466.469726562 l 2
 115.095703125 478.369140625 121.75390625 488.852539062 132.236328125 497.919921875 c 0
 142.719726562 506.986328125 155.89453125 511.803710938 171.76171875 512.370117188 c 0
 180.828125 512.9375 193.861328125 513.220703125 210.861328125 513.220703125 c 1
 261.01171875 637.3203125 l 2
 270.078125 654.887695312 280.845703125 667.0703125 293.3125 673.870117188 c 0
 301.8125 678.403320312 310.3125 680.670898438 318.8125 680.670898438 c 0
 322.211914062 680.670898438 325.895507812 680.103515625 329.862304688 678.970703125 c 0
 342.895507812 676.137695312 351.678710938 669.0546875 356.211914062 657.721679688 c 0
 358.251953125 652.9609375 359.271484375 647.69140625 359.271484375 641.911132812 c 0
 359.271484375 638.057617188 358.818359375 633.977539062 357.911132812 629.670898438 c 0
 356.778320312 624.571289062 354.794921875 619.471679688 351.961914062 614.37109375 c 2
 311.162109375 514.920898438 l 1
 380.012695312 514.920898438 l 1
 426.762695312 630.521484375 l 2
 435.829101562 648.654296875 446.596679688 661.12109375 459.063476562 667.920898438 c 0
 467.563476562 672.454101562 476.063476562 674.4375 484.563476562 673.870117188 c 0
 488.530273438 673.870117188 492.497070312 673.586914062 496.463867188 673.020507812 c 0
 509.497070312 670.1875 518.564453125 663.104492188 523.6640625 651.771484375 c 0
 525.704101562 647.350585938 526.723632812 642.420898438 526.723632812 636.981445312 c 0
 526.723632812 633.354492188 526.270507812 629.500976562 525.364257812 625.420898438 c 0
 524.23046875 619.75390625 521.963867188 613.8046875 518.564453125 607.571289062 c 0
 508.364257812 586.604492188 495.331054688 556.00390625 479.463867188 515.771484375 c 1
 493.630859375 515.204101562 504.397460938 510.670898438 511.764648438 502.170898438 c 0
 518.848632812 494.143554688 522.389648438 485.329101562 522.389648438 475.7265625 c 0
 522.389648438 473.806640625 522.248046875 471.854492188 521.96484375 469.87109375 c 0
 519.131835938 456.837890625 512.473632812 445.788085938 501.990234375 436.721679688 c 0
 491.5078125 427.654296875 478.615234375 422.836914062 463.315429688 422.270507812 c 2
 462.465820312 422.270507812 l 1
 442.065429688 422.270507812 l 1
 393.615234375 297.3203125 l 1
 414.865234375 297.3203125 l 2
 430.166015625 297.3203125 440.083007812 293.353515625 444.615234375 285.420898438 c 0
 447.637695312 280.131835938 449.1484375 273.961914062 449.1484375 266.911132812 c 0
 449.1484375 263.384765625 448.770507812 259.637695312 448.014648438 255.670898438 c 2
 448.014648438 254.8203125 l 2
 445.181640625 241.220703125 439.798828125 230.737304688 431.865234375 223.370117188 c 0
 421.666015625 212.603515625 408.916015625 207.220703125 393.615234375 207.220703125 c 2
 357.916015625 207.220703125 l 1
 334.115234375 147.153320312 317.3984375 105.786132812 307.765625 83.119140625 c 0
 298.698242188 68.38671875 286.798828125 57.0537109375 272.065429688 49.1201171875 c 0
 263.396484375 44.5302734375 255.415039062 42.2353515625 248.123046875 42.2353515625 c 0
 247.3125 42.2353515625 246.509765625 42.263671875 245.716796875 42.3203125 c 0
 241.18359375 42.3203125 236.93359375 42.8876953125 232.966796875 44.0205078125 c 0
 221.06640625 46.853515625 213.416015625 55.63671875 210.016601562 70.369140625 c 0
 208.31640625 78.302734375 208.599609375 86.2353515625 210.866210938 94.1689453125 c 0
 212.56640625 100.96875 215.116210938 108.051757812 218.516601562 115.418945312 c 0
 228.149414062 135.818359375 241.182617188 166.135742188 257.615234375 206.369140625 c 1
 247.982421875 206.369140625 235.515625 206.2265625 220.215820312 205.943359375 c 0
 204.916015625 205.661132812 192.448242188 205.518554688 182.815429688 205.518554688 c 1
 150.515625 129.018554688 133.798828125 89.3515625 132.666015625 86.5185546875 c 0
 124.732421875 72.3515625 112.833007812 60.7353515625 96.9658203125 51.66796875 c 0
 86.1982421875 45.4345703125 76.5654296875 42.318359375 68.0654296875 42.318359375 c 0
 64.0986328125 42.318359375 59.8486328125 42.884765625 55.3154296875 44.017578125 c 0
 43.416015625 46.8505859375 36.3330078125 56.201171875 34.0654296875 72.068359375 c 0
 32.9326171875 80.0009765625 33.2158203125 87.79296875 34.916015625 95.443359375 c 0
 36.615234375 103.092773438 39.4482421875 110.884765625 43.416015625 118.818359375 c 0
 50.2158203125 132.41796875 63.2490234375 161.03515625 82.515625 204.66796875 c 1
 70.615234375 204.66796875 l 2
 55.3154296875 204.66796875 44.265625 208.068359375 37.4658203125 214.868164062 c 0
 32.14453125 220.188476562 29.484375 226.987304688 29.484375 235.263671875 c 0
 29.484375 238.446289062 29.8779296875 241.84765625 30.6650390625 245.467773438 c 2
 30.6650390625 248.868164062 l 2
 33.498046875 260.767578125 39.873046875 270.967773438 49.7900390625 279.467773438 c 0
 59.70703125 287.967773438 72.5986328125 292.78515625 88.4658203125 293.91796875 c 0
 92.9990234375 293.91796875 98.666015625 294.059570312 105.465820312 294.342773438 c 0
 112.265625 294.625976562 117.365234375 294.767578125 120.765625 294.767578125 c 2
 173.465820312 420.568359375 l 1
344.3125 422.26953125 m 1
 272.912109375 422.26953125 l 1
 221.0625 298.169921875 l 1
 294.162109375 298.169921875 l 1
 311.162109375 338.40234375 327.87890625 379.76953125 344.3125 422.26953125 c 1
EndSplineSet
Validated: 524289
EndChar

StartChar: dollar
Encoding: 36 36 11
Width: 548
VWidth: 901
GlyphClass: 2
Flags: HMW
HStem: 580.702 85.85
VStem: 384.259 99.8682
LayerCount: 2
Fore
SplineSet
223.17578125 -59.349609375 m 0
 210.993164062 -67.849609375 197.825195312 -72.0986328125 183.658203125 -72.0986328125 c 2
 182.80859375 -72.0986328125 l 2
 168.641601562 -72.0986328125 159.008789062 -66.9990234375 153.908203125 -56.798828125 c 0
 151.59375 -52.5009765625 150.4375 -47.3359375 150.4375 -41.302734375 c 0
 150.4375 -36.9931640625 151.02734375 -32.2421875 152.20703125 -27.0478515625 c 0
 152.774414062 -24.21484375 154.049804688 -19.2568359375 156.032226562 -12.173828125 c 0
 158.015625 -5.0908203125 161.2734375 6.951171875 165.806640625 23.951171875 c 1
 147.106445312 24.5185546875 129.256835938 27.3515625 112.256835938 32.451171875 c 0
 96.3896484375 36.984375 82.7900390625 43.7841796875 71.45703125 52.8515625 c 0
 49.923828125 69.8515625 36.3232421875 90.2509765625 30.65625 114.05078125 c 0
 29.361328125 121.174804688 28.7138671875 127.928710938 28.7138671875 134.311523438 c 0
 28.7138671875 139.099609375 29.078125 143.6796875 29.806640625 148.05078125 c 0
 30.3740234375 151.451171875 31.5068359375 154.568359375 33.20703125 157.401367188 c 0
 38.8740234375 169.868164062 48.2236328125 179.217773438 61.2568359375 185.451171875 c 0
 68.6240234375 188.8515625 74.431640625 190.9765625 78.681640625 191.826171875 c 0
 82.931640625 192.67578125 86.33203125 193.1015625 88.8818359375 193.1015625 c 2
 96.1064453125 193.1015625 l 2
 102.33984375 192.534179688 107.58203125 189.701171875 111.83203125 184.6015625 c 0
 116.08203125 179.500976562 119.90625 172.984375 123.306640625 165.05078125 c 0
 130.106445312 149.184570312 139.173828125 136.716796875 150.506835938 127.650390625 c 0
 160.139648438 120.283203125 172.889648438 116.033203125 188.756835938 114.900390625 c 1
 209.15625 199.333007812 227.290039062 275.266601562 243.15625 342.69921875 c 1
 241.45703125 342.69921875 238.33984375 343.266601562 233.806640625 344.399414062 c 0
 230.973632812 344.966796875 227.006835938 345.249023438 221.90625 345.249023438 c 0
 200.374023438 347.516601562 181.95703125 353.18359375 166.65625 362.25 c 0
 152.489257812 371.317382812 141.58203125 382.083984375 133.931640625 394.55078125 c 0
 126.28125 407.017578125 121.323242188 420.4765625 119.056640625 434.92578125 c 0
 118.150390625 440.706054688 117.696289062 446.462890625 117.696289062 452.198242188 c 0
 117.696289062 460.799804688 118.716796875 469.350585938 120.756835938 477.8515625 c 0
 125.856445312 498.818359375 133.6484375 518.934570312 144.131835938 538.202148438 c 0
 154.614257812 557.46875 168.073242188 575.4609375 184.505859375 592.177734375 c 0
 200.938476562 608.89453125 221.055664062 623.203125 244.85546875 635.102539062 c 0
 267.522460938 645.870117188 291.60546875 653.802734375 317.10546875 658.90234375 c 1
 319.938476562 670.236328125 323.338867188 683.552734375 327.305664062 698.852539062 c 0
 334.10546875 726.052734375 346.85546875 743.3359375 365.555664062 750.703125 c 0
 371.7890625 752.969726562 379.15625 754.102539062 387.65625 754.102539062 c 0
 405.22265625 754.102539062 416.555664062 748.15234375 421.65625 736.252929688 c 0
 423.791992188 731.37109375 424.859375 725.749023438 424.859375 719.388671875 c 0
 424.859375 713.936523438 424.075195312 707.940429688 422.505859375 701.40234375 c 0
 418.5390625 684.40234375 415.706054688 672.78515625 414.005859375 666.551757812 c 1
 425.90625 665.418945312 441.489257812 662.301757812 460.755859375 657.202148438 c 0
 479.456054688 652.668945312 493.90625 648.418945312 504.10546875 644.452148438 c 0
 515.438476562 639.918945312 522.521484375 632.268554688 525.35546875 621.501953125 c 0
 527.622070312 613.569335938 527.905273438 605.3515625 526.205078125 596.8515625 c 0
 525.637695312 594.018554688 524.788085938 590.90234375 523.655273438 587.501953125 c 0
 520.822265625 579.001953125 516.146484375 572.202148438 509.629882812 567.1015625 c 0
 503.11328125 562.001953125 496.170898438 558.884765625 488.803710938 557.751953125 c 0
 485.404296875 557.184570312 482.287109375 556.90234375 479.454101562 556.90234375 c 0
 476.62109375 556.90234375 473.50390625 557.043945312 470.104492188 557.327148438 c 0
 466.704101562 557.610351562 462.737304688 558.6015625 458.204101562 560.301757812 c 0
 452.537109375 561.434570312 446.020507812 563.702148438 438.653320312 567.1015625 c 0
 425.053710938 574.46875 410.036132812 579.001953125 393.603515625 580.702148438 c 1
 380.002929688 525.735351562 366.970703125 473.6015625 354.502929688 424.301757812 c 1
 377.169921875 420.334960938 397.853515625 414.384765625 416.553710938 406.452148438 c 0
 433.553710938 397.952148438 446.870117188 387.751953125 456.502929688 375.8515625 c 0
 466.13671875 363.952148438 473.219726562 350.494140625 477.752929688 335.4765625 c 0
 482.01953125 321.342773438 484.15234375 307.208007812 484.15234375 293.07421875 c 0
 484.15234375 281.208984375 482.8046875 264.435546875 477.752929688 244.951171875 c 0
 471.51953125 218.318359375 461.319335938 193.1015625 447.15234375 169.30078125 c 0
 432.985351562 145.500976562 416.268554688 124.818359375 397.001953125 107.250976562 c 0
 377.734375 89.6845703125 356.202148438 74.6669921875 332.401367188 62.2001953125 c 0
 309.734375 50.8671875 286.217773438 41.80078125 261.850585938 35 c 1
 255.05078125 6.1005859375 251.083984375 -13.44921875 249.951171875 -23.6494140625 c 0
 244.284179688 -38.94921875 235.359375 -50.849609375 223.17578125 -59.349609375 c 0
249.958007812 548.401367188 m 0
 234.091796875 535.368164062 223.891601562 520.067382812 219.358398438 502.5 c 0
 218.508789062 498.817382812 218.083007812 495.22265625 218.083007812 491.715820312 c 0
 218.083007812 481.197265625 221.908203125 471.475585938 229.55859375 462.55078125 c 0
 238.05859375 452.350585938 249.958007812 444.700195312 265.258789062 439.600585938 c 1
 273.758789062 474.733398438 284.525390625 519.783203125 297.55859375 574.75 c 1
 279.424804688 568.517578125 263.55859375 559.734375 249.958007812 548.401367188 c 0
342.608398438 167.600585938 m 0
 363.008789062 185.166992188 375.758789062 205.282226562 380.859375 227.94921875 c 0
 383.125976562 238.149414062 384.258789062 246.932617188 384.258789062 254.299804688 c 0
 384.258789062 262.799804688 382.276367188 271.58203125 378.309570312 280.649414062 c 0
 372.076171875 296.516601562 355.92578125 309.833007812 329.859375 320.600585938 c 1
 314.559570312 255.43359375 304.500976562 213.075195312 299.684570312 193.525390625 c 0
 294.8671875 173.975585938 289.625 152.8671875 283.958007812 130.200195312 c 1
 306.05859375 140.400390625 325.608398438 152.8671875 342.608398438 167.600585938 c 0
EndSplineSet
Validated: 524289
EndChar

StartChar: percent
Encoding: 37 37 12
Width: 548
VWidth: 899
GlyphClass: 2
Flags: HMW
HStem: 15.0433 85.8491<311.126 351.076 322.176 351.076> 184.192 83.3<374.876 375.724> 406.048 84.1458<175.403 214.225> 565.843 82.4558<222.725 270.038>
VStem: 241.426 83.2983<136.592 137.442 137.442 137.442> 255.876 86.6958 393.575 81.6017
LayerCount: 2
Fore
SplineSet
107.544921875 466.823242188 m 0xf6
 105.89453125 474.569335938 105.069335938 482.513671875 105.069335938 490.658203125 c 0
 105.069335938 500.686523438 106.3203125 511.016601562 108.822265625 521.6484375 c 0
 108.822265625 522.21484375 109.10546875 522.782226562 109.671875 523.348632812 c 0
 118.171875 559.048828125 135.030273438 588.798828125 160.247070312 612.598632812 c 0
 185.463867188 636.399414062 216.772460938 648.298828125 254.171875 648.298828125 c 0
 285.905273438 648.298828125 310.272460938 638.098632812 327.272460938 617.69921875 c 0
 336.338867188 606.932617188 341.439453125 593.048828125 342.572265625 576.048828125 c 0
 342.82421875 573.02734375 342.94921875 569.921875 342.94921875 566.733398438 c 0
 342.94921875 555.56640625 341.407226562 543.372070312 338.321289062 530.149414062 c 0
 328.12109375 487.08203125 309.420898438 455.065429688 282.221679688 434.098632812 c 0
 257.854492188 415.3984375 225.836914062 406.047851562 186.169921875 406.047851562 c 0
 164.637695312 406.047851562 147.0703125 411.856445312 133.470703125 423.473632812 c 0
 119.870117188 435.08984375 111.228515625 449.540039062 107.544921875 466.823242188 c 0xf6
29.7724609375 10.7978515625 m 0
 23.5390625 14.1982421875 18.7255859375 18.4443359375 15.3251953125 23.5439453125 c 0
 11.3583984375 30.34375 10.5087890625 38.4189453125 12.775390625 47.76953125 c 0
 15.0419921875 57.119140625 20.142578125 67.1767578125 28.0751953125 77.9443359375 c 0
 44.5087890625 101.744140625 82.19140625 151.327148438 141.125 226.694335938 c 0
 265.791015625 378.561523438 328.125 454.778320312 328.125 455.344726562 c 0
 390.458007812 531.844726562 433.240234375 586.811523438 456.473632812 620.245117188 c 0
 467.806640625 632.14453125 480.556640625 639.794921875 494.723632812 643.1953125 c 2
 506.624023438 644.89453125 l 2
 515.124023438 644.89453125 522.490234375 642.627929688 528.723632812 638.094726562 c 0
 538.952148438 632.173828125 544.06640625 623.951171875 544.06640625 613.427734375 c 0
 544.06640625 609.732421875 543.657226562 607.36328125 543.173828125 604.9453125 c 0
 540.907226562 595.3125 535.240234375 584.830078125 526.172851562 573.497070312 c 0
 498.97265625 540.063476562 430.123046875 454.780273438 319.623046875 317.647460938 c 0
 208.555664062 180.514648438 134.888671875 87.8642578125 98.6220703125 39.697265625 c 0
 81.4736328125 17.017578125 64.865234375 5.677734375 48.7978515625 5.677734375 c 0
 48.4052734375 5.677734375 48.013671875 5.6845703125 47.6220703125 5.6982421875 c 0
 41.388671875 5.6982421875 35.439453125 7.3984375 29.7724609375 10.7978515625 c 0
253.75 556.918945312 m 0
 248.93359375 562.869140625 240.291992188 565.84375 227.825195312 565.84375 c 0
 217.625 565.84375 209.692382812 562.7265625 204.025390625 556.493164062 c 0
 196.658203125 549.125976562 190.708007812 538.926757812 186.17578125 525.893554688 c 0
 186.17578125 524.759765625 185.892578125 523.626953125 185.325195312 522.494140625 c 0
 183.05859375 512.293945312 183.483398438 504.64453125 186.600585938 499.543945312 c 0
 189.717773438 494.444335938 198.642578125 491.327148438 213.375 490.194335938 c 2
 214.225585938 490.194335938 l 2
 224.42578125 490.194335938 232.642578125 493.02734375 238.875 498.694335938 c 0
 246.2421875 505.494140625 251.909179688 514.561523438 255.875976562 525.89453125 c 0
 255.875976562 526.4609375 256.159179688 527.311523438 256.7265625 528.444335938 c 0
 257.775390625 533.270507812 258.299804688 537.611328125 258.299804688 541.466796875 c 0
 258.299804688 548.021484375 256.783203125 553.172851562 253.75 556.918945312 c 0
240.151367188 77.943359375 m 0
 238.219726562 86.185546875 237.25390625 94.662109375 237.25390625 103.373046875 c 0
 237.25390625 113.825195312 238.64453125 124.615234375 241.42578125 135.7421875 c 1
 241.42578125 137.442382812 l 1xfa
 249.92578125 174.842773438 267.776367188 205.8671875 294.9765625 230.517578125 c 0
 322.17578125 255.166992188 355.326171875 267.4921875 394.42578125 267.4921875 c 0
 424.458984375 267.4921875 447.125976562 257.009765625 462.42578125 236.041992188 c 0
 470.359375 224.708984375 474.609375 209.9765625 475.17578125 191.84375 c 0
 475.247070312 190.142578125 475.282226562 188.419921875 475.282226562 186.674804688 c 0
 475.282226562 174.465820312 473.546875 161.171875 470.076171875 146.79296875 c 0
 468.943359375 141.125976562 467.526367188 135.458984375 465.826171875 129.791992188 c 0
 455.625976562 92.958984375 439.05078125 64.6259765625 416.1015625 44.79296875 c 0
 393.151367188 24.9599609375 363.258789062 15.04296875 326.42578125 15.04296875 c 2
 322.17578125 15.04296875 l 2
 300.076171875 15.04296875 281.943359375 20.9931640625 267.776367188 32.8935546875 c 0
 253.609375 44.79296875 244.401367188 59.810546875 240.151367188 77.943359375 c 0
351.076171875 100.892578125 m 2
 353.624023438 100.891601562 l 2
 363.256835938 100.891601562 370.907226562 103.724609375 376.573242188 109.391601562 c 0
 383.940429688 116.758789062 389.607421875 126.67578125 393.57421875 139.142578125 c 1
 393.57421875 141.692382812 l 2
 395.1484375 149.247070312 395.935546875 155.752929688 395.935546875 161.208984375 c 0
 395.935546875 165.575195312 395.431640625 169.26953125 394.423828125 172.291992188 c 0
 391.0234375 180.225585938 382.5234375 184.192382812 368.923828125 184.192382812 c 0
 358.723632812 184.192382812 350.223632812 180.509765625 343.423828125 173.142578125 c 0
 335.490234375 164.642578125 329.2578125 153.309570312 324.724609375 139.142578125 c 1
 324.724609375 136.592773438 l 2
 321.891601562 125.259765625 322.033203125 116.6171875 325.150390625 110.666992188 c 0
 328.267578125 104.717773438 336.909179688 101.458984375 351.076171875 100.892578125 c 2
EndSplineSet
Validated: 524289
EndChar

StartChar: ampersand
Encoding: 38 38 13
Width: 548
VWidth: 901
GlyphClass: 2
Flags: HMW
HStem: 5.25283 100.299<163.529 209.146> 589.201 87.5508<340.328 378.013>
LayerCount: 2
Fore
SplineSet
440.344726562 60.5 m 0
 439.778320312 57.6669921875 438.927734375 54.55078125 437.794921875 51.1513671875 c 0
 431.561523438 31.318359375 422.211914062 18.28515625 409.745117188 12.0517578125 c 0
 398.978515625 8.0849609375 392.177734375 6.1015625 389.344726562 6.1015625 c 2
 388.495117188 6.1015625 l 2
 381.6953125 6.1015625 374.89453125 8.369140625 368.094726562 12.90234375 c 0
 356.1953125 20.2685546875 347.6953125 33.0185546875 342.594726562 51.15234375 c 0
 342.028320312 53.9853515625 341.036132812 60.3603515625 339.619140625 70.27734375 c 2
 336.64453125 91.1015625 l 1
 329.84375 83.7353515625 324.602539062 78.2099609375 320.918945312 74.52734375 c 0
 317.236328125 70.84375 311.427734375 65.4609375 303.495117188 58.3779296875 c 0
 295.561523438 51.294921875 288.904296875 45.76953125 283.520507812 41.802734375 c 0
 278.137695312 37.8359375 270.913085938 33.1611328125 261.845703125 27.7783203125 c 0
 252.779296875 22.39453125 244.279296875 18.427734375 236.345703125 15.8779296875 c 0
 228.413085938 13.328125 219.487304688 10.919921875 209.571289062 8.6533203125 c 0
 199.654296875 6.3857421875 189.595703125 5.2529296875 179.395507812 5.2529296875 c 0
 147.663085938 5.2529296875 120.887695312 13.89453125 99.0712890625 31.177734375 c 0
 77.25390625 48.4609375 62.37890625 71.2685546875 54.4462890625 99.6015625 c 0
 50.3330078125 114.29296875 48.2763671875 129.592773438 48.2763671875 145.502929688 c 0
 48.2763671875 160.276367188 50.0498046875 175.576171875 53.5966796875 191.40234375 c 0
 64.9296875 240.702148438 83.3466796875 282.918945312 108.846679688 318.051757812 c 0
 138.313476562 359.418945312 176.846679688 391.71875 224.446289062 414.952148438 c 1
 215.946289062 438.327148438 l 2
 212.546875 447.676757812 209.997070312 454.90234375 208.296875 460.001953125 c 0
 206.596679688 465.1015625 204.754882812 471.759765625 202.771484375 479.9765625 c 0
 200.7890625 488.194335938 199.796875 495.418945312 199.796875 501.65234375 c 0
 199.796875 518.65234375 201.779296875 535.369140625 205.747070312 551.801757812 c 0
 208.013671875 562.569335938 211.838867188 573.4765625 217.221679688 584.52734375 c 0
 222.604492188 595.577148438 229.971679688 606.768554688 239.321289062 618.1015625 c 0
 248.671875 629.435546875 259.438476562 639.3515625 271.622070312 647.8515625 c 0
 283.8046875 656.3515625 298.396484375 663.293945312 315.396484375 668.676757812 c 0
 332.396484375 674.060546875 350.529296875 676.751953125 369.796875 676.751953125 c 0
 386.229492188 676.751953125 401.671875 673.918945312 416.122070312 668.251953125 c 0
 430.571289062 662.584960938 443.1796875 654.509765625 453.946289062 644.02734375 c 0
 464.713867188 633.543945312 471.938476562 619.518554688 475.622070312 601.952148438 c 0
 477.166015625 594.584960938 477.938476562 586.869140625 477.938476562 578.805664062 c 0
 477.938476562 567.639648438 476.458007812 555.8046875 473.497070312 543.301757812 c 0
 468.963867188 524.03515625 462.588867188 506.04296875 454.372070312 489.326171875 c 0
 446.154296875 472.609375 437.229492188 458.583984375 427.596679688 447.250976562 c 0
 417.963867188 435.91796875 406.630859375 425.29296875 393.59765625 415.375976562 c 0
 380.564453125 405.458984375 369.65625 397.951171875 360.873046875 392.8515625 c 0
 352.08984375 387.750976562 343.448242188 383.217773438 334.948242188 379.250976562 c 1
 340.615234375 362.250976562 349.115234375 340.859375 360.448242188 315.076171875 c 0
 371.78125 289.29296875 379.71484375 270.16796875 384.247070312 257.701171875 c 1
 386.514648438 261.1015625 389.9140625 266.342773438 394.447265625 273.42578125 c 0
 398.98046875 280.508789062 403.513671875 287.451171875 408.046875 294.250976562 c 0
 412.580078125 301.05078125 416.262695312 306.151367188 419.095703125 309.55078125 c 0
 433.262695312 326.55078125 446.295898438 337.034179688 458.196289062 341.000976562 c 0
 462.728515625 342.701171875 467.26171875 343.55078125 471.794921875 343.55078125 c 0
 479.162109375 343.55078125 486.245117188 341.568359375 493.044921875 337.6015625 c 0
 502.787109375 331.961914062 507.657226562 322.37890625 507.657226562 308.852539062 c 0
 507.657226562 307.428710938 507.603515625 305.961914062 507.49609375 304.451171875 c 0
 507.49609375 301.05078125 506.928710938 297.651367188 505.795898438 294.250976562 c 0
 502.962890625 282.3515625 497.012695312 269.883789062 487.946289062 256.8515625 c 0
 483.978515625 251.184570312 473.779296875 239.9921875 457.345703125 223.275390625 c 0
 440.913085938 206.55859375 427.3125 191.68359375 416.545898438 178.650390625 c 1
 419.946289062 168.450195312 424.337890625 154.142578125 429.720703125 135.725585938 c 0
 435.103515625 117.30859375 438.362304688 106.400390625 439.495117188 103 c 0
 441.630859375 95.677734375 442.69921875 88.1904296875 442.69921875 80.5390625 c 0
 442.69921875 73.9794921875 441.9140625 67.30078125 440.344726562 60.5 c 0
296.6953125 537.3515625 m 0
 295.278320312 531.118164062 294.5703125 524.6015625 294.5703125 517.801757812 c 0
 294.5703125 511.001953125 295.278320312 503.918945312 296.6953125 496.551757812 c 0
 299.528320312 481.819335938 303.495117188 469.069335938 308.594726562 458.301757812 c 1
 318.228515625 461.134765625 326.728515625 464.393554688 334.094726562 468.076171875 c 0
 341.461914062 471.758789062 348.969726562 476.434570312 356.620117188 482.1015625 c 0
 364.26953125 487.768554688 370.502929688 494.8515625 375.3203125 503.3515625 c 0
 380.13671875 511.8515625 383.961914062 522.333984375 386.794921875 534.80078125 c 0
 388.149414062 540.799804688 388.827148438 546.319335938 388.827148438 551.359375 c 0
 388.827148438 561.080078125 386.307617188 569.018554688 381.26953125 575.17578125 c 0
 373.620117188 584.526367188 362.427734375 589.201171875 347.6953125 589.201171875 c 0
 332.961914062 589.201171875 321.344726562 584.383789062 312.844726562 574.750976562 c 0
 306.044921875 566.250976562 300.662109375 553.784179688 296.6953125 537.3515625 c 0
153.89453125 199.051757812 m 0
 151.40234375 188.172851562 150.155273438 178.063476562 150.155273438 168.725585938 c 0
 150.155273438 154.716796875 152.9609375 142.442382812 158.571289062 131.90234375 c 0
 167.920898438 114.334960938 182.795898438 105.551757812 203.196289062 105.551757812 c 0
 215.095703125 105.551757812 227.845703125 107.819335938 241.446289062 112.3515625 c 0
 245.978515625 113.485351562 251.220703125 116.03515625 257.170898438 120.001953125 c 2
 271.196289062 129.3515625 l 2
 274.595703125 131.619140625 278.845703125 135.301757812 283.946289062 140.40234375 c 0
 289.045898438 145.501953125 292.728515625 149.043945312 294.99609375 151.02734375 c 0
 297.262695312 153.009765625 300.095703125 156.126953125 303.49609375 160.376953125 c 0
 306.895507812 164.626953125 309.163085938 167.319335938 310.295898438 168.452148438 c 0
 306.895507812 185.452148438 303.49609375 200.751953125 300.095703125 214.3515625 c 0
 296.696289062 227.384765625 289.470703125 247.360351562 278.420898438 274.27734375 c 0
 267.37109375 301.194335938 259.295898438 321.452148438 254.196289062 335.051757812 c 1
 241.163085938 328.819335938 229.262695312 321.452148438 218.49609375 312.952148438 c 0
 206.029296875 302.751953125 195.686523438 291.702148438 187.469726562 279.801757812 c 0
 179.252929688 267.90234375 172.453125 255.435546875 167.0703125 242.40234375 c 0
 161.686523438 229.369140625 157.294921875 214.918945312 153.89453125 199.051757812 c 0
EndSplineSet
Validated: 524289
EndChar

StartChar: quotesingle
Encoding: 39 39 14
Width: 548
VWidth: 941
GlyphClass: 2
Flags: W
HStem: 460.326 298.349<260.515 287.82>
LayerCount: 2
Fore
SplineSet
352.788085938 710.224609375 m 0
 351.087890625 702.858398438 348.538085938 691.3828125 345.137695312 675.799804688 c 0
 341.737304688 660.216796875 336.0703125 636.55859375 328.137695312 604.826171875 c 0
 315.670898438 555.526367188 306.038085938 521.526367188 299.237304688 502.826171875 c 0
 294.137695312 488.092773438 285.637695312 477.04296875 273.737304688 469.67578125 c 0
 263.538085938 463.442382812 253.62109375 460.326171875 243.987304688 460.326171875 c 0
 230.387695312 460.326171875 219.0546875 464.576171875 209.987304688 473.076171875 c 0
 204.434570312 478.62890625 201.658203125 485.571289062 201.658203125 493.901367188 c 0
 201.658203125 497.470703125 202.16796875 501.295898438 203.1875 505.375976562 c 0
 203.1875 507.076171875 203.754882812 508.776367188 204.887695312 510.475585938 c 0
 211.6875 533.142578125 217.920898438 558.642578125 223.587890625 586.975585938 c 0
 232.654296875 627.208984375 241.721679688 669.42578125 250.788085938 713.625976562 c 1
 250.788085938 716.17578125 l 2
 252.48828125 724.109375 255.888671875 731.192382812 260.98828125 737.424804688 c 0
 266.655273438 744.791992188 273.172851562 749.891601562 280.5390625 752.724609375 c 0
 290.739257812 756.692382812 300.939453125 758.674804688 311.139648438 758.674804688 c 0
 319.072265625 758.674804688 325.305664062 757.825195312 329.838867188 756.125 c 0
 334.372070312 754.424804688 338.904296875 752.158203125 343.4375 749.325195312 c 0
 348.538085938 745.924804688 351.795898438 740.68359375 353.212890625 733.599609375 c 0
 354.629882812 726.516601562 354.487304688 718.724609375 352.788085938 710.224609375 c 0
EndSplineSet
Validated: 524289
EndChar

StartChar: parenleft
Encoding: 40 40 15
Width: 548
VWidth: 901
GlyphClass: 2
Flags: HMW
HStem: -71.25 92.65<218.438 264.901> 664 89.25<400.055 434.904>
LayerCount: 2
Fore
SplineSet
288.133789062 -27.900390625 m 0
 285.30078125 -40.3671875 278.504882812 -50.7080078125 267.737304688 -58.9248046875 c 0
 256.970703125 -67.1416015625 246.770507812 -71.25 237.137695312 -71.25 c 0
 199.737304688 -71.25 169.137695312 -56.7998046875 145.337890625 -27.900390625 c 0
 121.537109375 1 106.095703125 40.099609375 99.0126953125 89.400390625 c 0
 95.90625 111.021484375 94.3525390625 134.060546875 94.3525390625 158.516601562 c 0
 94.3525390625 189.823242188 96.8984375 223.450195312 101.98828125 259.400390625 c 0
 104.254882812 276.966796875 108.504882812 298.924804688 114.73828125 325.275390625 c 0
 120.971679688 352.192382812 130.038085938 384.916992188 141.938476562 423.450195312 c 0
 162.905273438 490.8828125 186.138671875 546.1328125 211.638671875 589.200195312 c 0
 222.971679688 609.033203125 236.854492188 628.299804688 253.287109375 647 c 0
 269.720703125 665.700195312 287.287109375 683.125 305.987304688 699.275390625 c 0
 324.6875 715.424804688 344.9453125 728.458007812 366.762695312 738.375 c 0
 388.579101562 748.291992188 408.837890625 753.25 427.537109375 753.25 c 0
 442.270507812 753.25 452.1875 748.432617188 457.287109375 738.799804688 c 0
 459.6015625 734.501953125 460.758789062 729.240234375 460.758789062 723.014648438 c 0
 460.758789062 718.568359375 460.168945312 713.629882812 458.98828125 708.200195312 c 0
 455.587890625 692.900390625 448.504882812 681.567382812 437.73828125 674.200195312 c 0
 428.10546875 667.400390625 417.48046875 664 405.86328125 664 c 0
 394.24609375 664 382.204101562 660.174804688 369.737304688 652.525390625 c 0
 357.270507812 644.875 345.370117188 633.966796875 334.037109375 619.799804688 c 0
 310.8046875 592.599609375 290.404296875 558.8828125 272.837890625 518.650390625 c 0
 259.237304688 488.6171875 245.354492188 448.950195312 231.1875 399.650390625 c 0
 223.8203125 373.583007812 217.728515625 350.208007812 212.912109375 329.525390625 c 0
 208.094726562 308.841796875 204.552734375 290.567382812 202.286132812 274.700195312 c 0
 197.9140625 245.557617188 195.728515625 217.142578125 195.728515625 189.45703125 c 0
 195.728515625 184.842773438 195.7890625 180.249023438 195.911132812 175.674804688 c 0
 196.760742188 143.658203125 200.302734375 116.458007812 206.536132812 94.0751953125 c 0
 212.768554688 71.6923828125 220.702148438 53.7001953125 230.334960938 40.099609375 c 0
 239.40234375 28.2001953125 248.751953125 21.966796875 258.384765625 21.400390625 c 0
 271.41796875 21.400390625 280.625976562 17.716796875 286.008789062 10.349609375 c 0
 289.108398438 6.1083984375 290.658203125 0.0830078125 290.658203125 -7.7265625 c 0
 290.658203125 -13.482421875 289.81640625 -20.20703125 288.133789062 -27.900390625 c 0
EndSplineSet
Validated: 524289
EndChar

StartChar: parenright
Encoding: 41 41 16
Width: 548
VWidth: 901
GlyphClass: 2
Flags: HMW
HStem: -71.25 92.6483<143.112 147.079> 664 89.25<292.996 327.562>
VStem: 365.529 92.6491
LayerCount: 2
Fore
SplineSet
128.379882812 -71.25 m 0
 118.74609375 -71.25 110.247070312 -67.14453125 102.879882812 -58.927734375 c 0
 97.5595703125 -52.9931640625 94.8994140625 -45.94921875 94.8994140625 -37.7978515625 c 0
 94.8994140625 -34.6630859375 95.29296875 -31.3642578125 96.0791015625 -27.9013671875 c 0
 100.045898438 -9.7685546875 106.704101562 2.9814453125 116.0546875 10.3486328125 c 0
 125.404296875 17.71484375 136.596679688 21.3984375 149.629882812 21.3984375 c 0
 159.262695312 21.3984375 171.4453125 27.6318359375 186.178710938 40.0986328125 c 0
 202.045898438 53.6982421875 218.1953125 71.6904296875 234.62890625 94.0732421875 c 0
 251.061523438 116.456054688 267.211914062 143.798828125 283.078125 176.098632812 c 0
 298.9453125 208.3984375 312.262695312 241.265625 323.029296875 274.698242188 c 0
 328.129882812 291.698242188 332.946289062 310.256835938 337.479492188 330.373046875 c 0
 342.012695312 350.490234375 346.829101562 373.58203125 351.9296875 399.649414062 c 0
 360.99609375 449.515625 365.529296875 489.182617188 365.529296875 518.650390625 c 0
 365.557617188 520.633789062 365.572265625 522.604492188 365.572265625 524.560546875 c 0
 365.572265625 561.704101562 360.458007812 593.734375 350.229492188 620.650390625 c 0
 345.129882812 634.25 338.1875 644.875 329.404296875 652.525390625 c 0
 320.62109375 660.174804688 310.420898438 664 298.8046875 664 c 0
 287.1875 664 277.979492188 667.400390625 271.1796875 674.200195312 c 0
 266.138671875 679.240234375 263.619140625 686.137695312 263.619140625 694.891601562 c 0
 263.619140625 698.932617188 264.155273438 703.368164062 265.229492188 708.200195312 c 0
 266.9296875 716.700195312 270.045898438 724.349609375 274.579101562 731.150390625 c 0
 279.112304688 737.950195312 284.495117188 743.049804688 290.728515625 746.450195312 c 0
 299.228515625 750.983398438 308.295898438 753.25 317.928710938 753.25 c 0
 337.1953125 753.25 355.328125 748.291992188 372.328125 738.375 c 0
 389.328125 728.458007812 403.495117188 715.424804688 414.828125 699.275390625 c 0
 426.162109375 683.125 435.653320312 665.700195312 443.303710938 647 c 0
 450.953125 628.299804688 455.912109375 609.033203125 458.178710938 589.200195312 c 0
 459.944335938 574.096679688 460.826171875 557.6015625 460.826171875 539.713867188 c 0
 460.826171875 505.92578125 457.676757812 467.170898438 451.37890625 423.450195312 c 0
 445.711914062 384.349609375 439.76171875 351.625 433.528320312 325.275390625 c 0
 427.295898438 298.924804688 421.345703125 276.966796875 415.678710938 259.400390625 c 0
 395.278320312 195.3671875 370.061523438 138.700195312 340.028320312 89.400390625 c 0
 309.995117188 40.099609375 276.5625 1 239.729492188 -27.900390625 c 0
 202.896484375 -56.7998046875 165.779296875 -71.25 128.379882812 -71.25 c 0
EndSplineSet
Validated: 524289
EndChar

StartChar: asterisk
Encoding: 42 42 17
Width: 548
VWidth: 902
GlyphClass: 2
Flags: HMW
HStem: 290.901 108.799<99.5079 130.109> 297.7 101.151<434.691 459.907> 301.95 85.8509
LayerCount: 2
Fore
SplineSet
160.708007812 138.75 m 2x20
 153.056640625 138.750976562 l 2
 149.657226562 138.750976562 145.265625 139.317382812 139.881835938 140.451171875 c 0
 134.499023438 141.583984375 129.541015625 143.9921875 125.0078125 147.674804688 c 0
 120.474609375 151.358398438 116.791992188 156.458007812 113.958984375 162.974609375 c 0
 111.125976562 169.4921875 110.275390625 177.284179688 111.409179688 186.350585938 c 0
 111.409179688 188.05078125 111.69140625 190.317382812 112.258789062 193.151367188 c 0
 113.958984375 202.217773438 118.208984375 210.717773438 125.008789062 218.651367188 c 2
 185.358398438 294.30078125 l 1
 150.791992188 292.034179688 124.724609375 290.901367188 107.158203125 290.901367188 c 0
 91.8583984375 290.901367188 80.8076171875 296.567382812 74.0078125 307.901367188 c 0
 69.9599609375 315.186523438 67.9365234375 323.338867188 67.9365234375 332.359375 c 0
 67.9365234375 335.967773438 68.259765625 339.71484375 68.908203125 343.600585938 c 2
 68.908203125 346.151367188 l 2
 71.1748046875 357.484375 76.841796875 368.817382812 85.9091796875 380.150390625 c 0
 91.0087890625 386.950195312 97.80859375 392.049804688 106.30859375 395.450195312 c 0
 112.541992188 398.283203125 119.341796875 399.700195312 126.708984375 399.700195312 c 2
 130.108398438 399.700195312 l 1
 130.958984375 399.700195312 l 2x80
 151.92578125 398 180.826171875 395.733398438 217.659179688 392.900390625 c 1
 206.891601562 425.766601562 197.541992188 451.549804688 189.608398438 470.25 c 0
 186.819335938 477.921875 185.424804688 485.701171875 185.424804688 493.587890625 c 0
 185.424804688 498.516601562 185.96875 503.487304688 187.05859375 508.5 c 0
 187.625976562 510.766601562 188.475585938 513.034179688 189.608398438 515.30078125 c 0
 195.275390625 531.16796875 204.05859375 542.217773438 215.958984375 548.451171875 c 0
 223.891601562 552.984375 232.25 555.250976562 241.033203125 555.250976562 c 0
 249.81640625 555.250976562 257.890625 552.701171875 265.2578125 547.600585938 c 0
 273.19140625 541.93359375 278.291015625 533.43359375 280.557617188 522.100585938 c 0
 282.825195312 510.201171875 289.341796875 483.284179688 300.108398438 441.350585938 c 1
 322.775390625 470.817382812 341.758789062 497.451171875 357.05859375 521.250976562 c 0
 364.42578125 532.017578125 372.92578125 540.092773438 382.55859375 545.475585938 c 0
 392.19140625 550.859375 400.974609375 553.55078125 408.908203125 553.55078125 c 0
 417.408203125 553.55078125 424.491210938 551.284179688 430.158203125 546.750976562 c 0
 435.825195312 543.350585938 439.932617188 537.68359375 442.483398438 529.750976562 c 0
 443.833007812 525.55078125 444.5078125 521.033203125 444.5078125 516.197265625 c 0
 444.5078125 511.899414062 443.974609375 507.350585938 442.908203125 502.55078125 c 0
 440.640625 491.217773438 434.973632812 480.734375 425.907226562 471.1015625 c 0
 406.07421875 448.434570312 384.256835938 420.66796875 360.45703125 387.80078125 c 1x20
 397.290039062 388.368164062 423.922851562 391.201171875 440.356445312 396.30078125 c 0
 447.723632812 398.000976562 452.540039062 398.850585938 454.806640625 398.850585938 c 0x40
 465.006835938 398.850585938 472.940429688 395.16796875 478.607421875 387.80078125 c 0x20
 484.982421875 379.725585938 488.169921875 371.171875 488.169921875 362.140625 c 0
 488.169921875 359.129882812 487.815429688 356.06640625 487.107421875 352.950195312 c 0
 484.274414062 340.483398438 478.607421875 328.583007812 470.107421875 317.25 c 0
 465.006835938 310.450195312 458.774414062 305.067382812 451.407226562 301.099609375 c 0
 446.306640625 298.833007812 441.20703125 297.700195312 436.107421875 297.700195312 c 0x40
 433.274414062 297.700195312 430.44140625 297.983398438 427.608398438 298.549804688 c 0
 415.140625 300.817382812 392.19140625 301.950195312 358.7578125 301.950195312 c 2
 340.908203125 301.950195312 l 1
 367.2578125 218.650390625 l 2
 368.83203125 211.724609375 369.618164062 205.149414062 369.618164062 198.923828125 c 0
 369.618164062 193.94140625 369.115234375 189.18359375 368.107421875 184.650390625 c 0
 367.540039062 182.3828125 366.690429688 180.116210938 365.556640625 177.849609375 c 0
 361.024414062 164.81640625 353.374023438 155.18359375 342.607421875 148.950195312 c 0
 333.540039062 143.849609375 323.623046875 141.299804688 312.856445312 141.299804688 c 0
 304.356445312 141.299804688 296.422851562 143.283203125 289.056640625 147.25 c 0
 279.422851562 152.349609375 274.323242188 160.849609375 273.755859375 172.75 c 0
 272.623046875 191.450195312 267.806640625 217.516601562 259.306640625 250.950195312 c 1
 230.40625 209.016601562 211.706054688 180.966796875 203.206054688 166.799804688 c 0
 198.672851562 157.733398438 192.440429688 150.93359375 184.506835938 146.400390625 c 0
 176.57421875 141.8671875 168.640625 139.317382812 160.708007812 138.75 c 2x20
EndSplineSet
Validated: 524289
EndChar

StartChar: plus
Encoding: 43 43 18
Width: 548
VWidth: 909
GlyphClass: 2
Flags: HMW
HStem: 354.025 90.1<384.228 389.328 384.228 384.228>
LayerCount: 2
Fore
SplineSet
307.729492188 355.724609375 m 1
 289.032226562 272.424804688 l 2
 285.064453125 255.9921875 278.689453125 244.375 269.907226562 237.575195312 c 0
 261.124023438 230.775390625 251.065429688 226.807617188 239.732421875 225.674804688 c 2
 238.8828125 225.674804688 l 2
 226.416015625 225.674804688 217.065429688 229.075195312 210.833007812 235.875 c 0
 205.784179688 240.923828125 203.259765625 247.692382812 203.259765625 256.18359375 c 0
 203.259765625 261.03515625 204.083984375 266.448242188 205.732421875 272.423828125 c 2
 224.432617188 353.173828125 l 1
 153.8828125 352.32421875 l 2
 138.015625 352.32421875 127.107421875 356.857421875 121.157226562 365.923828125 c 0
 117.126953125 372.06640625 115.111328125 378.98828125 115.111328125 386.69140625 c 0
 115.111328125 390.358398438 115.568359375 394.203125 116.482421875 398.224609375 c 0
 116.482421875 398.791992188 116.765625 399.924804688 117.333007812 401.625 c 0
 120.166015625 413.525390625 126.3984375 424.0078125 136.032226562 433.075195312 c 0
 145.665039062 442.141601562 157.84765625 446.674804688 172.581054688 446.674804688 c 0
 173.713867188 446.674804688 182.072265625 446.533203125 197.655273438 446.25 c 0
 213.23828125 445.966796875 229.24609375 445.541992188 245.6796875 444.974609375 c 1
 253.045898438 478.408203125 258.712890625 506.741210938 262.6796875 529.974609375 c 0
 266.080078125 545.840820312 273.73046875 557.458007812 285.629882812 564.825195312 c 0
 294.129882812 570.4921875 304.330078125 573.325195312 316.23046875 573.325195312 c 2
 319.629882812 573.325195312 l 2
 330.962890625 573.325195312 339.74609375 570.4921875 345.979492188 564.825195312 c 0
 350.767578125 560.405273438 353.162109375 554.189453125 353.162109375 546.178710938 c 0
 353.162109375 541.864257812 352.467773438 537.030273438 351.079101562 531.674804688 c 0
 351.079101562 529.974609375 350.795898438 528.275390625 350.229492188 526.575195312 c 0
 341.729492188 497.674804688 334.646484375 470.192382812 328.979492188 444.125 c 1
 406.329101562 444.125 l 2
 421.62890625 444.125 431.545898438 440.158203125 436.079101562 432.224609375 c 0
 439.1015625 426.936523438 440.612304688 420.766601562 440.612304688 413.71484375 c 0
 440.612304688 410.188476562 440.234375 406.442382812 439.478515625 402.474609375 c 2
 439.478515625 401.625 l 2
 438.345703125 395.391601562 436.645507812 389.8671875 434.37890625 385.049804688 c 0
 432.111328125 380.233398438 428.994140625 375.275390625 425.02734375 370.174804688 c 0
 420.494140625 363.942382812 414.26171875 359.692382812 406.328125 357.424804688 c 0
 401.228515625 355.724609375 395.561523438 354.591796875 389.328125 354.025390625 c 2
 384.228515625 354.025390625 l 2
 376.294921875 354.591796875 364.961914062 355.016601562 350.229492188 355.299804688 c 0
 335.49609375 355.583007812 321.329101562 355.724609375 307.729492188 355.724609375 c 1
EndSplineSet
Validated: 524289
EndChar

StartChar: comma
Encoding: 44 44 19
Width: 548
VWidth: 845
GlyphClass: 2
Flags: HMW
VStem: 158.115 237.998
LayerCount: 2
Fore
SplineSet
218.461914062 -194.424804688 m 0
 208.828125 -197.825195312 200.8984375 -199.524414062 194.665039062 -199.524414062 c 0
 188.431640625 -199.524414062 183.33203125 -198.673828125 179.365234375 -196.973632812 c 0
 173.131835938 -194.70703125 167.889648438 -190.315429688 163.639648438 -183.797851562 c 0
 159.389648438 -177.28125 157.547851562 -169.206054688 158.115234375 -159.573242188 c 0
 158.115234375 -157.873046875 158.3984375 -156.172851562 158.96484375 -154.47265625 c 0
 160.665039062 -145.97265625 165.481445312 -137.47265625 173.415039062 -128.97265625 c 0
 187.58203125 -113.106445312 210.814453125 -76.556640625 243.115234375 -19.3232421875 c 0
 275.415039062 37.34375 296.09765625 77.2939453125 305.165039062 100.52734375 c 0
 309.698242188 110.7265625 316.498046875 118.801757812 325.564453125 124.751953125 c 0
 334.631835938 130.702148438 343.415039062 133.676757812 351.915039062 133.676757812 c 0
 352.481445312 133.676757812 353.33203125 133.959960938 354.46484375 134.52734375 c 0
 360.698242188 134.52734375 366.930664062 133.676757812 373.1640625 131.9765625 c 0
 382.796875 128.577148438 389.879882812 122.059570312 394.413085938 112.426757812 c 0
 396.453125 107.666992188 397.473632812 102.397460938 397.473632812 96.6171875 c 0
 397.473632812 92.763671875 397.020507812 88.68359375 396.11328125 84.376953125 c 0
 395.545898438 80.41015625 394.413085938 77.29296875 392.712890625 75.0263671875 c 0
 380.813476562 47.2587890625 359.563476562 3.9091796875 328.962890625 -55.0244140625 c 0
 297.795898438 -113.95703125 275.5546875 -150.506835938 262.237304688 -164.673828125 c 0
 248.920898438 -178.840820312 234.328125 -188.7578125 218.461914062 -194.424804688 c 0
EndSplineSet
Validated: 524289
EndChar

StartChar: hyphen
Encoding: 45 45 20
Width: 548
VWidth: 893
GlyphClass: 2
Flags: HMW
HStem: 238.626 95.1991<172.346 213.996> 242.451 92.65
VStem: 145.429 266.051<285.375 294.726>
LayerCount: 2
Fore
SplineSet
198.978515625 333.825195312 m 0xa0
 229.01171875 333.825195312 264.854492188 334.250976562 306.504882812 335.100585938 c 0
 348.155273438 335.951171875 371.8125 336.375976562 377.479492188 336.375976562 c 0
 392.780273438 336.375976562 402.837890625 332.409179688 407.655273438 324.475585938 c 0
 410.930664062 319.08203125 412.568359375 312.76953125 412.568359375 305.541015625 c 0
 412.568359375 302.139648438 412.205078125 298.534179688 411.479492188 294.725585938 c 1
 410.629882812 293.875976562 l 1
 407.796875 280.276367188 402.696289062 269.79296875 395.330078125 262.42578125 c 0
 385.129882812 251.659179688 372.379882812 246.276367188 357.080078125 246.276367188 c 0
 350.280273438 246.276367188 323.504882812 245.000976562 276.754882812 242.451171875 c 0x60
 230.004882812 239.901367188 197.280273438 238.625976562 178.580078125 238.625976562 c 0
 166.11328125 238.625976562 157.045898438 242.026367188 151.37890625 248.826171875 c 0
 146.338867188 254.25390625 143.818359375 261.670898438 143.818359375 271.078125 c 0
 143.818359375 275.419921875 144.35546875 280.185546875 145.428710938 285.375 c 0
 145.428710938 286.5078125 145.711914062 287.924804688 146.279296875 289.625 c 0
 149.678710938 305.4921875 157.045898438 317.392578125 168.37890625 325.325195312 c 0
 176.87890625 330.9921875 187.079101562 333.825195312 198.978515625 333.825195312 c 0xa0
EndSplineSet
Validated: 524289
EndChar

StartChar: period
Encoding: 46 46 21
Width: 548
VWidth: 859
GlyphClass: 2
Flags: HMW
HStem: -12.6499 151.302<244.8 309.683 254.15 309.683>
VStem: 203.15 149.175
LayerCount: 2
Fore
SplineSet
254.150390625 -12.6494140625 m 2
 235.450195312 -12.6494140625 221.283203125 -5.849609375 211.650390625 7.75 c 0
 204.34375 18.5166015625 200.69140625 30.4580078125 200.69140625 43.5732421875 c 0
 200.69140625 49.78515625 201.510742188 56.26171875 203.150390625 63.0009765625 c 0
 208.25 83.9677734375 220.150390625 101.53515625 238.849609375 115.702148438 c 0
 259.25 131.001953125 279.5078125 138.651367188 299.625 138.651367188 c 0
 319.7421875 138.651367188 334.6171875 131.8515625 344.25 118.251953125 c 0
 351.178710938 108.62890625 354.642578125 97.4375 354.642578125 84.677734375 c 0
 354.642578125 78.6513671875 353.870117188 72.2763671875 352.325195312 65.55078125 c 0
 347.5078125 44.583984375 336.8828125 27.017578125 320.450195312 12.8505859375 c 0
 304.016601562 -1.31640625 284.75 -9.81640625 262.650390625 -12.6494140625 c 2
 254.150390625 -12.6494140625 l 2
EndSplineSet
Validated: 524289
EndChar

StartChar: slash
Encoding: 47 47 22
Width: 548
VWidth: 901
GlyphClass: 2
Flags: HMW
HStem: 686.035 17G<512.616 521.116>
LayerCount: 2
Fore
SplineSet
51.9150390625 -5.0146484375 m 0
 43.4150390625 -8.4150390625 35.4833984375 -10.2578125 28.1171875 -10.541015625 c 0
 20.75 -10.8232421875 14.5166015625 -8.6982421875 9.4169921875 -4.166015625 c 0
 2.1630859375 1.2744140625 -1.462890625 10.703125 -1.462890625 24.12109375 c 0
 -1.462890625 27.4765625 -1.236328125 31.0810546875 -0.783203125 34.9345703125 c 0
 -0.783203125 37.767578125 -0.2158203125 40.884765625 0.9169921875 44.2841796875 c 0
 4.3173828125 59.017578125 11.1171875 73.1845703125 21.3173828125 86.7841796875 c 0
 129.549804688 222.784179688 223.333007812 343.484375 302.666015625 448.884765625 c 0
 351.965820312 513.484375 405.233398438 587.151367188 462.465820312 669.884765625 c 0
 469.833007812 680.651367188 478.616210938 688.868164062 488.81640625 694.53515625 c 0
 499.015625 700.202148438 508.366210938 703.03515625 516.866210938 703.03515625 c 0
 525.366210938 703.03515625 533.298828125 701.051757812 540.666015625 697.084960938 c 0
 551.432617188 690.28515625 557.099609375 680.084960938 557.666992188 666.485351562 c 0
 557.666992188 662.518554688 557.099609375 658.268554688 555.966796875 653.735351562 c 0
 553.700195312 644.102539062 548.8828125 633.619140625 541.515625 622.286132812 c 0
 521.116210938 592.819335938 466.149414062 521.561523438 376.616210938 408.510742188 c 0
 287.083007812 295.4609375 232.116210938 225.3359375 211.715820312 198.135742188 c 0
 199.249023438 180.569335938 178.70703125 150.819335938 150.08984375 108.885742188 c 0
 121.473632812 66.953125 103.765625 41.453125 96.96484375 32.3857421875 c 0
 83.365234375 14.8193359375 68.3486328125 2.3525390625 51.9150390625 -5.0146484375 c 0
EndSplineSet
Validated: 524289
EndChar

StartChar: zero
Encoding: 48 48 23
Width: 548
VWidth: 902
GlyphClass: 2
Flags: HMW
HStem: 31.65 91.7966<174.527 217.594> 572.247 90.1025<321.011 382.778>
LayerCount: 2
Fore
SplineSet
509.995117188 469.400390625 m 0
 509.428710938 467.1328125 509.427734375 466.849609375 509.994140625 468.548828125 c 1
 504.89453125 435.116210938 498.377929688 401.116210938 490.444335938 366.548828125 c 0
 482.51171875 331.982421875 473.5859375 297.982421875 463.668945312 264.548828125 c 0
 453.752929688 231.116210938 444.260742188 204.765625 435.193359375 185.499023438 c 0
 417.626953125 149.232421875 398.926757812 119.765625 379.09375 97.0986328125 c 0
 369.4609375 85.765625 358.977539062 76.1318359375 347.64453125 68.19921875 c 0
 336.311523438 60.2666015625 325.26171875 54.033203125 314.494140625 49.5 c 0
 303.161132812 44.966796875 290.411132812 41 276.244140625 37.599609375 c 0
 262.077148438 34.7666015625 248.3359375 33.0673828125 235.018554688 32.5 c 0
 221.701171875 31.9326171875 206.259765625 31.650390625 188.692382812 31.650390625 c 0
 160.359375 31.650390625 135.142578125 36.466796875 113.04296875 46.099609375 c 0
 92.642578125 55.7333984375 76.4931640625 69.474609375 64.5927734375 87.3251953125 c 0
 52.6923828125 105.174804688 45.4677734375 126.567382812 42.91796875 151.5 c 0
 42.22265625 158.299804688 41.875 165.247070312 41.875 172.342773438 c 0
 41.875 191.262695312 44.34765625 211.231445312 49.29296875 232.25 c 0
 49.29296875 233.950195312 49.576171875 235.650390625 50.142578125 237.349609375 c 0
 56.3759765625 264.549804688 62.326171875 290.6171875 67.9931640625 315.549804688 c 0
 71.9599609375 333.1171875 77.201171875 354.650390625 83.71875 380.150390625 c 0
 90.2353515625 405.650390625 96.3271484375 426.7578125 101.994140625 443.474609375 c 0
 107.661132812 460.192382812 114.744140625 478.18359375 123.244140625 497.451171875 c 0
 131.744140625 517.284179688 140.244140625 534.567382812 148.744140625 549.299804688 c 0
 170.844726562 586.1328125 200.311523438 614.182617188 237.14453125 633.450195312 c 0
 276.811523438 652.716796875 321.293945312 662.349609375 370.594726562 662.349609375 c 0
 394.9609375 662.349609375 417.061523438 658.3828125 436.89453125 650.450195312 c 0
 456.161132812 642.516601562 472.028320312 630.6171875 484.495117188 614.75 c 0
 496.961914062 598.8828125 505.461914062 578.625 509.995117188 553.974609375 c 0
 512.26171875 541.650390625 513.39453125 528.439453125 513.39453125 514.34375 c 0
 513.39453125 500.248046875 512.26171875 485.266601562 509.995117188 469.400390625 c 0
378.244140625 562.048828125 m 0
 367.1953125 568.889648438 354.19140625 572.30859375 339.233398438 572.30859375 c 0
 338.08203125 572.30859375 336.918945312 572.288085938 335.744140625 572.247070312 c 0
 306.27734375 572.247070312 281.76953125 564.455078125 262.219726562 548.872070312 c 0
 242.668945312 533.2890625 224.111328125 506.797851562 206.543945312 469.397460938 c 0
 199.744140625 454.6640625 193.51171875 439.081054688 187.844726562 422.6484375 c 0
 182.744140625 406.21484375 177.927734375 386.948242188 173.39453125 364.848632812 c 0
 165.4609375 330.848632812 156.9609375 291.46484375 147.89453125 246.698242188 c 1
 238.561523438 340.765625 323.561523438 437.381835938 402.89453125 536.548828125 c 1
 396.661132812 547.31640625 388.444335938 555.81640625 378.244140625 562.048828125 c 0
412.244140625 441.34765625 m 1
 329.51171875 333.114257812 241.9609375 240.747070312 149.594726562 164.247070312 c 1
 157.52734375 137.61328125 177.64453125 124.013671875 209.944335938 123.446289062 c 0
 225.244140625 123.446289062 238.702148438 124.721679688 250.319335938 127.271484375 c 0
 261.936523438 129.821289062 273.411132812 133.9296875 284.744140625 139.596679688 c 0
 307.411132812 151.497070312 327.811523438 174.446289062 345.944335938 208.446289062 c 0
 349.344726562 215.247070312 355.861328125 233.379882812 365.494140625 262.846679688 c 0
 375.127929688 292.313476562 385.043945312 326.880859375 395.244140625 366.547851562 c 0
 402.043945312 392.614257812 407.7109375 417.547851562 412.244140625 441.34765625 c 1
EndSplineSet
Validated: 524289
EndChar

StartChar: one
Encoding: 49 49 24
Width: 548
VWidth: 904
GlyphClass: 2
Flags: HMW
HStem: 46.425 94.35 49.825 96.9<91.2052 133.705>
LayerCount: 2
Fore
SplineSet
64.5751953125 82.125 m 0x40
 64.5751953125 86.375 65.4248046875 90.625 66.275390625 95.724609375 c 0
 66.275390625 96.5751953125 66.275390625 98.275390625 67.125 99.125 c 0
 69.6748046875 111.875 75.625 122.075195312 83.275390625 131.424804688 c 0
 93.474609375 141.625 106.224609375 146.724609375 122.375 146.724609375 c 0x40
 145.325195312 146.724609375 184.424804688 145.875 239.674804688 145.025390625 c 1
 243.924804688 161.174804688 246.474609375 175.625 248.174804688 187.525390625 c 0
 249.025390625 192.625 251.575195312 207.075195312 257.525390625 230.875 c 0
 262.625 252.125 266.875 269.974609375 271.125 284.424804688 c 2
 294.924804688 376.224609375 l 2
 317.875 462.075195312 331.474609375 512.224609375 335.724609375 526.674804688 c 1
 295.775390625 501.174804688 266.875 485.025390625 247.325195312 478.224609375 c 0
 240.525390625 476.525390625 236.275390625 475.674804688 233.724609375 475.674804688 c 0
 224.375 475.674804688 215.025390625 479.924804688 207.375 488.424804688 c 0
 199.724609375 496.924804688 195.474609375 506.275390625 195.474609375 514.775390625 c 0
 195.474609375 517.325195312 196.325195312 519.875 197.174804688 523.275390625 c 0
 199.724609375 534.325195312 203.974609375 544.525390625 210.775390625 553.025390625 c 0
 217.575195312 561.525390625 226.924804688 570.025390625 238.825195312 577.674804688 c 0
 256.674804688 589.575195312 279.625 605.724609375 309.375 625.275390625 c 1
 319.575195312 626.974609375 331.474609375 634.625 344.224609375 648.224609375 c 0
 354.424804688 655.025390625 365.474609375 660.974609375 376.525390625 666.924804688 c 0
 386.724609375 672.025390625 395.224609375 674.575195312 402.875 674.575195312 c 2
 405.424804688 674.575195312 l 2
 419.875 674.575195312 433.474609375 668.625 446.224609375 657.575195312 c 0
 453.025390625 651.625 457.275390625 645.674804688 459.825195312 640.575195312 c 0
 460.674804688 638.875 461.525390625 637.174804688 461.525390625 634.625 c 0
 461.525390625 625.275390625 454.724609375 600.625 424.974609375 490.974609375 c 0
 404.575195312 414.474609375 392.674804688 369.424804688 389.275390625 356.674804688 c 0
 376.525390625 303.974609375 367.174804688 259.775390625 359.525390625 224.075195312 c 2
 359.525390625 224.075195312 358.674804688 222.375 358.674804688 219.825195312 c 0
 354.424804688 201.125 349.325195312 174.775390625 342.525390625 141.625 c 1
 370.575195312 140.775390625 388.424804688 140.775390625 396.075195312 140.775390625 c 2
 425.825195312 140.775390625 l 2
 438.575195312 140.775390625 446.224609375 139.924804688 449.625 139.924804688 c 0
 467.474609375 139.924804688 478.525390625 136.525390625 484.474609375 128.025390625 c 0
 488.724609375 122.075195312 490.424804688 114.424804688 490.424804688 106.775390625 c 0
 490.424804688 103.375 490.424804688 99.974609375 489.575195312 96.5751953125 c 0
 489.575195312 95.724609375 489.575195312 94.875 488.724609375 94.025390625 c 0
 486.174804688 81.275390625 479.375 70.224609375 470.025390625 60.875 c 0
 459.825195312 51.525390625 445.375 46.4248046875 427.525390625 46.4248046875 c 0x80
 227.775390625 48.125 118.125 48.974609375 98.5751953125 49.8251953125 c 0
 84.125 49.8251953125 73.9248046875 54.0751953125 68.8251953125 63.4248046875 c 0
 66.275390625 69.375 64.5751953125 75.3251953125 64.5751953125 82.125 c 0x40
EndSplineSet
Validated: 524289
EndChar

StartChar: two
Encoding: 50 50 25
Width: 548
VWidth: 902
GlyphClass: 2
Flags: HMW
HStem: 35.6443 96.0542 42.4443 96.0551<389.334 389.334 389.334 394.429> 483.597 17.85G<178.245 181.078> 573.696 92.6509<354.197 362.129>
LayerCount: 2
Fore
SplineSet
389.334960938 138.499023438 m 1x70
 390.178710938 138.493164062 l 1
 397.545898438 145.860351562 402.928710938 146.143554688 406.329101562 139.34375 c 0
 408.028320312 139.34375 411.145507812 139.201171875 415.678710938 138.918945312 c 0
 420.211914062 138.635742188 423.611328125 137.78515625 425.87890625 136.368164062 c 0
 428.145507812 134.951171875 430.412109375 133.393554688 432.6796875 131.693359375 c 0
 436.079101562 129.426757812 438.346679688 126.026367188 439.479492188 121.493164062 c 0
 440.612304688 114.693359375 440.329101562 106.760742188 438.629882812 97.693359375 c 0
 434.662109375 81.2607421875 427.579101562 67.376953125 417.379882812 56.0439453125 c 0
 408.879882812 46.9775390625 399.529296875 42.4443359375 389.329101562 42.4443359375 c 0x70
 352.49609375 42.4443359375 292.146484375 40.744140625 208.279296875 37.3447265625 c 0
 179.946289062 36.2109375 151.046875 35.64453125 121.579101562 35.64453125 c 0
 94.3798828125 35.64453125 73.1298828125 36.77734375 57.8291015625 39.0439453125 c 0
 49.3291015625 40.177734375 42.8125 43.8603515625 38.279296875 50.09375 c 0
 34.8798828125 54.626953125 32.6123046875 60.576171875 31.4794921875 67.943359375 c 0
 31.1015625 71.2177734375 30.9130859375 74.771484375 30.9130859375 78.60546875 c 0
 30.9130859375 92.0234375 33.2265625 108.869140625 37.8544921875 129.143554688 c 0
 43.8046875 155.2109375 54.99609375 181.418945312 71.4296875 207.768554688 c 0
 87.8623046875 234.118164062 108.829101562 259.760742188 134.329101562 284.693359375 c 0
 159.829101562 309.626953125 188.446289062 329.743164062 220.1796875 345.043945312 c 0
 289.3125 377.91015625 334.079101562 400.577148438 354.479492188 413.043945312 c 0
 379.979492188 428.911132812 397.546875 445.627929688 407.1796875 463.1953125 c 0
 412.846679688 473.961914062 417.379882812 487.279296875 420.779296875 503.146484375 c 0
 422.607421875 511.188476562 423.521484375 518.495117188 423.521484375 525.063476562 c 0
 423.521484375 538.858398438 419.491210938 549.40234375 411.4296875 556.696289062 c 0
 398.962890625 568.029296875 377.4296875 573.696289062 346.829101562 573.696289062 c 0
 326.4296875 573.696289062 305.321289062 567.462890625 283.504882812 554.99609375 c 0
 261.6875 542.529296875 243.6953125 528.646484375 229.528320312 513.345703125 c 0
 222.162109375 505.413085938 215.219726562 498.754882812 208.703125 493.372070312 c 0
 202.185546875 487.989257812 195.528320312 485.013671875 188.727539062 484.447265625 c 0
 187.028320312 484.447265625 184.477539062 484.1640625 181.078125 483.596679688 c 0
 175.411132812 483.596679688 167.760742188 486.4296875 158.127929688 492.096679688 c 0
 147.927734375 498.896484375 142.544921875 508.530273438 141.977539062 520.997070312 c 0
 141.977539062 523.830078125 142.260742188 526.947265625 142.828125 530.346679688 c 0
 145.094726562 540.546875 150.76171875 552.1640625 159.829101562 565.197265625 c 0
 168.329101562 577.096679688 179.37890625 588.854492188 192.978515625 600.471679688 c 0
 206.579101562 612.088867188 221.87890625 622.997070312 238.87890625 633.197265625 c 0
 256.4453125 643.396484375 276.5625 651.471679688 299.229492188 657.421875 c 0
 321.896484375 663.372070312 343.713867188 666.346679688 364.680664062 666.346679688 c 0
 429.84765625 666.346679688 475.180664062 651.896484375 500.680664062 622.997070312 c 0
 516.813476562 604.296875 524.879882812 579.546875 524.879882812 548.74609375 c 0
 524.879882812 531.946289062 522.48046875 513.346679688 517.680664062 492.947265625 c 0
 506.34765625 445.9140625 485.6640625 407.380859375 455.630859375 377.34765625 c 0
 433.53125 356.380859375 396.698242188 333.430664062 345.130859375 308.498046875 c 0
 332.09765625 302.264648438 309.71484375 292.064453125 277.982421875 277.897460938 c 0
 251.348632812 265.998046875 228.116210938 251.405273438 208.283203125 234.123046875 c 0
 188.450195312 216.83984375 172.8671875 199.131835938 161.533203125 180.998046875 c 0
 151.900390625 165.698242188 144.250976562 149.265625 138.583984375 131.698242188 c 1xb0
 169.18359375 130.565429688 198.3671875 129.857421875 226.133789062 129.57421875 c 0
 231.68359375 129.517578125 236.99609375 129.489257812 242.071289062 129.489257812 c 0
 262.384765625 129.489257812 278.888671875 129.942382812 291.584960938 130.849609375 c 0
 306.884765625 131.982421875 339.467773438 134.532226562 389.334960938 138.499023438 c 1x70
EndSplineSet
Validated: 524289
EndChar

StartChar: three
Encoding: 51 51 26
Width: 548
VWidth: 902
GlyphClass: 2
Flags: HMW
HStem: 31.9507 91.7983<193.274 244.56> 312.449 106.25<233.793 238.609> 495.2 17.85G<178.827 184.494> 573.399 92.6509<317.945 375.744>
VStem: 406.344 97.75<496.051 509.932>
LayerCount: 2
Fore
SplineSet
464.993164062 289.923828125 m 0
 465.384765625 285.67578125 465.581054688 281.26953125 465.581054688 276.705078125 c 0
 465.581054688 261.48046875 463.400390625 244.49609375 459.040039062 225.75 c 0
 445.440429688 166.25 416.823242188 118.932617188 373.190429688 83.7998046875 c 0
 329.692382812 49.224609375 274.395507812 31.9375 207.297851562 31.9375 c 0
 206.21484375 31.9375 205.12890625 31.94140625 204.040039062 31.951171875 c 0
 182.5078125 31.951171875 161.82421875 35.0673828125 141.991210938 41.30078125 c 0
 122.158203125 47.5341796875 106.150390625 55.466796875 93.966796875 65.099609375 c 0
 81.7841796875 74.7333984375 71.7255859375 85.5 63.79296875 97.3994140625 c 0
 55.29296875 109.299804688 49.6259765625 121.057617188 46.79296875 132.674804688 c 0
 45.21875 139.127929688 44.4326171875 145.362304688 44.4326171875 151.37890625 c 0
 44.4326171875 156.192382812 44.9365234375 160.866210938 45.943359375 165.399414062 c 0
 46.5107421875 168.799804688 47.6435546875 172.200195312 49.34375 175.599609375 c 0
 55.0107421875 189.200195312 64.3603515625 199.1171875 77.3935546875 205.349609375 c 0
 87.0263671875 209.8828125 95.5263671875 212.149414062 102.893554688 212.149414062 c 0
 118.760742188 212.149414062 130.943359375 203.083007812 139.443359375 184.950195312 c 0
 147.376953125 169.083007812 159.134765625 154.916015625 174.717773438 142.44921875 c 0
 190.30078125 129.982421875 208.29296875 123.749023438 228.693359375 123.749023438 c 0
 260.42578125 123.749023438 288.333984375 132.107421875 312.416992188 148.82421875 c 0
 336.5 165.541015625 351.658203125 186.649414062 357.891601562 212.149414062 c 0
 360.205078125 221.735351562 361.362304688 230.502929688 361.362304688 238.450195312 c 0
 361.362304688 244.125976562 360.772460938 249.383789062 359.591796875 254.223632812 c 0
 356.758789062 265.840820312 350.666992188 276.041015625 341.317382812 284.82421875 c 0
 331.966796875 293.607421875 317.516601562 300.407226562 297.966796875 305.223632812 c 0
 278.416992188 310.041015625 253.625 312.44921875 223.591796875 312.44921875 c 0
 208.859375 312.44921875 197.526367188 318.116210938 189.592773438 329.44921875 c 0
 184.040039062 337.381835938 181.262695312 346.009765625 181.262695312 355.33203125 c 0
 181.262695312 359.326171875 181.772460938 363.44921875 182.79296875 367.69921875 c 0
 186.193359375 381.866210938 192.709960938 393.765625 202.342773438 403.399414062 c 0
 213.109375 413.598632812 226.142578125 418.69921875 241.443359375 418.69921875 c 0
 287.91015625 418.69921875 325.876953125 426.916015625 355.34375 443.348632812 c 0
 382.543945312 458.649414062 399.543945312 480.749023438 406.34375 509.649414062 c 0
 406.34375 510.166992188 406.580078125 510.919921875 407.052734375 511.91015625 c 0
 407.094726562 512.25390625 407.141601562 512.6328125 407.193359375 513.047851562 c 0
 407.193359375 514.181640625 407.4765625 515.03125 408.043945312 515.598632812 c 0
 409.213867188 520.5703125 409.798828125 525.202148438 409.798828125 529.495117188 c 0
 409.798828125 541.836914062 404.963867188 551.372070312 395.293945312 558.098632812 c 0
 381.297851562 568.327148438 358.86328125 573.44140625 327.991210938 573.44140625 c 0
 326.366210938 573.44140625 324.716796875 573.427734375 323.044921875 573.399414062 c 0
 312.844726562 573.399414062 301.794921875 571.69921875 289.89453125 568.298828125 c 0
 286.494140625 567.166015625 282.244140625 565.041015625 277.14453125 561.923828125 c 0
 272.044921875 558.806640625 268.077148438 556.256835938 265.244140625 554.274414062 c 0
 262.411132812 552.291015625 258.444335938 549.033203125 253.344726562 544.5 c 0
 248.244140625 539.966796875 244.844726562 536.56640625 243.14453125 534.299804688 c 0
 237.477539062 522.966796875 233.510742188 519 231.244140625 522.399414062 c 1
 217.643554688 508.233398438 204.893554688 499.450195312 192.994140625 496.049804688 c 0
 189.59375 495.483398438 186.193359375 495.200195312 182.79296875 495.200195312 c 0
 174.859375 495.200195312 166.927734375 497.466796875 158.994140625 502 c 0
 149.814453125 507.609375 145.224609375 516.203125 145.224609375 527.78125 c 0
 145.224609375 527.922851562 145.270507812 536.110351562 146.244140625 541.950195312 c 0
 148.51171875 552.149414062 153.89453125 563.200195312 162.39453125 575.099609375 c 0
 179.39453125 598.899414062 201.211914062 619.583007812 227.844726562 637.149414062 c 0
 242.01171875 646.216796875 259.01171875 653.299804688 278.844726562 658.399414062 c 0
 298.677734375 663.5 319.360351562 666.049804688 340.893554688 666.049804688 c 0
 410.59375 666.049804688 458.760742188 652.166992188 485.393554688 624.399414062 c 0
 502.780273438 605.467773438 511.473632812 580.608398438 511.473632812 549.822265625 c 0
 511.473632812 535.455078125 509.580078125 519.797851562 505.793945312 502.848632812 c 0
 505.793945312 501.715820312 505.510742188 500.583007812 504.943359375 499.450195312 c 0
 504.376953125 498.31640625 504.09375 497.182617188 504.09375 496.049804688 c 0
 500.693359375 480.182617188 495.168945312 465.451171875 487.518554688 451.850585938 c 0
 479.869140625 438.250976562 471.0859375 426.633789062 461.168945312 417.000976562 c 0
 451.251953125 407.3671875 440.202148438 398.8671875 428.018554688 391.500976562 c 0
 415.8359375 384.133789062 403.510742188 378.466796875 391.043945312 374.5 c 1
 398.9765625 371.666992188 406.059570312 368.833984375 412.29296875 366.000976562 c 0
 426.459960938 358.633789062 438.359375 348.716796875 447.993164062 336.25 c 0
 457.625976562 323.783203125 463.29296875 308.340820312 464.993164062 289.923828125 c 0
EndSplineSet
Validated: 524289
EndChar

StartChar: four
Encoding: 52 52 27
Width: 548
VWidth: 902
GlyphClass: 2
Flags: HMW
HStem: 33.174 17.85G<319.92 332.387> 238.873 76.5017<287.336 288.187 288.187 323.887>
LayerCount: 2
Fore
SplineSet
287.3359375 315.375 m 2
 340.884765625 315.375 l 1
 363.551757812 413.408203125 380.268554688 492.741210938 391.036132812 553.374023438 c 1
 293.002929688 451.94140625 222.736328125 371.7578125 180.236328125 312.825195312 c 1
 209.703125 314.524414062 245.40234375 315.375 287.3359375 315.375 c 2
376.584960938 103.724609375 m 0
 376.584960938 96.9248046875 375.736328125 90.4072265625 374.037109375 84.173828125 c 0
 371.76953125 72.8408203125 367.51953125 62.923828125 361.287109375 54.423828125 c 0
 351.086914062 40.2568359375 339.186523438 33.173828125 325.586914062 33.173828125 c 0
 314.25390625 33.173828125 304.336914062 37.56640625 295.836914062 46.3486328125 c 0
 288.752929688 53.66796875 285.211914062 61.2822265625 285.211914062 69.1923828125 c 0
 285.211914062 70.7744140625 285.353515625 72.3681640625 285.63671875 73.9736328125 c 0
 286.76953125 80.7734375 289.037109375 91.5400390625 292.436523438 106.2734375 c 2
 307.736328125 170.873046875 l 2
 313.403320312 194.106445312 318.787109375 216.7734375 323.88671875 238.873046875 c 1
 288.186523438 238.873046875 l 2
 209.986328125 238.873046875 153.88671875 235.190429688 119.88671875 227.823242188 c 0
 115.919921875 227.255859375 111.811523438 226.973632812 107.561523438 226.973632812 c 0
 103.311523438 226.973632812 99.486328125 227.823242188 96.0869140625 229.5234375 c 0
 89.287109375 232.356445312 84.3291015625 236.606445312 81.2119140625 242.2734375 c 0
 78.0947265625 247.940429688 76.2529296875 254.598632812 75.685546875 262.248046875 c 0
 75.119140625 269.8984375 75.685546875 277.690429688 77.3857421875 285.623046875 c 0
 79.65234375 294.690429688 83.052734375 303.190429688 87.5859375 311.123046875 c 0
 96.65234375 327.556640625 116.911132812 353.481445312 148.361328125 388.8984375 c 0
 179.810546875 424.315429688 220.46875 468.373046875 270.3359375 521.073242188 c 0
 314.536132812 567.540039062 350.236328125 605.790039062 377.435546875 635.823242188 c 0
 387.635742188 646.58984375 398.119140625 654.806640625 408.885742188 660.473632812 c 0
 419.65234375 666.140625 429.286132812 668.973632812 437.786132812 668.973632812 c 0
 440.619140625 668.973632812 442.6015625 669.256835938 443.735351562 669.82421875 c 0
 453.368164062 669.82421875 461.584960938 667.556640625 468.384765625 663.024414062 c 0
 476.353515625 657.7109375 480.337890625 648.913085938 480.337890625 636.62890625 c 0
 480.337890625 632.833984375 479.510742188 609.34765625 467.110351562 542.75 c 0
 459.459960938 501.666992188 452.518554688 467.2421875 446.28515625 439.474609375 c 0
 437.217773438 397.541992188 428.434570312 355.891601562 419.934570312 314.524414062 c 1
 427.868164062 314.524414062 436.651367188 314.2421875 446.284179688 313.674804688 c 0
 459.883789062 313.674804688 468.666992188 310.416992188 472.633789062 303.899414062 c 0
 476.6015625 297.3828125 477.451171875 289.024414062 475.184570312 278.825195312 c 0
 472.3515625 266.924804688 467.818359375 257.291992188 461.584960938 249.924804688 c 0
 453.084960938 241.424804688 442.03515625 237.174804688 428.434570312 237.174804688 c 0
 419.368164062 237.174804688 410.868164062 237.458007812 402.934570312 238.024414062 c 1
 385.368164062 159.825195312 376.584960938 115.057617188 376.584960938 103.724609375 c 0
EndSplineSet
Validated: 524289
EndChar

StartChar: five
Encoding: 53 53 28
Width: 548
VWidth: 902
GlyphClass: 2
Flags: HMW
HStem: 36.7479 92.6509<181.103 204.904> 398.848 96.0491<300.954 365.553> 557.798 96.0491<478.886 512.599> 567.148 88.3991
LayerCount: 2
Fore
SplineSet
119.904296875 528.899414062 m 0xd0
 125.00390625 546.466796875 128.682617188 559.497070312 130.950195312 567.997070312 c 1
 129.25 573.096679688 128.400390625 578.622070312 128.400390625 584.572265625 c 0
 128.400390625 590.522460938 129.25 596.897460938 130.950195312 603.697265625 c 0
 134.916992188 621.830078125 143.416992188 635.997070312 156.450195312 646.197265625 c 0
 165.516601562 653.564453125 175.150390625 657.247070312 185.349609375 657.247070312 c 0
 205.182617188 657.247070312 253.916015625 656.680664062 331.548828125 655.546875 c 0xd0
 410.881835938 654.4140625 469.532226562 653.846679688 507.499023438 653.846679688 c 0
 517.69921875 653.846679688 524.782226562 649.314453125 528.749023438 640.247070312 c 0
 531.618164062 633.872070312 533.052734375 626.690429688 533.052734375 618.702148438 c 0
 533.052734375 612.48828125 532.184570312 605.787109375 530.44921875 598.59765625 c 0
 526.482421875 582.165039062 519.399414062 571.115234375 509.19921875 565.448242188 c 0
 506.366210938 563.748046875 503.533203125 562.189453125 500.700195312 560.7734375 c 0
 497.8671875 559.356445312 494.18359375 558.505859375 489.650390625 558.22265625 c 0
 485.118164062 557.939453125 481.859375 557.797851562 479.876953125 557.797851562 c 0xe0
 477.893554688 557.797851562 475.060546875 557.939453125 471.377929688 558.22265625 c 0
 467.694335938 558.505859375 465.286132812 558.6484375 464.153320312 558.6484375 c 0
 456.786132812 558.6484375 443.186523438 559.78125 423.353515625 562.047851562 c 0
 402.953125 563.748046875 384.8203125 565.0234375 368.953125 565.873046875 c 0
 353.0859375 566.72265625 331.553710938 567.1484375 304.353515625 567.1484375 c 0
 277.153320312 567.1484375 249.669921875 566.297851562 221.903320312 564.59765625 c 1
 210.002929688 522.09765625 202.919921875 496.59765625 200.653320312 488.09765625 c 0
 198.38671875 477.8984375 196.686523438 470.53125 195.553710938 465.998046875 c 0
 194.419921875 461.46484375 193.002929688 455.514648438 191.303710938 448.1484375 c 1
 208.303710938 459.481445312 227.853515625 469.114257812 249.953125 477.046875 c 0
 281.686523438 488.947265625 315.686523438 494.897460938 351.953125 494.897460938 c 0
 379.153320312 494.897460938 402.38671875 490.080078125 421.653320312 480.447265625 c 0
 439.220703125 470.247070312 452.678710938 456.647460938 462.028320312 439.647460938 c 0
 471.377929688 422.647460938 476.903320312 402.955078125 478.603515625 380.572265625 c 0
 478.967773438 375.776367188 479.149414062 370.895507812 479.149414062 365.9296875 c 0
 479.149414062 347.72265625 476.701171875 328.37890625 471.803710938 307.897460938 c 0
 462.169921875 265.963867188 448.287109375 227.856445312 430.154296875 193.573242188 c 0
 412.021484375 159.290039062 391.053710938 130.672851562 367.25390625 107.72265625 c 0
 343.454101562 84.7734375 316.25390625 67.064453125 285.654296875 54.59765625 c 0
 254.487304688 42.6982421875 221.904296875 36.748046875 187.904296875 36.748046875 c 0
 161.836914062 36.748046875 138.3203125 39.5810546875 117.353515625 45.248046875 c 0
 96.38671875 50.9150390625 79.953125 58.2822265625 68.0537109375 67.3486328125 c 0
 56.1533203125 76.416015625 46.8037109375 86.3330078125 40.0029296875 97.099609375 c 0
 33.203125 107.866210938 28.103515625 119.19921875 24.703125 131.099609375 c 0
 23.5703125 137.616210938 23.0029296875 143.778320312 23.0029296875 149.586914062 c 0
 23.0029296875 155.395507812 23.5703125 160.849609375 24.703125 165.94921875 c 0
 25.2705078125 169.349609375 26.1201171875 172.75 27.2529296875 176.149414062 c 0
 32.919921875 188.616210938 42.5537109375 198.25 56.1533203125 205.049804688 c 0
 63.5205078125 207.8828125 69.328125 209.866210938 73.578125 210.999023438 c 0
 77.828125 212.131835938 81.228515625 212.69921875 83.7783203125 212.69921875 c 0
 86.328125 212.69921875 88.736328125 212.416015625 91.0029296875 211.848632812 c 0
 97.8037109375 211.282226562 103.186523438 208.165039062 107.153320312 202.498046875 c 0
 110.553710938 197.96484375 114.236328125 191.731445312 118.203125 183.798828125 c 0
 133.502929688 147.532226562 161.127929688 129.3984375 201.078125 129.3984375 c 0
 241.028320312 129.3984375 276.020507812 144.131835938 306.053710938 173.598632812 c 0
 337.220703125 204.19921875 359.037109375 245.565429688 371.50390625 297.69921875 c 0
 374.497070312 310.590820312 375.993164062 322.359375 375.993164062 333.006835938 c 0
 375.993164062 348.567382812 372.796875 361.731445312 366.404296875 372.498046875 c 0
 356.204101562 390.064453125 336.654296875 398.84765625 307.75390625 398.84765625 c 0
 294.154296875 398.84765625 279.420898438 397.1484375 263.553710938 393.748046875 c 0
 255.62109375 392.047851562 244.288085938 388.081054688 229.5546875 381.84765625 c 0
 226.155273438 380.71484375 221.48046875 378.0234375 215.530273438 373.7734375 c 0
 209.580078125 369.5234375 205.471679688 366.547851562 203.205078125 364.84765625 c 0
 192.438476562 356.915039062 183.655273438 350.115234375 176.85546875 344.448242188 c 0
 162.122070312 333.680664062 146.822265625 327.448242188 130.955078125 325.748046875 c 2
 125.004882812 325.748046875 l 2
 117.637695312 325.748046875 110.5546875 327.448242188 103.754882812 330.84765625 c 0
 93.5546875 335.948242188 87.8876953125 346.71484375 86.7548828125 363.1484375 c 0
 86.4716796875 366.689453125 86.330078125 370.443359375 86.330078125 374.41015625 c 0
 86.330078125 386.310546875 87.6044921875 400.123046875 90.1552734375 415.848632812 c 0
 91.85546875 424.916015625 93.837890625 433.982421875 96.10546875 443.049804688 c 0
 100.637695312 462.8828125 108.571289062 491.5 119.904296875 528.899414062 c 0xd0
EndSplineSet
Validated: 524289
EndChar

StartChar: six
Encoding: 54 54 29
Width: 548
VWidth: 903
GlyphClass: 2
Flags: HMW
HStem: 34.9221 91.8<199.209 239.726> 376.622 96.9009<295.825 368.359>
LayerCount: 2
Fore
SplineSet
490.475585938 360.474609375 m 0
 490.775390625 355.775390625 490.92578125 350.944335938 490.92578125 345.98046875 c 0
 490.92578125 322.810546875 487.658203125 296.756835938 481.125 267.823242188 c 0
 473.7578125 235.522460938 461.575195312 205.206054688 444.575195312 176.873046875 c 0
 410.575195312 118.505859375 365.2421875 77.138671875 308.575195312 52.7724609375 c 0
 278.541992188 40.8720703125 248.224609375 34.921875 217.625 34.921875 c 0
 180.791992188 34.921875 149.909179688 41.7216796875 124.975585938 55.322265625 c 0
 101.17578125 68.921875 84.17578125 88.6142578125 73.9755859375 114.397460938 c 0
 64.0517578125 139.484375 59.08984375 168.326171875 59.08984375 200.924804688 c 0
 59.08984375 227.600585938 62.00390625 265.220703125 73.1259765625 314.572265625 c 0
 85.025390625 365.572265625 100.04296875 411.046875 118.17578125 450.997070312 c 0
 136.30859375 490.947265625 156.42578125 524.379882812 178.525390625 551.296875 c 0
 200.625976562 578.213867188 225.55859375 601.022460938 253.326171875 619.721679688 c 0
 282.79296875 638.421875 312.967773438 652.447265625 343.850585938 661.796875 c 0
 374.734375 671.147460938 408.025390625 677.239257812 443.725585938 680.072265625 c 2
 452.225585938 680.072265625 l 2
 464.125976562 680.072265625 474.04296875 677.8046875 481.975585938 673.272460938 c 0
 491.717773438 667.6328125 496.588867188 658.977539062 496.588867188 647.306640625 c 0
 496.588867188 645.015625 496.588867188 642.145507812 495.577148438 640.123046875 c 0
 493.876953125 631.623046875 487.926757812 622.83984375 477.7265625 613.772460938 c 0
 466.959960938 604.706054688 455.91015625 598.755859375 444.577148438 595.922851562 c 0
 437.776367188 594.22265625 427.434570312 591.956054688 413.551757812 589.123046875 c 0
 399.668945312 586.290039062 388.051757812 583.740234375 378.702148438 581.47265625 c 0
 369.3515625 579.206054688 358.16015625 575.805664062 345.126953125 571.272460938 c 0
 320.193359375 562.206054688 292.993164062 544.922851562 263.526367188 519.422851562 c 0
 248.793945312 505.823242188 233.2109375 487.40625 216.77734375 464.172851562 c 0
 209.41015625 452.272460938 202.893554688 441.22265625 197.2265625 431.022460938 c 1
 213.66015625 441.790039062 231.79296875 450.290039062 251.625976562 456.522460938 c 0
 283.92578125 467.856445312 318.208984375 473.522460938 354.475585938 473.522460938 c 0
 382.243164062 473.522460938 406.326171875 469.555664062 426.725585938 461.623046875 c 0
 445.42578125 453.689453125 460.30078125 441.506835938 471.350585938 425.07421875 c 0
 482.400390625 408.640625 488.775390625 387.107421875 490.475585938 360.474609375 c 0
201.474609375 134.372070312 m 0
 212.2421875 129.272460938 224.42578125 126.721679688 238.025390625 126.721679688 c 2
 239.725585938 126.721679688 l 1
 240.576171875 126.721679688 l 2
 259.275390625 126.721679688 278.826171875 133.239257812 299.225585938 146.272460938 c 0
 319.625976562 159.3046875 337.333984375 176.022460938 352.350585938 196.421875 c 0
 367.368164062 216.822265625 377.142578125 237.221679688 381.67578125 257.622070312 c 0
 386.712890625 279.029296875 389.231445312 297.301757812 389.231445312 312.44140625 c 0
 389.231445312 331.365234375 385.295898438 345.392578125 377.424804688 354.522460938 c 0
 370.625 363.022460938 361.983398438 368.830078125 351.5 371.947265625 c 0
 341.016601562 375.064453125 326.9921875 376.622070312 309.424804688 376.622070312 c 0
 282.224609375 376.622070312 255.591796875 370.10546875 229.525390625 357.072265625 c 0
 203.458007812 344.0390625 181.075195312 327.888671875 162.375 308.622070312 c 1
 157.275390625 287.088867188 153.591796875 269.239257812 151.325195312 255.072265625 c 0
 150.3046875 247.932617188 149.794921875 240.84375 149.794921875 233.805664062 c 0
 149.794921875 217.383789062 152.572265625 201.239257812 158.125 185.372070312 c 0
 162.091796875 173.471679688 167.6171875 163.272460938 174.700195312 154.772460938 c 0
 181.783203125 146.272460938 190.708007812 139.471679688 201.474609375 134.372070312 c 0
EndSplineSet
Validated: 524289
EndChar

StartChar: seven
Encoding: 55 55 30
Width: 548
VWidth: 901
GlyphClass: 2
Flags: HMW
HStem: 32.2761 17.85G<53.8927 60.1257> 562.675 96.0517<280.275 327.592 280.275 405.509>
LayerCount: 2
Fore
SplineSet
257.609375 562.674804688 m 0
 205.4765625 561.541992188 171.4765625 558.995117188 155.610351562 555.028320312 c 0
 152.209960938 554.461914062 148.52734375 554.036132812 144.559570312 553.75390625 c 0
 140.592773438 553.470703125 136.625976562 554.178710938 132.659179688 555.87890625 c 0
 126.42578125 558.711914062 122.17578125 562.961914062 119.909179688 568.62890625 c 0
 116.612304688 576.046875 114.963867188 584.21484375 114.963867188 593.131835938 c 0
 114.963867188 596.475585938 115.1953125 599.923828125 115.659179688 603.478515625 c 1
 114.526367188 597.811523438 114.526367188 598.094726562 115.659179688 604.328125 c 0
 118.4921875 616.227539062 123.875 626.14453125 131.80859375 634.078125 c 0
 140.30859375 642.010742188 152.491210938 647.393554688 168.358398438 650.2265625 c 0
 198.391601562 655.893554688 246.841796875 658.7265625 313.708007812 658.7265625 c 0
 341.475585938 658.7265625 378.875 657.59375 425.908203125 655.327148438 c 0
 470.67578125 653.626953125 493.908203125 652.77734375 495.608398438 652.77734375 c 0
 502.408203125 652.77734375 508.92578125 651.21875 515.158203125 648.1015625 c 0
 521.391601562 644.985351562 526.491210938 640.02734375 530.458007812 633.2265625 c 0
 533.248046875 628.693359375 534.642578125 623.301757812 534.642578125 617.051757812 c 0
 534.642578125 613.145507812 534.09765625 608.903320312 533.008789062 604.327148438 c 0
 530.741210938 594.126953125 525.358398438 582.793945312 516.858398438 570.327148438 c 0
 504.958007812 553.327148438 485.55078125 528.251953125 458.633789062 495.1015625 c 0
 431.716796875 461.952148438 403.524414062 428.09375 374.057617188 393.52734375 c 0
 343.458007812 358.959960938 305.208007812 312.91796875 259.307617188 255.401367188 c 0
 213.407226562 197.883789062 168.924804688 139.091796875 125.857421875 79.025390625 c 0
 114.524414062 62.591796875 101.491210938 50.4091796875 86.7587890625 42.4755859375 c 0
 75.42578125 35.67578125 64.9423828125 32.2763671875 55.3095703125 32.2763671875 c 0
 52.4765625 32.2763671875 49.6435546875 32.5595703125 46.8095703125 33.1259765625 c 0
 33.2099609375 36.5263671875 24.9931640625 45.0263671875 22.16015625 58.6259765625 c 0
 21.02734375 64.859375 21.3095703125 71.517578125 23.009765625 78.6005859375 c 0
 24.7099609375 85.68359375 28.1103515625 93.4755859375 33.2099609375 101.975585938 c 0
 73.443359375 158.642578125 116.2265625 215.025390625 161.559570312 271.125 c 0
 208.026367188 327.225585938 246.133789062 371.850585938 275.883789062 405 c 0
 305.633789062 438.150390625 331.984375 468.466796875 354.934570312 495.950195312 c 0
 377.883789062 523.43359375 394.7421875 545.674804688 405.508789062 562.674804688 c 1
 383.125976562 563.2421875 359.609375 563.525390625 334.958984375 563.525390625 c 0
 310.30859375 563.525390625 284.525390625 563.2421875 257.609375 562.674804688 c 0
EndSplineSet
Validated: 524289
EndChar

StartChar: eight
Encoding: 56 56 31
Width: 548
VWidth: 901
GlyphClass: 2
Flags: HMW
HStem: 27.9463 93.5017<225.001 225.284> 580.446 81.6025<327.001 369.216 339.185 369.216>
VStem: 385.086 95.1983
LayerCount: 2
Fore
SplineSet
484.529296875 260.849609375 m 0
 483.962890625 250.649414062 482.55078125 239.87890625 480.284179688 228.545898438 c 0
 476.317382812 209.846679688 469.659179688 191.4296875 460.30859375 173.295898438 c 0
 450.958984375 155.163085938 438.633789062 137.170898438 423.333984375 119.321289062 c 0
 408.034179688 101.471679688 391.034179688 86.029296875 372.333984375 72.99609375 c 0
 353.067382812 59.962890625 328.984375 49.1962890625 300.083984375 40.6962890625 c 0
 271.18359375 32.1962890625 241.008789062 27.9462890625 209.55859375 27.9462890625 c 0
 178.109375 27.9462890625 151.05078125 31.9130859375 128.383789062 39.8466796875 c 0
 106.284179688 47.779296875 89.42578125 58.12109375 77.80859375 70.87109375 c 0
 66.1923828125 83.62109375 57.5498046875 98.638671875 51.8828125 115.920898438 c 0
 46.4853515625 132.381835938 43.787109375 148.971679688 43.787109375 165.690429688 c 0
 43.787109375 180.15625 45.5078125 199.971679688 51.03125 223.447265625 c 0
 55.564453125 242.713867188 65.197265625 263.5390625 79.9306640625 285.921875 c 0
 94.6640625 308.305664062 113.081054688 329.129882812 135.180664062 348.397460938 c 0
 151.047851562 361.997070312 167.48046875 372.763671875 184.48046875 380.697265625 c 1
 166.34765625 393.1640625 153.030273438 408.747070312 144.530273438 427.447265625 c 0
 136.975585938 443.313476562 133.198242188 459.431640625 133.198242188 475.801757812 c 0
 133.198242188 483.987304688 134.142578125 492.235351562 136.03125 500.546875 c 0
 137.731445312 507.9140625 140.139648438 515.564453125 143.256835938 523.497070312 c 0
 146.373046875 531.430664062 150.765625 540.780273438 156.432617188 551.546875 c 0
 162.099609375 562.314453125 168.616210938 572.65625 175.983398438 582.573242188 c 0
 183.349609375 592.490234375 192.841796875 602.407226562 204.458984375 612.32421875 c 0
 216.076171875 622.241210938 228.68359375 630.598632812 242.284179688 637.3984375 c 0
 257.016601562 644.765625 274.299804688 650.715820312 294.1328125 655.249023438 c 0
 313.965820312 659.782226562 335.215820312 662.048828125 357.8828125 662.048828125 c 0
 380.549804688 662.048828125 400.950195312 659.782226562 419.083007812 655.249023438 c 0
 437.215820312 650.715820312 451.94921875 644.765625 463.282226562 637.3984375 c 0
 474.615234375 630.032226562 483.823242188 621.532226562 490.90625 611.8984375 c 0
 497.989257812 602.265625 502.947265625 592.491210938 505.780273438 582.57421875 c 0
 508.61328125 572.657226562 510.456054688 562.173828125 511.305664062 551.124023438 c 0
 511.73046875 545.598632812 511.943359375 540.427734375 511.943359375 535.611328125 c 0
 511.943359375 530.794921875 511.73046875 526.33203125 511.305664062 522.223632812 c 0
 510.456054688 514.006835938 509.0390625 505.931640625 507.055664062 497.999023438 c 0
 505.072265625 490.065429688 502.380859375 482.557617188 498.98046875 475.474609375 c 0
 495.581054688 468.391601562 491.897460938 462.016601562 487.930664062 456.349609375 c 0
 483.963867188 450.682617188 479.005859375 444.875 473.055664062 438.924804688 c 0
 467.10546875 432.974609375 461.72265625 428.016601562 456.905273438 424.049804688 c 0
 452.088867188 420.083007812 445.997070312 415.549804688 438.629882812 410.44921875 c 0
 431.262695312 405.349609375 425.3125 401.666992188 420.779296875 399.399414062 c 0
 416.247070312 397.1328125 410.86328125 393.732421875 404.630859375 389.19921875 c 1
 417.6640625 382.399414062 428.713867188 374.75 437.780273438 366.25 c 0
 450.247070312 354.349609375 459.880859375 342.875 466.680664062 331.82421875 c 0
 473.48046875 320.774414062 478.297851562 308.732421875 481.130859375 295.69921875 c 0
 483.491210938 284.83984375 484.671875 274.962890625 484.671875 266.0703125 c 0
 484.671875 264.291015625 484.624023438 262.55078125 484.529296875 260.849609375 c 0
270.334960938 554.946289062 m 0
 248.801757812 537.946289062 235.76953125 519.24609375 231.236328125 498.846679688 c 0
 230.48046875 495.446289062 230.103515625 492.116210938 230.103515625 488.856445312 c 0
 230.103515625 477.446289062 234.73046875 466.892578125 243.986328125 457.196289062 c 0
 257.01953125 444.163085938 280.536132812 430.563476562 314.536132812 416.396484375 c 1
 337.76953125 425.462890625 359.302734375 437.36328125 379.135742188 452.096679688 c 0
 398.96875 466.829101562 410.301757812 479.579101562 413.134765625 490.346679688 c 0
 414.451171875 495.610351562 415.108398438 500.896484375 415.108398438 506.203125 c 0
 415.108398438 514.606445312 413.458984375 523.0625 410.16015625 531.571289062 c 0
 404.776367188 545.454101562 395.8515625 557.071289062 383.384765625 566.420898438 c 0
 370.91796875 575.771484375 356.467773438 580.446289062 340.03515625 580.446289062 c 2
 339.184570312 580.446289062 l 2
 314.817382812 580.446289062 291.868164062 571.946289062 270.334960938 554.946289062 c 0
179.385742188 134.196289062 m 0
 195.818359375 125.696289062 214.517578125 121.448242188 235.484375 121.448242188 c 0
 250.217773438 121.448242188 265.66015625 123.71484375 281.809570312 128.248046875 c 0
 297.959960938 132.78125 313.118164062 139.297851562 327.28515625 147.797851562 c 0
 341.452148438 156.297851562 353.918945312 167.064453125 364.685546875 180.09765625 c 0
 374.885742188 193.130859375 381.685546875 207.297851562 385.0859375 222.59765625 c 0
 386.78515625 231.09765625 388.202148438 239.03125 389.3359375 246.3984375 c 0
 389.3359375 253.764648438 388.060546875 262.264648438 385.510742188 271.8984375 c 0
 382.9609375 281.53125 378.427734375 290.59765625 371.91015625 299.09765625 c 0
 365.393554688 307.59765625 355.618164062 316.380859375 342.5859375 325.448242188 c 0
 329.552734375 334.514648438 313.685546875 343.014648438 294.985351562 350.948242188 c 1
 254.752929688 340.180664062 219.90234375 322.614257812 190.435546875 298.247070312 c 0
 161.53515625 273.879882812 143.96875 247.813476562 137.735351562 220.045898438 c 0
 136.086914062 213.24609375 135.262695312 206.670898438 135.262695312 200.321289062 c 0
 135.262695312 189.208007812 137.787109375 178.783203125 142.8359375 169.045898438 c 0
 151.3359375 153.74609375 163.518554688 142.12890625 179.385742188 134.196289062 c 0
EndSplineSet
Validated: 524289
EndChar

StartChar: nine
Encoding: 57 57 32
Width: 548
VWidth: 903
GlyphClass: 2
Flags: HMW
HStem: 34.1526 66.725 243.251 96.0525<210.026 279.722> 589.204 92.6458<315.99 384.844 325.623 384.844>
LayerCount: 2
Fore
SplineSet
101.227539062 35 m 0
 98.39453125 35 95.8408203125 34.7197265625 93.57421875 34.15234375 c 0
 81.673828125 34.15234375 72.041015625 36.703125 64.673828125 41.802734375 c 0
 55.375 47.185546875 50.7265625 55.31640625 50.7265625 66.1943359375 c 0
 50.7265625 67.912109375 50.841796875 69.6982421875 51.07421875 71.552734375 c 2
 51.07421875 74.1025390625 l 2
 52.7744140625 83.169921875 58.7236328125 92.0947265625 68.923828125 100.877929688 c 0
 79.1240234375 109.661132812 89.890625 115.752929688 101.223632812 119.15234375 c 0
 108.024414062 120.852539062 118.932617188 123.119140625 133.94921875 125.953125 c 0
 148.965820312 128.786132812 162.283203125 131.619140625 173.900390625 134.452148438 c 0
 185.516601562 137.28515625 198.409179688 140.967773438 212.576171875 145.500976562 c 0
 243.17578125 155.701171875 271.508789062 171.850585938 297.576171875 193.951171875 c 0
 314.576171875 209.250976562 331.008789062 226.818359375 346.875976562 246.651367188 c 0
 353.108398438 254.583984375 358.4921875 262.234375 363.025390625 269.600585938 c 1
 349.9921875 262.80078125 336.108398438 257.41796875 321.375976562 253.451171875 c 0
 294.17578125 246.651367188 261.592773438 243.250976562 223.625976562 243.250976562 c 0
 196.42578125 243.250976562 172.05859375 249.484375 150.525390625 261.951171875 c 0
 130.125976562 273.850585938 114.54296875 289.576171875 103.775390625 309.125976562 c 0
 93.0087890625 328.67578125 85.92578125 351.342773438 82.525390625 377.125976562 c 0
 81.326171875 386.225585938 80.7255859375 395.377929688 80.7255859375 404.583984375 c 0
 80.7255859375 421.4609375 82.7421875 438.516601562 86.775390625 455.75 c 0
 94.142578125 488.049804688 106.184570312 518.225585938 122.901367188 546.275390625 c 0
 139.618164062 574.325195312 159.168945312 598.267578125 181.551757812 618.100585938 c 0
 203.934570312 637.93359375 229.576171875 653.516601562 258.4765625 664.849609375 c 0
 287.943359375 676.182617188 317.693359375 681.849609375 347.7265625 681.849609375 c 0
 421.959960938 681.849609375 469.842773438 654.932617188 491.375976562 601.099609375 c 0
 500.884765625 576.647460938 505.639648438 547.310546875 505.639648438 513.088867188 c 0
 505.639648438 475.93359375 500.03515625 433.020507812 488.826171875 384.349609375 c 0
 477.493164062 335.616210938 462.334960938 292.408203125 443.3515625 254.725585938 c 0
 424.368164062 217.041992188 403.118164062 185.450195312 379.6015625 159.950195312 c 0
 356.084960938 134.450195312 329.026367188 112.6328125 298.426757812 94.5 c 0
 267.259765625 76.3671875 235.384765625 62.625 202.801757812 53.275390625 c 0
 170.21875 43.9248046875 136.360351562 37.8330078125 101.227539062 35 c 0
215.124023438 525.453125 m 0
 200.390625 506.185546875 190.755859375 486.354492188 186.22265625 465.954101562 c 0
 182.228515625 448.567382812 180.23046875 432.969726562 180.23046875 419.163085938 c 0
 180.23046875 366.373046875 209.427734375 339.752929688 267.822265625 339.303710938 c 0
 291.622070312 339.303710938 315.705078125 344.403320312 340.072265625 354.603515625 c 0
 364.439453125 364.803710938 384.83984375 377.836914062 401.272460938 393.703125 c 0
 401.83984375 395.970703125 402.40625 398.520507812 402.973632812 401.353515625 c 0
 406.373046875 416.086914062 410.33984375 436.203125 414.873046875 461.703125 c 0
 415.893554688 468.84375 416.403320312 475.931640625 416.403320312 482.969726562 c 0
 416.403320312 499.391601562 413.626953125 515.536132812 408.073242188 531.403320312 c 0
 404.106445312 543.303710938 398.581054688 553.50390625 391.498046875 562.00390625 c 0
 384.415039062 570.50390625 375.348632812 577.161132812 364.297851562 581.978515625 c 0
 353.248046875 586.795898438 340.922851562 589.203125 327.323242188 589.203125 c 2
 325.623046875 589.203125 l 2
 306.356445312 589.203125 286.806640625 583.395507812 266.973632812 571.778320312 c 0
 247.140625 560.161132812 229.857421875 544.719726562 215.124023438 525.453125 c 0
EndSplineSet
Validated: 524289
EndChar

StartChar: colon
Encoding: 58 58 33
Width: 548
VWidth: 887
GlyphClass: 2
Flags: HMW
HStem: 60.5251 153.001<227.27 272.606> 288.325 152.151<286.491 321.624 286.491 321.624>
VStem: 186.188 183.602
LayerCount: 2
Fore
SplineSet
367.239257812 380.974609375 m 0
 363.272460938 364.541992188 357.040039062 347.54296875 348.540039062 329.975585938 c 0
 342.306640625 315.80859375 332.673828125 305.041992188 319.640625 297.674804688 c 0
 308.307617188 291.442382812 298.108398438 288.325195312 289.041015625 288.325195312 c 2
 286.491210938 288.325195312 l 2
 271.19140625 288.891601562 259.291015625 292.291992188 250.791015625 298.525390625 c 0
 241.346679688 305.608398438 236.625 315.642578125 236.625 328.627929688 c 0
 236.625 331.225585938 236.814453125 333.94140625 237.19140625 336.775390625 c 0
 238.325195312 346.974609375 240.166992188 357.317382812 242.716796875 367.799804688 c 0
 245.266601562 378.283203125 247.81640625 388.05859375 250.3671875 397.125 c 0
 252.916992188 406.192382812 257.450195312 413.984375 263.966796875 420.500976562 c 0
 270.483398438 427.017578125 277.56640625 431.692382812 285.216796875 434.526367188 c 0
 292.8671875 437.359375 299.383789062 439.05859375 304.766601562 439.625976562 c 0
 310.149414062 440.192382812 314.2578125 440.475585938 317.090820312 440.475585938 c 0
 326.158203125 440.475585938 333.3828125 439.909179688 338.765625 438.776367188 c 0
 344.149414062 437.642578125 349.532226562 435.375976562 354.915039062 431.975585938 c 0
 360.297851562 428.576171875 364.40625 423.475585938 367.239257812 416.67578125 c 0
 370.072265625 409.875976562 370.922851562 401.942382812 369.7890625 392.875976562 c 0
 368.65625 388.909179688 367.806640625 384.942382812 367.239257812 380.974609375 c 0
314.540039062 143.826171875 m 0
 311.70703125 130.225585938 306.602539062 116.05859375 299.236328125 101.326171875 c 0
 292.435546875 87.1591796875 281.953125 76.67578125 267.786132812 69.8759765625 c 0
 255.885742188 64.208984375 244.552734375 61.091796875 233.786132812 60.525390625 c 0
 220.752929688 60.525390625 208.995117188 64.775390625 198.51171875 73.275390625 c 0
 189.892578125 80.263671875 185.583007812 89.55078125 185.583007812 101.13671875 c 0
 185.583007812 103.641601562 185.784179688 106.254882812 186.1875 108.974609375 c 0
 189.020507812 124.841796875 190.720703125 133.909179688 191.288085938 136.17578125 c 0
 191.854492188 138.442382812 193.271484375 143.54296875 195.538085938 151.475585938 c 0
 197.805664062 159.409179688 199.505859375 165.641601562 200.638671875 170.174804688 c 0
 202.905273438 179.2421875 207.297851562 187.034179688 213.814453125 193.55078125 c 0
 220.331054688 200.067382812 227.556640625 204.743164062 235.489257812 207.576171875 c 0
 247.389648438 211.54296875 258.15625 213.526367188 267.7890625 213.526367188 c 0
 277.422851562 213.526367188 285.639648438 212.250976562 292.439453125 209.701171875 c 0
 299.239257812 207.151367188 305.47265625 202.192382812 311.139648438 194.826171875 c 0
 315.862304688 188.686523438 318.223632812 181.169921875 318.223632812 172.275390625 c 0
 318.223632812 170.498046875 318.12890625 168.6640625 317.940429688 166.776367188 c 0
 317.373046875 159.409179688 316.240234375 151.758789062 314.540039062 143.826171875 c 0
EndSplineSet
Validated: 524289
EndChar

StartChar: semicolon
Encoding: 59 59 34
Width: 548
VWidth: 864
GlyphClass: 2
Flags: HMW
HStem: 229.67 153.001<331.854 369.538>
VStem: 283.971 132.598
LayerCount: 2
Fore
SplineSet
414.01953125 323.168945312 m 0
 410.052734375 306.735351562 403.8203125 289.453125 395.3203125 271.3203125 c 0
 389.086914062 257.153320312 379.454101562 246.38671875 366.420898438 239.01953125 c 0
 355.087890625 232.787109375 344.887695312 229.669921875 335.821289062 229.669921875 c 0
 327.887695312 229.669921875 319.813476562 231.370117188 311.595703125 234.76953125 c 0
 303.37890625 238.169921875 296.720703125 243.26953125 291.62109375 250.069335938 c 0
 286.346679688 256.782226562 283.709960938 264.509765625 283.709960938 273.251953125 c 0
 283.709960938 274.840820312 283.796875 276.463867188 283.970703125 278.120117188 c 2
 283.970703125 278.969726562 l 2
 285.104492188 289.169921875 287.086914062 299.370117188 289.919921875 309.569335938 c 0
 292.752929688 319.76953125 295.303710938 329.40234375 297.5703125 338.469726562 c 0
 299.836914062 347.537109375 304.229492188 355.469726562 310.74609375 362.26953125 c 0
 317.262695312 369.069335938 324.205078125 373.602539062 331.572265625 375.870117188 c 0
 344.0390625 379.836914062 355.372070312 382.103515625 365.572265625 382.670898438 c 0
 373.504882812 382.670898438 380.163085938 381.962890625 385.545898438 380.545898438 c 0
 390.928710938 379.12890625 396.3125 376.861328125 401.6953125 373.745117188 c 0
 407.078125 370.627929688 411.186523438 365.669921875 414.01953125 358.870117188 c 0
 416.852539062 351.502929688 417.702148438 343.286132812 416.569335938 334.21875 c 0
 415.436523438 330.819335938 414.5859375 327.135742188 414.01953125 323.168945312 c 0
342.620117188 81.76953125 m 0
 342.620117188 80.0693359375 342.055664062 78.369140625 340.922851562 76.6689453125 c 0
 335.255859375 57.96875 300.97265625 -16.5478515625 238.073242188 -146.880859375 c 0
 231.272460938 -161.047851562 222.206054688 -171.815429688 210.873046875 -179.181640625 c 0
 201.5234375 -184.895507812 192.411132812 -187.751953125 183.538085938 -187.751953125 c 0
 182.731445312 -187.751953125 181.92578125 -187.728515625 181.123046875 -187.680664062 c 0
 167.522460938 -187.680664062 156.47265625 -183.430664062 147.97265625 -174.930664062 c 0
 142.126953125 -169.0859375 139.204101562 -161.701171875 139.204101562 -152.779296875 c 0
 139.204101562 -149.592773438 139.577148438 -146.209960938 140.323242188 -142.630859375 c 0
 142.58984375 -131.297851562 155.623046875 -97.5810546875 179.422851562 -41.4814453125 c 0
 203.22265625 14.619140625 221.35546875 56.5517578125 233.823242188 84.3193359375 c 0
 238.35546875 93.9521484375 243.313476562 102.02734375 248.697265625 108.543945312 c 0
 254.080078125 115.060546875 259.887695312 119.453125 266.12109375 121.719726562 c 0
 274.053710938 124.552734375 281.420898438 126.252929688 288.220703125 126.819335938 c 0
 290.48828125 126.819335938 293.038085938 126.537109375 295.87109375 125.969726562 c 0
 307.204101562 125.969726562 317.970703125 123.13671875 328.170898438 117.469726562 c 0
 334.404296875 114.069335938 338.9375 108.969726562 341.770507812 102.169921875 c 0
 344.037109375 95.9365234375 344.3203125 89.13671875 342.620117188 81.76953125 c 0
EndSplineSet
Validated: 524289
EndChar

StartChar: less
Encoding: 60 60 35
Width: 548
VWidth: 902
GlyphClass: 2
Flags: HMW
HStem: 32.1751 17.85G<326.442 330.692 330.692 338.342>
LayerCount: 2
Fore
SplineSet
330.692382812 32.1748046875 m 2
 322.192382812 32.1748046875 313.125976562 33.8759765625 303.493164062 37.2763671875 c 0
 290.459960938 41.80859375 275.7265625 52.0087890625 259.293945312 67.8759765625 c 0
 242.860351562 83.7431640625 225.860351562 102.584960938 208.293945312 124.401367188 c 0
 190.7265625 146.21875 173.443359375 168.036132812 156.443359375 189.852539062 c 0
 139.443359375 211.669921875 121.451171875 234.194335938 102.46875 257.427734375 c 0
 83.4853515625 280.661132812 66.91015625 299.078125 52.7431640625 312.677734375 c 0
 45.943359375 319.477539062 42.5439453125 328.828125 42.5439453125 340.727539062 c 0
 42.5439453125 345.828125 43.251953125 351.352539062 44.6689453125 357.302734375 c 0
 46.0859375 363.252929688 48.2109375 369.344726562 51.0439453125 375.578125 c 0
 56.7109375 387.477539062 64.6435546875 395.977539062 74.84375 401.078125 c 0
 109.9765625 424.877929688 151.768554688 454.76953125 200.21875 490.752929688 c 0
 248.668945312 526.735351562 293.151367188 559.318359375 333.668945312 588.501953125 c 0
 374.185546875 617.684570312 409.743164062 640.776367188 440.34375 657.776367188 c 0
 452.810546875 665.143554688 464.143554688 668.827148438 474.34375 668.827148438 c 0
 482.276367188 668.827148438 488.793945312 666.84375 493.893554688 662.876953125 c 0
 504.09375 655.509765625 510.326171875 645.592773438 512.59375 633.125976562 c 0
 513.7265625 627.458984375 513.584960938 621.225585938 512.16796875 614.42578125 c 0
 510.750976562 607.625976562 506.92578125 600.54296875 500.692382812 593.17578125 c 0
 491.625976562 581.842773438 476.04296875 569.092773438 453.942382812 554.92578125 c 0
 419.375976562 532.826171875 369.225585938 498.68359375 303.493164062 452.500976562 c 0
 237.759765625 406.318359375 192.993164062 375.009765625 169.192382812 358.577148438 c 1
 183.359375 343.276367188 199.651367188 324.293945312 218.068359375 301.626953125 c 0
 236.485351562 278.959960938 252.918945312 257.993164062 267.368164062 238.725585938 c 0
 281.818359375 219.458984375 297.685546875 199.767578125 314.96875 179.650390625 c 0
 332.251953125 159.533203125 348.259765625 143.3828125 362.993164062 131.200195312 c 0
 377.725585938 119.017578125 387.076171875 107.825195312 391.04296875 97.625 c 0
 393.875976562 90.8251953125 394.159179688 83.4580078125 391.891601562 75.525390625 c 0
 390.758789062 69.8583984375 388.4921875 64.4755859375 385.091796875 59.375 c 0
 374.325195312 44.0751953125 358.7421875 35.0078125 338.341796875 32.1748046875 c 2
 330.692382812 32.1748046875 l 2
EndSplineSet
Validated: 524289
EndChar

StartChar: equal
Encoding: 61 61 36
Width: 548
VWidth: 908
GlyphClass: 2
Flags: HMW
HStem: 257.95 90.95<127.818 155.868> 427.95 90.1
LayerCount: 2
Fore
SplineSet
425.8828125 518.049804688 m 0
 441.182617188 518.049804688 451.100585938 514.08203125 455.633789062 506.149414062 c 0
 458.655273438 500.860351562 460.166992188 494.690429688 460.166992188 487.639648438 c 0
 460.166992188 484.11328125 459.7890625 480.366210938 459.033203125 476.399414062 c 2
 459.033203125 475.548828125 l 2
 457.900390625 469.31640625 456.200195312 463.649414062 453.932617188 458.548828125 c 0
 451.666015625 453.44921875 448.266601562 448.20703125 443.733398438 442.82421875 c 0
 439.200195312 437.44140625 433.25 433.333007812 425.8828125 430.5 c 0
 420.783203125 428.799804688 415.682617188 427.950195312 410.583007812 427.950195312 c 2
 403.783203125 427.950195312 l 2
 385.083007812 428.516601562 365.533203125 428.799804688 345.1328125 428.799804688 c 2
 257.583007812 426.25 l 2
 220.75 425.1171875 193.549804688 424.549804688 175.983398438 424.549804688 c 0
 160.682617188 424.549804688 149.349609375 428.799804688 141.983398438 437.299804688 c 0
 136.662109375 443.439453125 134.001953125 450.760742188 134.001953125 459.264648438 c 0
 134.001953125 462.53515625 134.395507812 465.98046875 135.182617188 469.599609375 c 2
 135.182617188 472.150390625 l 2
 138.015625 484.049804688 144.390625 494.674804688 154.307617188 504.025390625 c 0
 164.224609375 513.375 176.548828125 518.049804688 191.282226562 518.049804688 c 2
 194.682617188 518.049804688 l 2
 225.622070312 517.030273438 259.62109375 516.520507812 296.680664062 516.520507812 c 0
 321.387695312 516.520507812 347.455078125 516.747070312 374.8828125 517.200195312 c 0
 403.215820312 517.766601562 420.215820312 518.049804688 425.8828125 518.049804688 c 0
371.484375 261.349609375 m 2
 365.53515625 261.349609375 l 2
 353.634765625 261.916992188 342.301757812 262.200195312 331.53515625 262.200195312 c 0
 309.434570312 262.200195312 275.434570312 261.4921875 229.53515625 260.075195312 c 0
 183.634765625 258.658203125 152.467773438 257.950195312 136.03515625 257.950195312 c 0
 119.6015625 257.950195312 108.268554688 262.483398438 102.03515625 271.549804688 c 0
 97.75 277.783203125 95.607421875 284.955078125 95.607421875 293.0625 c 0
 95.607421875 296.748046875 96.0498046875 300.626953125 96.935546875 304.700195312 c 2
 96.935546875 306.400390625 l 2
 99.7685546875 318.299804688 106.426757812 328.358398438 116.91015625 336.575195312 c 0
 127.392578125 344.791992188 140.28515625 348.900390625 155.584960938 348.900390625 c 0
 156.151367188 348.900390625 160.684570312 348.6171875 169.184570312 348.049804688 c 0
 180.334960938 347.861328125 192.712890625 347.766601562 206.321289062 347.766601562 c 0
 233.516601562 347.766601562 265.62109375 348.143554688 302.633789062 348.899414062 c 2
 386.784179688 351.44921875 l 2
 402.083984375 351.44921875 412.141601562 347.482421875 416.958984375 339.548828125 c 0
 420.234375 334.155273438 421.872070312 327.842773438 421.872070312 320.614257812 c 0
 421.872070312 317.212890625 421.509765625 313.607421875 420.784179688 309.798828125 c 2
 420.784179688 308.94921875 l 2
 419.650390625 302.715820312 417.80859375 297.19140625 415.258789062 292.374023438 c 0
 412.708984375 287.557617188 409.451171875 282.599609375 405.484375 277.499023438 c 0
 400.951171875 271.83203125 395.000976562 267.298828125 387.633789062 263.899414062 c 0
 382.534179688 262.19921875 377.150390625 261.349609375 371.484375 261.349609375 c 2
EndSplineSet
Validated: 524289
EndChar

StartChar: greater
Encoding: 62 62 37
Width: 548
VWidth: 903
GlyphClass: 2
Flags: HMW
HStem: 38.1749 17.85G<77.1247 86.1917>
LayerCount: 2
Fore
SplineSet
80.80859375 38.1748046875 m 0
 73.44140625 38.1748046875 67.2060546875 40.15625 62.10546875 44.123046875 c 0
 57.005859375 48.08984375 52.8974609375 52.623046875 49.7802734375 57.7236328125 c 0
 46.6640625 62.8232421875 44.5390625 68.2060546875 43.4052734375 73.873046875 c 0
 42.2724609375 79.5400390625 42.4150390625 85.7734375 43.83203125 92.5732421875 c 0
 45.248046875 99.373046875 48.7900390625 106.456054688 54.45703125 113.823242188 c 0
 63.5244140625 125.15625 79.3916015625 137.90625 102.05859375 152.073242188 c 0
 136.625 174.172851562 186.775390625 208.315429688 252.5078125 254.498046875 c 0
 318.241210938 300.681640625 362.724609375 331.989257812 385.95703125 348.422851562 c 1
 371.224609375 363.72265625 354.932617188 382.705078125 337.08203125 405.372070312 c 0
 319.232421875 428.0390625 302.940429688 449.005859375 288.20703125 468.2734375 c 0
 273.474609375 487.540039062 257.465820312 507.232421875 240.18359375 527.348632812 c 0
 222.900390625 547.465820312 207.033203125 563.616210938 192.583007812 575.798828125 c 0
 178.1328125 587.982421875 168.924804688 599.173828125 164.958007812 609.374023438 c 0
 162.125 616.173828125 161.841796875 623.541015625 164.109375 631.473632812 c 0
 165.2421875 637.140625 167.508789062 642.524414062 170.909179688 647.624023438 c 0
 181.67578125 662.923828125 197.258789062 671.991210938 217.659179688 674.82421875 c 2
 225.30859375 674.82421875 l 2
 233.80859375 674.82421875 242.875976562 673.124023438 252.508789062 669.723632812 c 0
 265.541992188 665.19140625 280.416992188 655.1328125 297.133789062 639.549804688 c 0
 313.850585938 623.966796875 330.850585938 605.125 348.133789062 583.025390625 c 0
 365.416992188 560.924804688 382.55859375 538.966796875 399.55859375 517.150390625 c 0
 416.55859375 495.333007812 434.55078125 472.807617188 453.534179688 449.575195312 c 0
 472.517578125 426.341796875 489.091796875 407.924804688 503.258789062 394.325195312 c 0
 510.05859375 387.525390625 513.458984375 378.174804688 513.458984375 366.275390625 c 0
 513.458984375 361.174804688 512.750976562 355.650390625 511.333984375 349.700195312 c 0
 509.916992188 343.75 507.791992188 337.658203125 504.958984375 331.424804688 c 0
 499.291992188 319.525390625 491.359375 311.025390625 481.159179688 305.924804688 c 0
 446.026367188 282.69140625 404.234375 252.94140625 355.784179688 216.674804688 c 0
 307.333984375 180.408203125 262.850585938 147.682617188 222.333984375 118.5 c 0
 181.817382812 89.31640625 146.258789062 66.224609375 115.659179688 49.224609375 c 0
 103.192382812 41.8583984375 91.5751953125 38.1748046875 80.80859375 38.1748046875 c 0
EndSplineSet
Validated: 524289
EndChar

StartChar: question
Encoding: 63 63 38
Width: 548
VWidth: 903
GlyphClass: 2
Flags: HMW
HStem: 31.0008 151.302<138.574 203.456 147.924 203.456> 485.748 17.85G<150.756 152.173 152.173 158.973> 584.352 92.6458<301.49 306.872>
VStem: 164.074 98.6
LayerCount: 2
Fore
SplineSet
205.72265625 223.950195312 m 0
 201.190429688 223.950195312 196.374023438 224.517578125 191.2734375 225.650390625 c 0
 171.68359375 231.439453125 161.887695312 243.524414062 161.887695312 261.90625 c 0
 161.887695312 266.919921875 162.6171875 272.401367188 164.07421875 278.3515625 c 0
 165.7734375 286.284179688 168.890625 294.784179688 173.423828125 303.8515625 c 0
 181.356445312 320.284179688 190.565429688 335.584960938 201.047851562 349.751953125 c 0
 211.53125 363.918945312 222.297851562 376.1015625 233.34765625 386.301757812 c 0
 244.3984375 396.501953125 255.58984375 405.993164062 266.922851562 414.776367188 c 0
 278.255859375 423.559570312 289.0234375 431.776367188 299.22265625 439.426757812 c 0
 309.422851562 447.076171875 318.490234375 454.584960938 326.422851562 461.951171875 c 0
 343.422851562 477.818359375 353.90625 494.251953125 357.873046875 511.251953125 c 0
 360.158203125 520.80859375 361.30078125 529.337890625 361.30078125 536.838867188 c 0
 361.30078125 549.794921875 357.891601562 559.68359375 351.072265625 566.501953125 c 0
 339.739257812 578.40234375 320.47265625 584.352539062 293.272460938 584.352539062 c 0
 287.0390625 584.352539062 280.380859375 582.793945312 273.297851562 579.677734375 c 0
 266.21484375 576.560546875 259.698242188 573.018554688 253.748046875 569.051757812 c 0
 247.797851562 565.084960938 241.139648438 559.41796875 233.7734375 552.05078125 c 0
 226.40625 544.68359375 220.456054688 538.591796875 215.922851562 533.775390625 c 0
 211.389648438 528.958007812 205.72265625 522.44140625 198.922851562 514.223632812 c 0
 192.123046875 506.006835938 185.46484375 499.490234375 178.948242188 494.672851562 c 0
 172.430664062 489.856445312 165.7734375 486.880859375 158.97265625 485.748046875 c 2
 152.172851562 485.748046875 l 2
 149.33984375 485.748046875 146.22265625 486.315429688 142.823242188 487.448242188 c 0
 139.422851562 488.581054688 134.606445312 490.564453125 128.373046875 493.397460938 c 0
 118.172851562 500.197265625 113.073242188 509.830078125 113.073242188 522.297851562 c 0
 113.073242188 525.130859375 113.356445312 528.530273438 113.922851562 532.497070312 c 0
 116.190429688 542.697265625 121.573242188 554.030273438 130.073242188 566.497070312 c 0
 139.139648438 578.96484375 149.33984375 591.005859375 160.672851562 602.623046875 c 0
 172.005859375 614.240234375 185.463867188 625.998046875 201.046875 637.8984375 c 0
 216.629882812 649.797851562 234.055664062 659.290039062 253.322265625 666.373046875 c 0
 272.588867188 673.456054688 291.856445312 676.998046875 311.123046875 676.998046875 c 0
 370.055664062 676.998046875 411.84765625 661.83984375 436.498046875 631.5234375 c 0
 452.383789062 611.985351562 460.326171875 586.388671875 460.326171875 554.73046875 c 0
 460.326171875 537.264648438 457.908203125 517.954101562 453.073242188 496.797851562 c 0
 449.106445312 480.365234375 443.15625 465.20703125 435.22265625 451.32421875 c 0
 427.290039062 437.44140625 418.08203125 425.682617188 407.598632812 416.049804688 c 0
 397.116210938 406.416992188 386.348632812 397.4921875 375.298828125 389.275390625 c 0
 364.249023438 381.057617188 353.056640625 373.125 341.723632812 365.474609375 c 0
 330.390625 357.825195312 319.765625 349.891601562 309.848632812 341.674804688 c 0
 299.931640625 333.458007812 290.723632812 323.682617188 282.223632812 312.349609375 c 0
 273.723632812 301.016601562 267.20703125 288.266601562 262.673828125 274.099609375 c 0
 256.440429688 257.099609375 247.374023438 243.783203125 235.473632812 234.150390625 c 0
 226.407226562 227.349609375 216.490234375 223.950195312 205.72265625 223.950195312 c 0
147.923828125 31.0009765625 m 2
 129.223632812 31.0009765625 115.33984375 37.80078125 106.2734375 51.400390625 c 0
 98.966796875 62.16796875 95.314453125 74.1083984375 95.314453125 87.2236328125 c 0
 95.314453125 93.4365234375 96.1337890625 99.912109375 97.7734375 106.651367188 c 0
 102.873046875 127.618164062 114.7734375 145.185546875 133.47265625 159.352539062 c 0
 153.305664062 174.65234375 173.422851562 182.302734375 193.823242188 182.302734375 c 0
 213.08984375 182.302734375 227.823242188 175.501953125 238.0234375 161.90234375 c 0
 244.951171875 152.279296875 248.416015625 141.087890625 248.416015625 128.328125 c 0
 248.416015625 122.302734375 247.643554688 115.926757812 246.09765625 109.201171875 c 0
 241.28125 88.234375 230.65625 70.66796875 214.22265625 56.5009765625 c 0
 197.790039062 42.333984375 178.806640625 33.833984375 157.2734375 31.0009765625 c 2
 147.923828125 31.0009765625 l 2
EndSplineSet
Validated: 524289
EndChar

StartChar: at
Encoding: 64 64 39
Width: 548
VWidth: 892
GlyphClass: 2
Flags: HMW
HStem: -77.7222 93.5017<171.483 219.65 186.216 219.65> 132.225 89.2508<246.57 247.137> 357.05 85.425 553.827 96.8991<345.167 380.582>
VStem: 37.8906 92.6517 434.845 83.7208
LayerCount: 2
Fore
SplineSet
306.915039062 168.775390625 m 1
 285.948242188 144.408203125 261.303710938 132.225585938 232.970703125 132.225585938 c 0
 198.970703125 132.225585938 175.028320312 143.983398438 161.145507812 167.5 c 0
 153.326171875 180.745117188 149.416992188 197.450195312 149.416992188 217.615234375 c 0
 149.416992188 233.25390625 151.768554688 250.974609375 156.471679688 270.775390625 c 0
 161.571289062 293.442382812 168.654296875 314.267578125 177.721679688 333.25 c 0
 186.788085938 352.233398438 196.98828125 368.525390625 208.321289062 382.125 c 0
 219.654296875 395.725585938 232.12109375 407.341796875 245.721679688 416.975585938 c 0
 269.521484375 433.975585938 295.021484375 442.475585938 322.221679688 442.475585938 c 0
 338.087890625 442.475585938 353.10546875 439.075195312 367.272460938 432.275390625 c 0
 379.739257812 426.608398438 389.088867188 418.958007812 395.322265625 409.325195312 c 0
 399.85546875 401.392578125 401.272460938 393.7421875 399.572265625 386.375 c 0
 399.004882812 382.408203125 397.022460938 378.158203125 393.622070312 373.625 c 0
 390.22265625 369.091796875 386.254882812 364.841796875 381.72265625 360.875 c 0
 377.189453125 356.908203125 372.372070312 354.075195312 367.272460938 352.375 c 0
 359.905273438 350.108398438 354.23828125 348.975585938 350.271484375 348.975585938 c 0
 343.471679688 348.975585938 336.104492188 350.108398438 328.171875 352.375 c 0
 325.904296875 352.942382812 322.221679688 354.075195312 317.12109375 355.775390625 c 0
 311.454101562 356.908203125 305.9296875 357.333007812 300.546875 357.05078125 c 0
 295.163085938 356.767578125 289.49609375 354.784179688 283.546875 351.1015625 c 0
 277.596679688 347.41796875 271.788085938 342.743164062 266.12109375 337.076171875 c 0
 260.454101562 331.409179688 255.212890625 323.758789062 250.395507812 314.125976562 c 0
 245.579101562 304.493164062 242.037109375 293.443359375 239.76953125 280.9765625 c 0
 238.069335938 274.17578125 236.794921875 267.659179688 235.944335938 261.42578125 c 0
 235.094726562 255.193359375 234.953125 248.67578125 235.51953125 241.875976562 c 0
 236.086914062 228.276367188 241.469726562 221.4765625 251.669921875 221.4765625 c 0
 257.90234375 221.4765625 263.002929688 222.609375 266.969726562 224.875976562 c 0
 272.63671875 227.142578125 277.454101562 231.110351562 281.420898438 236.77734375 c 0
 290.487304688 249.244140625 298.987304688 270.77734375 306.920898438 301.376953125 c 0
 310.3203125 314.41015625 321.653320312 324.892578125 340.920898438 332.826171875 c 0
 351.6875 336.79296875 361.3203125 339.059570312 369.8203125 339.626953125 c 0
 376.053710938 339.626953125 381.153320312 338.494140625 385.120117188 336.2265625 c 0
 392.918945312 332.557617188 396.817382812 326.473632812 396.817382812 317.9765625 c 0
 396.817382812 315.977539062 396.6015625 313.84375 396.169921875 311.577148438 c 0
 396.169921875 310.444335938 395.602539062 309.310546875 394.469726562 308.177734375 c 0
 387.669921875 288.344726562 382.852539062 271.627929688 380.01953125 258.02734375 c 0
 376.620117188 242.727539062 374.919921875 229.694335938 374.919921875 218.927734375 c 0
 374.919921875 214.9609375 375.486328125 212.127929688 376.620117188 210.427734375 c 0
 377.752929688 207.594726562 379.453125 206.177734375 381.719726562 206.177734375 c 0
 382.852539062 207.310546875 384.26953125 209.010742188 385.969726562 211.27734375 c 0
 389.936523438 218.078125 394.186523438 226.861328125 398.719726562 237.627929688 c 0
 405.51953125 258.02734375 410.90234375 276.727539062 414.870117188 293.727539062 c 0
 421.669921875 322.060546875 426.627929688 348.268554688 429.745117188 372.3515625 c 0
 432.861328125 396.434570312 434.561523438 416.834960938 434.844726562 433.551757812 c 0
 434.875976562 435.407226562 434.891601562 437.244140625 434.891601562 439.061523438 c 0
 434.891601562 453.615234375 433.883789062 466.936523438 431.869140625 479.02734375 c 0
 429.6015625 492.626953125 426.91015625 503.393554688 423.79296875 511.327148438 c 0
 420.67578125 519.259765625 416.42578125 526.059570312 411.04296875 531.7265625 c 0
 405.66015625 537.393554688 400.842773438 541.501953125 396.592773438 544.051757812 c 0
 392.342773438 546.6015625 387.243164062 548.7265625 381.29296875 550.426757812 c 0
 375.342773438 552.126953125 370.809570312 553.119140625 367.693359375 553.40234375 c 0
 364.576171875 553.684570312 360.184570312 553.827148438 354.517578125 553.827148438 c 0
 335.817382812 553.827148438 316.409179688 547.309570312 296.291992188 534.27734375 c 0
 276.17578125 521.244140625 256.767578125 502.543945312 238.067382812 478.176757812 c 0
 219.3671875 453.809570312 201.80078125 423.3515625 185.3671875 386.801757812 c 0
 168.934570312 350.251953125 155.901367188 310.444335938 146.268554688 267.376953125 c 0
 137.201171875 229.41015625 131.958984375 195.41015625 130.541992188 165.376953125 c 0
 130.168945312 157.47265625 129.982421875 149.98046875 129.982421875 142.900390625 c 0
 129.982421875 123.079101562 131.444335938 106.48828125 134.3671875 93.1279296875 c 0
 138.333984375 74.9951171875 144.567382812 59.8369140625 153.067382812 47.6533203125 c 0
 161.567382812 35.470703125 170.633789062 27.1123046875 180.267578125 22.5791015625 c 0
 189.900390625 18.046875 200.950195312 15.779296875 213.416992188 15.779296875 c 0
 225.883789062 15.779296875 237.642578125 17.1962890625 248.692382812 20.029296875 c 0
 259.7421875 22.8623046875 269.091796875 25.9794921875 276.7421875 29.3798828125 c 0
 284.392578125 32.779296875 292.041992188 37.5966796875 299.692382812 43.8291015625 c 0
 307.341796875 50.0625 313.575195312 55.8701171875 318.392578125 61.25390625 c 0
 323.208984375 66.63671875 329.017578125 73.294921875 335.817382812 81.2275390625 c 0
 339.216796875 85.7607421875 341.909179688 89.302734375 343.892578125 91.8525390625 c 0
 345.875 94.40234375 348.567382812 97.51953125 351.966796875 101.203125 c 0
 355.3671875 104.885742188 358.341796875 107.578125 360.892578125 109.27734375 c 0
 363.442382812 110.977539062 366.416992188 112.677734375 369.817382812 114.377929688 c 0
 373.216796875 116.078125 376.900390625 116.927734375 380.8671875 116.927734375 c 0
 384.833984375 116.927734375 388.517578125 116.078125 391.916992188 114.377929688 c 0
 397.017578125 112.111328125 400.984375 109.27734375 403.817382812 105.877929688 c 0
 406.650390625 102.477539062 408.4921875 98.3701171875 409.341796875 93.552734375 c 0
 410.192382812 88.736328125 410.05078125 83.77734375 408.916992188 78.677734375 c 0
 406.650390625 69.044921875 401.55078125 57.427734375 393.6171875 43.828125 c 0
 388.517578125 35.328125 383.700195312 27.9609375 379.166992188 21.7275390625 c 0
 374.633789062 15.4951171875 368.684570312 7.8447265625 361.317382812 -1.22265625 c 0
 353.950195312 -10.2890625 346.583007812 -18.22265625 339.216796875 -25.0224609375 c 0
 331.849609375 -31.822265625 322.499023438 -38.763671875 311.166015625 -45.84765625 c 0
 299.833007812 -52.9306640625 288.216796875 -58.59765625 276.31640625 -62.84765625 c 0
 264.416015625 -67.09765625 251.099609375 -70.638671875 236.366210938 -73.47265625 c 0
 221.633789062 -76.3056640625 206.616210938 -77.72265625 191.31640625 -77.72265625 c 2
 186.216796875 -77.72265625 l 2
 156.749023438 -77.72265625 131.107421875 -69.7890625 109.291015625 -53.921875 c 0
 87.4736328125 -38.0556640625 70.4736328125 -16.5224609375 58.291015625 10.677734375 c 0
 46.107421875 37.8779296875 39.3076171875 70.8857421875 37.890625 109.703125 c 0
 37.7177734375 114.4375 37.6318359375 119.223632812 37.6318359375 124.063476562 c 0
 37.6318359375 158.904296875 42.109375 196.475585938 51.0654296875 236.77734375 c 0
 62.9658203125 287.2109375 77.5576171875 334.385742188 94.8408203125 378.302734375 c 0
 112.124023438 422.219726562 131.390625 460.469726562 152.640625 493.052734375 c 0
 173.890625 525.635742188 196.557617188 553.96875 220.640625 578.051757812 c 0
 244.723632812 602.134765625 269.515625 620.267578125 295.015625 632.451171875 c 0
 320.515625 644.633789062 346.015625 650.7265625 371.515625 650.7265625 c 0
 389.6484375 650.7265625 405.940429688 649.16796875 420.390625 646.05078125 c 0
 434.840820312 642.934570312 448.440429688 637.55078125 461.190429688 629.901367188 c 0
 473.940429688 622.250976562 484.282226562 612.193359375 492.215820312 599.7265625 c 0
 500.1484375 587.258789062 506.5234375 571.67578125 511.340820312 552.9765625 c 0
 516.157226562 534.276367188 518.565429688 512.458984375 518.565429688 487.526367188 c 0
 518.565429688 435.392578125 509.215820312 370.2265625 490.515625 292.026367188 c 0
 480.315429688 248.958984375 465.865234375 211.276367188 447.166015625 178.9765625 c 0
 436.3984375 160.842773438 423.791015625 146.250976562 409.340820312 135.201171875 c 0
 394.890625 124.151367188 379.448242188 118.625976562 363.015625 118.625976562 c 0
 338.6484375 118.625976562 321.931640625 127.409179688 312.865234375 144.9765625 c 0
 309.46484375 151.208984375 307.481445312 159.142578125 306.915039062 168.775390625 c 1
EndSplineSet
Validated: 524289
EndChar

StartChar: A
Encoding: 65 65 40
Width: 548
VWidth: 903
GlyphClass: 2
Flags: HMW
HStem: 48.8981 17.85G<76.2575 82.7745> 267.35 78.1983<408.037 408.037>
VStem: 408.038 93.0767 412.292 98.5983
LayerCount: 2
Fore
SplineSet
136.037109375 95.6494140625 m 0xe0
 125.26953125 75.25 113.375 61.6484375 100.341796875 54.84765625 c 0
 92.974609375 50.880859375 86.033203125 48.8984375 79.515625 48.8984375 c 0
 72.9990234375 48.8984375 67.19140625 50.3154296875 62.0908203125 53.1484375 c 0
 53.5908203125 57.681640625 48.2080078125 64.7646484375 45.94140625 74.3974609375 c 0
 44.2412109375 81.7646484375 44.3828125 89.8388671875 46.3662109375 98.6220703125 c 0
 48.3486328125 107.405273438 51.607421875 116.61328125 56.1396484375 126.24609375 c 0
 63.5068359375 143.813476562 87.58984375 184.896484375 128.389648438 249.49609375 c 1
 123.666992188 255.635742188 121.305664062 262.956054688 121.305664062 271.45703125 c 0
 121.305664062 273.15625 121.400390625 274.903320312 121.588867188 276.697265625 c 0
 121.588867188 277.264648438 121.872070312 277.831054688 122.439453125 278.3984375 c 0
 124.706054688 288.59765625 131.223632812 297.665039062 141.990234375 305.59765625 c 0
 151.056640625 312.96484375 161.540039062 318.631835938 173.440429688 322.598632812 c 1
 277.139648438 477.298828125 353.922851562 581.282226562 403.790039062 634.548828125 c 0
 415.690429688 646.44921875 426.172851562 655.232421875 435.240234375 660.899414062 c 0
 444.306640625 667.131835938 453.940429688 670.249023438 464.139648438 670.249023438 c 0
 466.973632812 670.249023438 469.240234375 670.532226562 470.940429688 671.098632812 c 0
 481.70703125 671.098632812 490.490234375 668.265625 497.290039062 662.598632812 c 0
 506.470703125 656.478515625 511.060546875 647.145507812 511.060546875 634.599609375 c 0
 511.060546875 633.205078125 511.00390625 631.772460938 510.889648438 630.298828125 c 0xd0
 506.922851562 562.298828125 503.806640625 466.249023438 501.5390625 342.149414062 c 0
 500.891601562 302.641601562 500.568359375 269.102539062 500.568359375 241.53125 c 0
 500.568359375 220.856445312 500.75 203.537109375 501.114257812 189.575195312 c 0
 501.963867188 156.9921875 503.522460938 137.016601562 505.7890625 129.649414062 c 0
 507.559570312 123.274414062 508.4453125 117.12109375 508.4453125 111.188476562 c 0
 508.4453125 107.62890625 508.126953125 104.149414062 507.489257812 100.75 c 0
 506.921875 99.0498046875 506.35546875 97.06640625 505.788085938 94.7998046875 c 0
 502.388671875 84.599609375 497.146484375 75.9580078125 490.063476562 68.875 c 0
 482.98046875 61.7919921875 475.188476562 56.5498046875 466.688476562 53.1494140625 c 0
 457.055664062 50.31640625 451.10546875 48.8994140625 448.838867188 48.8994140625 c 0
 442.038085938 48.8994140625 435.521484375 50.8828125 429.288085938 54.849609375 c 0
 418.521484375 61.6494140625 412.004882812 74.966796875 409.737304688 94.7998046875 c 0
 407.966796875 106.133789062 407.081054688 132.852539062 407.081054688 174.956054688 c 0
 407.081054688 200.216796875 407.400390625 231.014648438 408.038085938 267.349609375 c 1
 341.170898438 264.516601562 280.25390625 258.849609375 225.287109375 250.349609375 c 1
 196.954101562 206.149414062 167.204101562 154.583007812 136.037109375 95.6494140625 c 0xe0
279.69140625 336.198242188 m 1
 326.724609375 341.297851562 369.508789062 344.415039062 408.041992188 345.547851562 c 1
 412.291992188 536.797851562 l 1
 380.55859375 495.998046875 336.358398438 429.130859375 279.69140625 336.198242188 c 1
EndSplineSet
Validated: 524289
EndChar

StartChar: B
Encoding: 66 66 41
Width: 548
VWidth: 901
GlyphClass: 2
Flags: HMW
HStem: 31.9002 17.85G<86.197 92.4301> 293.702 83.2983 565.704 88.3991<322.215 326.464>
LayerCount: 2
Fore
SplineSet
38.3134765625 87.150390625 m 0
 43.4130859375 103.583007812 50.4970703125 131.353515625 59.564453125 170.453125 c 0
 76.564453125 244.686523438 94.130859375 326.853515625 112.264648438 416.953125 c 0
 119.630859375 453.786132812 124.731445312 478.578125 127.564453125 491.328125 c 0
 130.397460938 504.078125 134.647460938 521.078125 140.314453125 542.328125 c 0
 145.981445312 563.578125 149.948242188 578.170898438 152.21484375 586.103515625 c 0
 156.748046875 603.670898438 164.823242188 617.270507812 176.440429688 626.903320312 c 0
 188.056640625 636.536132812 200.381835938 641.353515625 213.415039062 641.353515625 c 2
 215.96484375 641.353515625 l 1
 231.265625 645.88671875 249.681640625 649.286132812 271.21484375 651.553710938 c 0
 280.282226562 652.686523438 289.631835938 653.39453125 299.265625 653.677734375 c 0
 308.8984375 653.9609375 316.547851562 654.102539062 322.21484375 654.102539062 c 2
 339.21484375 654.102539062 l 1
 349.415039062 654.102539062 l 2
 389.6484375 654.102539062 424.21484375 647.01953125 453.115234375 632.852539062 c 0
 481.448242188 618.685546875 500.71484375 597.435546875 510.915039062 569.102539062 c 0
 517.391601562 552.912109375 520.62890625 535.241210938 520.62890625 516.08984375 c 0
 520.62890625 501.7265625 518.807617188 486.53125 515.165039062 470.502929688 c 0
 507.797851562 438.203125 493.630859375 410.15234375 472.6640625 386.352539062 c 0
 457.364257812 368.219726562 439.797851562 353.76953125 419.963867188 343.002929688 c 1
 430.731445312 337.3359375 440.6484375 330.818359375 449.71484375 323.452148438 c 0
 464.448242188 310.985351562 476.348632812 296.818359375 485.415039062 280.951171875 c 0
 492.008789062 269.411132812 495.305664062 258.022460938 495.305664062 246.783203125 c 0
 495.305664062 242.567382812 494.842773438 238.374023438 493.915039062 234.201171875 c 0
 493.915039062 233.633789062 493.631835938 233.350585938 493.065429688 233.350585938 c 0
 487.96484375 211.250976562 477.482421875 189.434570312 461.615234375 167.901367188 c 0
 445.748046875 146.368164062 425.630859375 126.67578125 401.264648438 108.826171875 c 0
 376.897460938 90.9755859375 346.580078125 75.818359375 310.313476562 63.3505859375 c 0
 273.48046875 50.8837890625 234.663085938 42.951171875 193.86328125 39.55078125 c 1
 189.625 42.2939453125 185.112304688 43.6650390625 180.325195312 43.6650390625 c 0
 174.232421875 43.6650390625 167.6953125 41.443359375 160.713867188 37.0009765625 c 1
 132.946289062 34.734375 115.663085938 33.3173828125 108.86328125 32.75 c 0
 102.063476562 32.18359375 95.546875 31.900390625 89.3134765625 31.900390625 c 0
 83.080078125 31.900390625 77.4130859375 32.466796875 72.3134765625 33.6005859375 c 2
 70.61328125 33.6005859375 l 2
 57.580078125 33.6005859375 47.6630859375 38.4169921875 40.86328125 48.0498046875 c 0
 37.3212890625 53.3623046875 35.55078125 59.6708984375 35.55078125 66.9755859375 c 0
 35.55078125 71.3583984375 36.1884765625 76.099609375 37.4638671875 81.2001953125 c 0
 37.4638671875 83.466796875 37.74609375 85.4501953125 38.3134765625 87.150390625 c 0
202.364257812 393.153320312 m 0
 201.231445312 387.486328125 200.095703125 382.100585938 198.962890625 377 c 1
 222.1953125 376.43359375 243.163085938 376.0078125 261.862304688 375.725585938 c 0
 263.731445312 375.697265625 265.576171875 375.682617188 267.397460938 375.682617188 c 0
 283.794921875 375.682617188 298.2421875 376.830078125 310.737304688 379.125 c 0
 324.62109375 381.674804688 336.520507812 384.93359375 346.4375 388.900390625 c 0
 356.354492188 392.8671875 365.421875 397.684570312 373.638671875 403.350585938 c 0
 381.85546875 409.017578125 388.372070312 414.684570312 393.189453125 420.3515625 c 0
 398.005859375 426.018554688 402.5390625 432.393554688 406.7890625 439.4765625 c 0
 411.0390625 446.559570312 414.297851562 452.934570312 416.564453125 458.6015625 c 0
 418.831054688 464.268554688 420.53125 470.21875 421.6640625 476.452148438 c 0
 423.155273438 483.013671875 423.901367188 489.33984375 423.901367188 495.430664062 c 0
 423.901367188 500.912109375 423.296875 506.203125 422.088867188 511.302734375 c 0
 419.5390625 522.069335938 414.864257812 530.711914062 408.064453125 537.228515625 c 0
 401.264648438 543.745117188 393.331054688 549.270507812 384.264648438 553.803710938 c 0
 368.327148438 561.772460938 350.397460938 565.756835938 330.4765625 565.756835938 c 0
 329.1484375 565.756835938 327.810546875 565.739257812 326.463867188 565.703125 c 0
 299.264648438 565.703125 272.064453125 563.153320312 244.864257812 558.053710938 c 1
 242.03125 547.853515625 238.064453125 532.553710938 232.963867188 512.153320312 c 0
 221.064453125 470.220703125 210.864257812 430.553710938 202.364257812 393.153320312 c 0
374.487304688 192.125 m 0
 384.403320312 203.174804688 390.213867188 212.670898438 391.913085938 220.603515625 c 0
 393.046875 225.13671875 391.771484375 230.51953125 388.088867188 236.752929688 c 0
 384.405273438 242.985351562 377.60546875 249.643554688 367.688476562 256.7265625 c 0
 357.771484375 263.809570312 342.754882812 270.751953125 322.637695312 277.551757812 c 0
 302.520507812 284.3515625 279.145507812 289.735351562 252.512695312 293.702148438 c 1
 181.962890625 293.702148438 l 1
 166.095703125 215.501953125 154.478515625 157.418945312 147.112304688 119.452148438 c 1
 152.778320312 119.452148438 161.278320312 119.59375 172.612304688 119.876953125 c 0
 183.9453125 120.16015625 193.294921875 120.584960938 200.662109375 121.15234375 c 0
 226.162109375 122.28515625 250.811523438 126.392578125 274.612304688 133.475585938 c 0
 298.412109375 140.559570312 318.528320312 149.341796875 334.961914062 159.825195312 c 0
 351.39453125 170.30859375 364.5703125 181.075195312 374.487304688 192.125 c 0
EndSplineSet
Validated: 524289
EndChar

StartChar: C
Encoding: 67 67 42
Width: 548
VWidth: 903
GlyphClass: 2
Flags: HMW
HStem: 26.9019 96.9009<148.509 201.209 160.692 201.209> 570.054 89.2466<397.559 398.409>
LayerCount: 2
Fore
SplineSet
547.44140625 641.44921875 m 0
 547.44140625 619.349609375 544.325195312 595.8359375 538.092773438 570.90234375 c 0
 534.125976562 553.90234375 531.575195312 543.703125 530.442382812 540.302734375 c 0
 527.04296875 526.135742188 518.967773438 511.828125 506.217773438 497.377929688 c 0
 493.467773438 482.927734375 481.42578125 475.135742188 470.092773438 474.002929688 c 0
 467.825195312 474.002929688 465.275390625 473.719726562 462.442382812 473.15234375 c 0
 452.809570312 473.15234375 444.309570312 476.552734375 436.942382812 483.352539062 c 0
 428.224609375 490.327148438 423.865234375 499.145507812 423.865234375 509.80859375 c 0
 423.865234375 513.0078125 424.2578125 516.372070312 425.04296875 519.90234375 c 0
 426.17578125 523.870117188 429.008789062 534.069335938 433.541992188 550.502929688 c 1
 427.30859375 555.036132812 423.341796875 558.010742188 421.641601562 559.427734375 c 0
 419.94140625 560.844726562 417.391601562 562.686523438 413.9921875 564.954101562 c 0
 407.758789062 568.353515625 401.525390625 570.053710938 395.29296875 570.053710938 c 0
 379.42578125 570.053710938 360.725585938 564.954101562 339.192382812 554.75390625 c 0
 317.659179688 544.553710938 295.842773438 529.678710938 273.7421875 510.12890625 c 0
 251.642578125 490.579101562 230.250976562 468.1953125 209.567382812 442.978515625 c 0
 188.884765625 417.76171875 170.467773438 389.14453125 154.317382812 357.127929688 c 0
 138.16796875 325.111328125 126.409179688 293.236328125 119.04296875 261.502929688 c 0
 116.342773438 249.502929688 114.9921875 237.701171875 114.9921875 226.098632812 c 0
 114.9921875 215.78515625 116.059570312 205.627929688 118.192382812 195.627929688 c 0
 122.725585938 174.377929688 131.650390625 157.094726562 144.967773438 143.77734375 c 0
 158.284179688 130.4609375 174.009765625 123.802734375 192.142578125 123.802734375 c 0
 210.275390625 123.802734375 228.125976562 125.64453125 245.692382812 129.328125 c 0
 263.259765625 133.010742188 279.409179688 137.685546875 294.142578125 143.352539062 c 0
 308.875976562 149.01953125 321.767578125 154.828125 332.817382812 160.77734375 c 0
 343.8671875 166.727539062 354.209960938 172.819335938 363.842773438 179.052734375 c 0
 372.342773438 184.719726562 379.9921875 189.252929688 386.79296875 192.65234375 c 0
 393.592773438 196.052734375 400.817382812 197.611328125 408.467773438 197.328125 c 0
 416.1171875 197.044921875 422.4921875 194.352539062 427.592773438 189.252929688 c 0
 434.87109375 181.974609375 438.509765625 173.645507812 438.509765625 164.264648438 c 0
 438.509765625 161.228515625 438.12890625 158.083007812 437.3671875 154.828125 c 0
 434.25 141.510742188 424.474609375 126.918945312 408.041992188 111.051757812 c 0
 349.692382812 54.9462890625 270.790039062 26.8935546875 171.333007812 26.8935546875 c 0
 170.337890625 26.8935546875 169.340820312 26.896484375 168.341796875 26.90234375 c 2
 160.69140625 26.90234375 l 2
 136.325195312 26.90234375 113.94140625 30.869140625 93.5419921875 38.8017578125 c 0
 73.708984375 46.7353515625 58.1259765625 57.501953125 46.79296875 71.1015625 c 0
 35.4599609375 84.7021484375 26.392578125 100.28515625 19.5927734375 117.8515625 c 0
 12.79296875 135.418945312 9.109375 154.119140625 8.54296875 173.952148438 c 0
 8.4794921875 176.15625 8.4482421875 178.361328125 8.4482421875 180.56640625 c 0
 8.4482421875 198.194335938 10.462890625 215.823242188 14.4921875 233.451171875 c 0
 24.125 274.250976562 37.2998046875 313.776367188 54.0166015625 352.026367188 c 0
 70.7333984375 390.276367188 89.43359375 424.701171875 110.1171875 455.30078125 c 0
 130.799804688 485.901367188 153.607421875 514.234375 178.541015625 540.30078125 c 0
 204.041015625 565.80078125 230.107421875 587.193359375 256.741210938 604.4765625 c 0
 283.374023438 621.758789062 309.723632812 635.216796875 335.791015625 644.850585938 c 0
 361.857421875 654.483398438 386.224609375 659.30078125 408.891601562 659.30078125 c 0
 427.024414062 659.30078125 443.7421875 657.883789062 459.041992188 655.05078125 c 1
 463.575195312 661.283203125 468.958007812 666.666015625 475.190429688 671.19921875 c 0
 484.2578125 677.999023438 493.325195312 681.682617188 502.391601562 682.249023438 c 0
 505.791992188 682.81640625 507.916992188 683.099609375 508.766601562 683.099609375 c 2
 510.041992188 683.099609375 l 2
 518.541992188 683.099609375 526.19140625 680.266601562 532.9921875 674.599609375 c 0
 542.625 666.666015625 547.44140625 655.616210938 547.44140625 641.44921875 c 0
EndSplineSet
Validated: 524289
EndChar

StartChar: D
Encoding: 68 68 43
Width: 548
VWidth: 901
GlyphClass: 2
Flags: HMW
HStem: 24.871 93.5008<244.522 293.257 257.555 293.257> 641.121 17G<200.607 216.474>
LayerCount: 2
Fore
SplineSet
204.431640625 124.321289062 m 0
 227.381835938 120.354492188 254.723632812 118.372070312 286.45703125 118.372070312 c 0
 300.056640625 118.372070312 314.223632812 123.188476562 328.95703125 132.822265625 c 0
 343.689453125 142.455078125 357.147460938 155.063476562 369.331054688 170.646484375 c 0
 381.513671875 186.229492188 392.563476562 203.654296875 402.48046875 222.920898438 c 0
 412.397460938 242.188476562 419.33984375 260.887695312 423.306640625 279.021484375 c 0
 429.221679688 304.510742188 432.178710938 328.513671875 432.178710938 351.029296875 c 0
 432.178710938 419.110351562 405.138671875 473.590820312 351.056640625 514.470703125 c 0
 325.556640625 533.73828125 286.45703125 553.571289062 233.756835938 573.970703125 c 1
 216.189453125 504.837890625 200.040039062 432.587890625 185.306640625 357.220703125 c 0
 180.20703125 332.854492188 172.981445312 297.295898438 163.631835938 250.545898438 c 0
 154.28125 203.795898438 147.056640625 167.954101562 141.95703125 143.021484375 c 1
 160.65625 134.521484375 181.481445312 128.288085938 204.431640625 124.321289062 c 0
32.3056640625 103.920898438 m 0
 37.97265625 123.188476562 45.6240234375 153.220703125 55.2568359375 194.021484375 c 0
 72.2568359375 268.821289062 91.2392578125 357.788085938 112.20703125 460.920898438 c 0
 118.439453125 491.521484375 122.689453125 511.779296875 124.95703125 521.696289062 c 0
 127.223632812 531.61328125 131.190429688 546.771484375 136.857421875 567.170898438 c 0
 141.197265625 582.794921875 144.041992188 593.432617188 145.390625 599.084960938 c 0
 145.479492188 599.666015625 145.751953125 601.2109375 146.208007812 603.720703125 c 0
 150.741210938 621.287109375 158.674804688 634.604492188 170.0078125 643.670898438 c 0
 181.340820312 653.303710938 193.807617188 658.12109375 207.407226562 658.12109375 c 0
 225.540039062 658.12109375 248.490234375 655.288085938 276.2578125 649.62109375 c 0
 293.82421875 646.220703125 311.674804688 641.545898438 329.807617188 635.595703125 c 0
 347.940429688 629.646484375 366.923828125 621.288085938 386.756835938 610.521484375 c 0
 406.58984375 599.75390625 425.006835938 587.428710938 442.006835938 573.545898438 c 0
 459.006835938 559.663085938 474.306640625 541.955078125 487.90625 520.421875 c 0
 500.374023438 499.455078125 510.006835938 476.36328125 516.806640625 451.146484375 c 0
 523.083007812 427.869140625 526.221679688 400.73046875 526.221679688 369.729492188 c 0
 526.221679688 367.145507812 526.200195312 364.534179688 526.15625 361.896484375 c 0
 525.58984375 327.61328125 520.772460938 290.637695312 511.706054688 250.970703125 c 0
 507.172851562 231.137695312 499.947265625 210.73828125 490.03125 189.771484375 c 0
 480.114257812 168.803710938 467.646484375 148.6875 452.629882812 129.419921875 c 0
 437.61328125 110.153320312 421.038085938 92.728515625 402.905273438 77.1455078125 c 0
 384.771484375 61.5625 363.8046875 48.9541015625 340.004882812 39.3212890625 c 0
 316.920898438 29.658203125 293.583007812 24.826171875 269.991210938 24.826171875 c 0
 268.6796875 24.826171875 267.368164062 24.8408203125 266.0546875 24.87109375 c 2
 257.5546875 24.87109375 l 2
 231.48828125 24.87109375 205.705078125 26.146484375 180.205078125 28.6962890625 c 0
 154.705078125 31.24609375 134.3046875 34.220703125 119.004882812 37.62109375 c 0
 104.271484375 41.021484375 92.0888671875 44.1376953125 82.4560546875 46.970703125 c 0
 72.822265625 49.8037109375 66.873046875 51.220703125 64.60546875 51.220703125 c 0
 51.572265625 51.220703125 41.65625 56.0380859375 34.85546875 65.6708984375 c 0
 31.078125 71.337890625 29.1884765625 78.0126953125 29.1884765625 85.6943359375 c 0
 29.1884765625 89.53515625 29.6611328125 93.626953125 30.6044921875 97.970703125 c 0
 31.171875 100.23828125 31.7392578125 102.220703125 32.3056640625 103.920898438 c 0
145.81640625 600.924804688 m 1
 145.998046875 601.743164062 146.127929688 602.391601562 146.208007812 602.87109375 c 1
 146.057617188 602.1171875 145.926757812 601.46875 145.81640625 600.924804688 c 1
EndSplineSet
Validated: 524289
EndChar

StartChar: E
Encoding: 69 69 44
Width: 548
VWidth: 901
GlyphClass: 2
Flags: HMW
HStem: 34.3 97.75 46.2 97.75<354.472 405.187 360.422 405.187> 307.15 92.6491 322.45 90.1<424.455 457.32> 552.798 91.7983<353.052 379.12 336.62 397.536>
VStem: 117.321 0.85<595.3 595.3>
LayerCount: 2
Fore
SplineSet
181.918945312 649.700195312 m 2x8c
 194.952148438 649.700195312 204.870117188 645.1640625 211.669921875 636.096679688 c 1
 258.703125 641.763671875 317.635742188 644.596679688 388.46875 644.596679688 c 0
 406.602539062 644.596679688 423.884765625 644.313476562 440.318359375 643.747070312 c 0
 473.185546875 642.61328125 498.40234375 640.9140625 515.96875 638.646484375 c 0
 530.135742188 636.946289062 539.627929688 632.5546875 544.4453125 625.471679688 c 0
 547.720703125 620.655273438 549.358398438 614.725585938 549.358398438 607.681640625 c 0
 549.358398438 604.366210938 548.995117188 600.8046875 548.26953125 596.997070312 c 0
 547.13671875 590.763671875 545.294921875 584.955078125 542.745117188 579.572265625 c 0
 540.1953125 574.189453125 536.936523438 569.231445312 532.969726562 564.698242188 c 0
 528.436523438 559.03125 522.487304688 554.498046875 515.120117188 551.098632812 c 0
 510.01953125 549.3984375 504.63671875 548.548828125 498.969726562 548.548828125 c 2
 493.01953125 548.548828125 l 2
 457.3203125 551.381835938 419.352539062 552.798828125 379.120117188 552.798828125 c 2
 336.620117188 552.798828125 l 2
 286.186523438 551.665039062 241.987304688 548.83203125 204.01953125 544.298828125 c 1
 190.419921875 495.56640625 178.237304688 447.399414062 167.469726562 399.798828125 c 1
 208.26953125 400.366210938 263.802734375 402.6328125 334.0703125 406.599609375 c 0
 402.63671875 410.567382812 441.169921875 412.549804688 449.669921875 412.549804688 c 0
 464.969726562 412.549804688 475.028320312 408.583007812 479.844726562 400.650390625 c 0
 482.877929688 395.655273438 484.39453125 389.873046875 484.39453125 383.3046875 c 0
 484.39453125 379.442382812 483.870117188 375.306640625 482.8203125 370.900390625 c 2
 482.8203125 370.049804688 l 2
 479.987304688 356.450195312 474.604492188 345.966796875 466.671875 338.599609375 c 0
 456.471679688 327.833007812 444.004882812 322.450195312 429.271484375 322.450195312 c 0x9c
 419.638671875 322.450195312 378.271484375 320.182617188 305.171875 315.650390625 c 0
 230.372070312 310.549804688 177.671875 307.716796875 147.071289062 307.150390625 c 1
 144.23828125 293.549804688 141.263671875 279.950195312 138.146484375 266.349609375 c 0
 135.029296875 252.75 132.0546875 238.583007812 129.221679688 223.849609375 c 0
 120.721679688 185.8828125 115.622070312 159.533203125 113.921875 144.799804688 c 0
 113.354492188 139.700195312 112.788085938 135.450195312 112.220703125 132.049804688 c 1xac
 122.420898438 130.916992188 138.00390625 130.208984375 158.970703125 129.92578125 c 0
 163.162109375 129.869140625 167.567382812 129.840820312 172.188476562 129.840820312 c 0
 190.686523438 129.840820312 212.630859375 130.293945312 238.020507812 131.201171875 c 0
 312.25390625 134.034179688 359.5703125 137.716796875 379.970703125 142.25 c 0
 388.470703125 143.3828125 395.837890625 143.950195312 402.0703125 143.950195312 c 0
 408.303710938 143.950195312 413.545898438 142.533203125 417.795898438 139.700195312 c 0
 422.045898438 136.8671875 425.4453125 133.891601562 427.99609375 130.775390625 c 0
 430.545898438 127.658203125 432.103515625 123.833007812 432.670898438 119.299804688 c 0
 433.237304688 114.766601562 433.520507812 110.799804688 433.520507812 107.400390625 c 0
 433.520507812 104 433.237304688 100.317382812 432.670898438 96.349609375 c 0
 429.837890625 83.3173828125 422.754882812 71.4169921875 411.421875 60.650390625 c 0
 401.221679688 51.0166015625 389.321289062 45.9169921875 375.721679688 45.349609375 c 1
 373.455078125 52.716796875 369.205078125 53 362.971679688 46.2001953125 c 1
 360.421875 46.2001953125 l 2x4c
 348.521484375 46.2001953125 325.571289062 45.0673828125 291.571289062 42.7998046875 c 0
 256.438476562 40.533203125 220.455078125 38.5498046875 183.622070312 36.849609375 c 0
 146.7890625 35.150390625 119.022460938 34.2998046875 100.322265625 34.2998046875 c 0
 82.189453125 34.2998046875 67.7392578125 34.8671875 56.97265625 36 c 0
 42.8056640625 37.1328125 30.3388671875 44.5 19.5712890625 58.099609375 c 0
 10.677734375 68.8662109375 6.23046875 81.759765625 6.23046875 96.779296875 c 0
 6.23046875 99.9423828125 6.427734375 103.19921875 6.8212890625 106.549804688 c 0
 7.955078125 120.150390625 12.4873046875 143.950195312 20.4208984375 177.950195312 c 0
 27.7880859375 209.1171875 35.2958984375 240.424804688 42.9453125 271.875 c 0
 50.595703125 303.325195312 56.970703125 330.099609375 62.0703125 352.200195312 c 0
 67.1708984375 374.299804688 73.404296875 404.6171875 80.7705078125 443.150390625 c 0
 87.5703125 476.016601562 92.24609375 497.974609375 94.7958984375 509.025390625 c 0
 97.345703125 520.075195312 101.454101562 535.799804688 107.12109375 556.200195312 c 0
 112.215820312 574.541015625 115.478515625 586.927734375 116.908203125 593.359375 c 1
 116.303710938 590.313476562 116.724609375 590.959960938 118.170898438 595.299804688 c 0
 122.704101562 612.8671875 130.63671875 626.325195312 141.969726562 635.674804688 c 0
 153.302734375 645.025390625 165.486328125 649.700195312 178.51953125 649.700195312 c 2
 181.918945312 649.700195312 l 2x8c
116.908203125 593.359375 m 1
 117.014648438 593.892578125 117.15234375 594.540039062 117.3203125 595.299804688 c 1
 117.206054688 594.728515625 117.069335938 594.081054688 116.908203125 593.359375 c 1
EndSplineSet
Validated: 524289
EndChar

StartChar: F
Encoding: 70 70 45
Width: 548
VWidth: 901
GlyphClass: 2
Flags: HMW
HStem: 34.1232 17.85G<30.0493 36.5658 36.5658 39.1158> 318.448 90.5267 559.425 93.5<385.348 419.348> 641.875 17G<183.615 187.865 187.865 194.665>
LayerCount: 2
Fore
SplineSet
187.865234375 658.875 m 2xd0
 201.46484375 658.875 211.381835938 654.341796875 217.615234375 645.274414062 c 1
 286.748046875 650.375 353.331054688 652.924804688 417.364257812 652.924804688 c 0
 459.296875 652.924804688 493.580078125 651.5078125 520.212890625 648.674804688 c 0
 534.379882812 647.541992188 543.872070312 643.291992188 548.689453125 635.924804688 c 0
 552.249023438 630.479492188 554.029296875 623.641601562 554.029296875 615.41015625 c 0
 554.029296875 612.504882812 553.807617188 609.426757812 553.364257812 606.173828125 c 0
 551.6640625 598.806640625 551.380859375 598.806640625 552.513671875 606.173828125 c 1
 549.680664062 593.140625 543.448242188 581.807617188 533.815429688 572.174804688 c 0
 524.181640625 562.541992188 511.71484375 557.724609375 496.415039062 557.724609375 c 2
 494.71484375 557.724609375 l 2
 466.381835938 558.857421875 435.782226562 559.424804688 402.915039062 559.424804688 c 0xe0
 341.71484375 559.424804688 277.115234375 557.158203125 209.115234375 552.625 c 1
 206.84765625 544.125 203.165039062 531.091796875 198.065429688 513.524414062 c 0
 188.998046875 480.091796875 181.34765625 448.924804688 175.115234375 420.024414062 c 0
 173.981445312 414.924804688 172.848632812 410.107421875 171.715820312 405.575195312 c 1
 193.815429688 407.841796875 217.616210938 408.974609375 243.116210938 408.974609375 c 0
 249.916015625 408.974609375 256.715820312 408.69140625 263.515625 408.125 c 0
 300.916015625 407.557617188 334.6328125 406.140625 364.666015625 403.874023438 c 0
 395.265625 401.607421875 418.07421875 398.915039062 433.090820312 395.797851562 c 0
 448.107421875 392.681640625 457.8828125 387.864257812 462.416015625 381.34765625 c 0
 465.712890625 376.607421875 467.361328125 370.594726562 467.361328125 363.306640625 c 0
 467.361328125 360.57421875 467.12890625 357.663085938 466.666015625 354.572265625 c 1
 466.666015625 355.139648438 466.3828125 355.139648438 465.815429688 354.572265625 c 0
 462.982421875 342.671875 458.166015625 332.189453125 451.366210938 323.122070312 c 0
 446.833007812 317.455078125 440.599609375 313.205078125 432.666992188 310.372070312 c 0
 427.56640625 308.671875 422.18359375 307.822265625 416.516601562 307.822265625 c 2
 410.56640625 307.822265625 l 2
 395.266601562 310.655273438 372.31640625 313.205078125 341.716796875 315.47265625 c 0
 312.498046875 317.487304688 282.271484375 318.495117188 251.038085938 318.495117188 c 0
 247.137695312 318.495117188 243.221679688 318.479492188 239.291015625 318.448242188 c 0
 203.874023438 318.165039062 174.548828125 316.889648438 151.315429688 314.623046875 c 1
 136.583007812 240.956054688 121.283203125 163.323242188 105.416015625 81.7236328125 c 0
 100.315429688 66.4228515625 90.3984375 54.5234375 75.666015625 46.0234375 c 0
 63.765625 38.08984375 51.5830078125 34.123046875 39.1162109375 34.123046875 c 2
 36.5654296875 34.123046875 l 2
 23.533203125 34.123046875 13.6162109375 38.9404296875 6.8154296875 48.5732421875 c 0
 3.2744140625 53.8857421875 1.5029296875 60.1943359375 1.5029296875 67.4990234375 c 0
 1.5029296875 71.8818359375 2.140625 76.623046875 3.416015625 81.7236328125 c 0
 3.982421875 83.4228515625 4.265625 85.40625 4.265625 87.6728515625 c 0
 9.3662109375 105.240234375 17.015625 134.70703125 27.2158203125 176.07421875 c 0
 45.3486328125 254.274414062 63.4814453125 340.69140625 81.615234375 435.32421875 c 0
 88.9814453125 472.157226562 94.2236328125 496.94921875 97.3408203125 509.69921875 c 0
 100.458007812 522.44921875 104.991210938 539.44921875 110.940429688 560.69921875 c 0
 116.890625 581.94921875 120.715820312 596.541015625 122.416015625 604.473632812 c 0
 126.94921875 622.041015625 134.881835938 635.357421875 146.21484375 644.424804688 c 0
 157.547851562 654.057617188 170.014648438 658.875 183.615234375 658.875 c 2
 187.865234375 658.875 l 2xd0
EndSplineSet
Validated: 524289
EndChar

StartChar: G
Encoding: 71 71 46
Width: 548
VWidth: 901
GlyphClass: 2
Flags: HMW
HStem: 25.625 96.9<151.071 199.803> 578.125 89.25<401.537 402.385>
LayerCount: 2
Fore
SplineSet
9.400390625 172.674804688 m 2
 9.400390625 179.474609375 l 2
 9.400390625 197.325195312 11.099609375 214.325195312 15.349609375 232.174804688 c 0
 24.7001953125 273.825195312 38.2998046875 313.775390625 55.2998046875 352.875 c 0
 72.2998046875 391.974609375 91 427.674804688 112.25 459.125 c 0
 133.5 490.575195312 156.450195312 518.625 181.099609375 544.974609375 c 0
 207.450195312 571.325195312 233.799804688 593.424804688 260.150390625 611.275390625 c 0
 286.5 629.125 312 642.724609375 338.349609375 652.075195312 c 0
 364.700195312 662.275390625 390.200195312 667.375 414 667.375 c 0
 437.799804688 667.375 463.299804688 661.424804688 489.650390625 650.375 c 0
 516 638.474609375 532.150390625 628.275390625 538.950195312 618.924804688 c 0
 544.049804688 611.275390625 546.599609375 603.625 546.599609375 595.125 c 0
 546.599609375 590.875 545.75 586.625 544.900390625 582.375 c 0
 543.200195312 575.575195312 540.650390625 567.924804688 536.400390625 560.275390625 c 0
 531.299804688 550.075195312 522.799804688 542.424804688 510.900390625 538.174804688 c 0
 504.950195312 535.625 499.849609375 534.775390625 493.900390625 534.775390625 c 0
 487.950195312 534.775390625 483.700195312 535.625 480.299804688 537.325195312 c 0
 476.900390625 539.025390625 469.25 543.275390625 459.049804688 550.924804688 c 0
 448.849609375 558.575195312 438.650390625 565.375 427.599609375 570.474609375 c 0
 416.549804688 575.575195312 407.200195312 578.125 397.849609375 578.125 c 0
 381.700195312 578.125 363.849609375 573.025390625 342.599609375 562.825195312 c 0
 321.349609375 552.625 299.25 537.325195312 276.299804688 516.924804688 c 0
 253.349609375 496.525390625 232.099609375 473.575195312 211.700195312 447.224609375 c 0
 191.299804688 420.875 172.599609375 391.974609375 156.450195312 358.825195312 c 0
 140.299804688 325.674804688 127.549804688 293.375 119.900390625 260.224609375 c 0
 117.349609375 248.325195312 115.650390625 236.424804688 115.650390625 224.525390625 c 0
 115.650390625 214.325195312 116.5 204.974609375 119.049804688 194.775390625 c 0
 123.299804688 173.525390625 132.650390625 156.525390625 146.25 142.924804688 c 0
 159.849609375 129.325195312 176 122.525390625 193.849609375 122.525390625 c 0
 205.75 122.525390625 219.349609375 126.775390625 233.799804688 134.424804688 c 0
 248.25 142.075195312 263.549804688 151.424804688 277.150390625 164.174804688 c 0
 290.75 176.924804688 304.349609375 190.525390625 317.950195312 206.674804688 c 0
 339.200195312 231.325195312 357.049804688 255.974609375 371.5 281.474609375 c 1
 340.900390625 279.775390625 309.450195312 277.224609375 277.150390625 272.974609375 c 0
 244.849609375 268.724609375 221.900390625 262.775390625 208.299804688 256.825195312 c 0
 201.5 253.424804688 195.549804688 251.724609375 188.75 251.724609375 c 0
 181.950195312 251.724609375 176 253.424804688 170.049804688 257.674804688 c 0
 161.549804688 263.625 157.299804688 272.125 157.299804688 281.474609375 c 2
 157.299804688 286.575195312 l 2
 157.299804688 289.125 157.299804688 292.525390625 158.150390625 295.075195312 c 0
 160.700195312 306.974609375 167.5 318.025390625 178.549804688 327.375 c 0
 186.200195312 334.174804688 196.400390625 340.125 209.150390625 345.224609375 c 0
 228.700195312 353.724609375 266.099609375 359.674804688 321.349609375 363.924804688 c 0
 361.299804688 366.474609375 393.599609375 368.174804688 419.950195312 369.025390625 c 0
 429.299804688 369.025390625 438.650390625 369.025390625 446.299804688 368.174804688 c 0
 460.75 367.325195312 470.950195312 363.924804688 476.900390625 357.974609375 c 0
 482 352.875 484.549804688 346.075195312 484.549804688 336.724609375 c 0
 484.549804688 332.474609375 483.700195312 328.224609375 482.849609375 323.125 c 0
 478.599609375 306.125 470.099609375 294.224609375 455.650390625 286.575195312 c 1
 452.25 276.375 l 2
 451.400390625 273.825195312 449.700195312 268.724609375 448 261.924804688 c 0
 439.5 237.275390625 421.650390625 206.674804688 394.450195312 169.275390625 c 0
 381.700195312 151.424804688 366.400390625 134.424804688 349.400390625 116.575195312 c 0
 331.549804688 99.5751953125 312.849609375 84.275390625 293.299804688 70.6748046875 c 0
 273.75 57.0751953125 253.349609375 46.875 230.400390625 38.375 c 0
 207.450195312 29.875 185.349609375 25.625 164.099609375 25.625 c 0
 137.75 25.625 114.799804688 29.875 95.25 37.525390625 c 0
 75.7001953125 45.1748046875 60.400390625 56.224609375 48.5 69.8251953125 c 0
 36.599609375 83.4248046875 27.25 98.724609375 20.4501953125 116.575195312 c 0
 13.650390625 134.424804688 10.25 153.125 9.400390625 172.674804688 c 2
EndSplineSet
Validated: 524289
EndChar

StartChar: H
Encoding: 72 72 47
Width: 548
VWidth: 901
GlyphClass: 2
Flags: HMW
HStem: 34.1254 17.85G<36.0094 42.526 42.526 45.076> 317.175 73.1042 641.88 17G<197.226 200.626 200.626 206.859>
LayerCount: 2
Fore
SplineSet
8.525390625 80.875 m 0
 9.091796875 83.142578125 9.943359375 85.412109375 11.0771484375 87.6787109375 c 0
 15.609375 102.978515625 24.6767578125 140.662109375 38.2763671875 200.728515625 c 0
 46.2099609375 235.295898438 56.5517578125 277.37109375 69.3017578125 326.954101562 c 2
 92.251953125 416.204101562 l 2
 94.8017578125 426.12109375 97.2099609375 436.037109375 99.4765625 445.954101562 c 0
 101.744140625 455.87109375 105.286132812 472.446289062 110.102539062 495.6796875 c 0
 114.919921875 518.912109375 118.319335938 534.354492188 120.302734375 542.004882812 c 0
 122.286132812 549.654296875 124.268554688 557.446289062 126.251953125 565.379882812 c 0
 128.234375 573.3125 129.509765625 578.270507812 130.077148438 580.25390625 c 0
 130.643554688 582.236328125 131.2109375 584.50390625 131.77734375 587.053710938 c 0
 132.344726562 589.603515625 133.052734375 592.153320312 133.90234375 594.704101562 c 0
 134.752929688 597.25390625 135.4609375 599.520507812 136.02734375 601.50390625 c 2
 136.877929688 604.478515625 l 2
 141.411132812 622.045898438 149.34375 635.362304688 160.676757812 644.4296875 c 0
 172.009765625 654.0625 184.193359375 658.879882812 197.225585938 658.879882812 c 2
 200.625976562 658.879882812 l 2
 213.092773438 658.879882812 223.009765625 654.912109375 230.376953125 646.979492188 c 0
 235.919921875 641.06640625 238.69140625 633.104492188 238.69140625 623.094726562 c 0
 238.69140625 617.755859375 237.903320312 611.833984375 236.327148438 605.329101562 c 0
 235.193359375 599.096679688 231.651367188 586.629882812 225.702148438 567.9296875 c 0
 219.751953125 549.229492188 215.077148438 532.37109375 211.676757812 517.354492188 c 0
 208.276367188 502.337890625 203.744140625 481.229492188 198.077148438 454.029296875 c 0
 192.41015625 426.829101562 187.876953125 405.579101562 184.4765625 390.279296875 c 1
 230.943359375 390.846679688 287.610351562 395.946289062 354.477539062 405.579101562 c 0
 374.310546875 408.412109375 389.893554688 410.395507812 401.2265625 411.528320312 c 0
 401.793945312 413.795898438 402.501953125 417.62109375 403.3515625 423.00390625 c 0
 404.202148438 428.38671875 406.751953125 440.995117188 411.001953125 460.828125 c 0
 415.251953125 480.661132812 418.651367188 496.102539062 421.202148438 507.153320312 c 0
 423.751953125 518.203125 428.143554688 535.627929688 434.376953125 559.427734375 c 0
 440.609375 583.227539062 444.577148438 597.677734375 446.276367188 602.778320312 c 0
 450.809570312 620.911132812 459.026367188 634.793945312 470.926757812 644.426757812 c 0
 482.827148438 654.060546875 495.009765625 658.876953125 507.4765625 658.876953125 c 2
 510.876953125 658.876953125 l 2
 523.91015625 658.876953125 533.827148438 654.91015625 540.626953125 646.9765625 c 0
 545.915039062 640.932617188 548.559570312 632.874023438 548.559570312 622.799804688 c 0
 548.559570312 617.762695312 547.8984375 612.221679688 546.576171875 606.176757812 c 0
 544.30859375 595.41015625 538.92578125 574.16015625 530.42578125 542.426757812 c 0
 520.225585938 502.759765625 511.583984375 467.202148438 504.500976562 435.751953125 c 0
 497.41796875 404.301757812 491.892578125 379.369140625 487.92578125 360.952148438 c 0
 483.958984375 342.53515625 480.55859375 325.393554688 477.725585938 309.526367188 c 0
 470.359375 278.359375 460.159179688 238.55078125 447.125976562 190.1015625 c 0
 434.092773438 141.651367188 425.592773438 107.79296875 421.625976562 88.5263671875 c 2
 419.92578125 81.7265625 l 2
 415.392578125 66.42578125 406.04296875 54.5263671875 391.875976562 46.0263671875 c 0
 379.975585938 38.0927734375 367.79296875 34.1259765625 355.326171875 34.1259765625 c 2
 352.776367188 34.1259765625 l 2
 339.743164062 34.1259765625 329.826171875 38.943359375 323.026367188 48.576171875 c 0
 318.993164062 54.443359375 316.975585938 61.2587890625 316.975585938 69.0234375 c 0
 316.975585938 73.2587890625 317.576171875 77.7763671875 318.776367188 82.576171875 c 0
 319.342773438 84.2763671875 319.625976562 86.2587890625 319.625976562 88.5263671875 c 0
 341.159179688 159.359375 362.125976562 238.692382812 382.526367188 326.525390625 c 2
 385.92578125 341.825195312 l 1
 367.79296875 340.125 333.225585938 335.733398438 282.225585938 328.650390625 c 0
 231.225585938 321.567382812 192.125976562 317.7421875 164.92578125 317.17578125 c 1
 163.79296875 313.208007812 163.225585938 310.658203125 163.225585938 309.525390625 c 0
 154.725585938 281.192382812 146.083984375 248.325195312 137.30078125 210.92578125 c 0
 128.517578125 173.525390625 119.592773438 130.7421875 110.526367188 82.5751953125 c 0
 104.859375 66.7080078125 95.2255859375 54.525390625 81.6259765625 46.025390625 c 0
 69.7255859375 38.0927734375 57.54296875 34.125 45.076171875 34.125 c 2
 42.5263671875 34.125 l 2
 29.4931640625 34.125 19.576171875 38.9423828125 12.7763671875 48.5751953125 c 0
 8.998046875 54.2421875 7.1083984375 60.9169921875 7.1083984375 68.5986328125 c 0
 7.1083984375 72.439453125 7.5810546875 76.53125 8.525390625 80.875 c 0
EndSplineSet
Validated: 524289
EndChar

StartChar: I
Encoding: 73 73 48
Width: 548
VWidth: 902
GlyphClass: 2
Flags: HMW
HStem: 42.8479 87.55<382.545 392.32 382.545 382.545> 47.0987 83.2991<294.712 400.399> 563.047 92.6491<204.049 360.165 210.849 360.165>
LayerCount: 2
Fore
SplineSet
113.9453125 42 m 1x60
 78.8125 40.8662109375 54.734375 40.2978515625 41.701171875 40.2978515625 c 0
 25.833984375 40.2978515625 14.5009765625 43.9814453125 7.701171875 51.34765625 c 0
 2.3798828125 56.6689453125 -0.2802734375 63.171875 -0.2802734375 70.8564453125 c 0
 -0.2802734375 73.8125 0.11328125 76.9423828125 0.900390625 80.248046875 c 2
 0.900390625 82.7978515625 l 2
 3.1669921875 94.130859375 9.400390625 103.90625 19.6005859375 112.123046875 c 0
 29.7998046875 120.33984375 42.8330078125 125.014648438 58.7001953125 126.147460938 c 1
 59.8330078125 130.680664062 60.1162109375 130.680664062 59.5498046875 126.147460938 c 1
 81.08203125 127.28125 119.049804688 128.4140625 173.44921875 129.546875 c 1
 191.016601562 188.48046875 207.166015625 249.962890625 221.899414062 313.99609375 c 0
 229.83203125 347.4296875 237.19921875 381.146484375 243.999023438 415.146484375 c 0
 248.532226562 439.513671875 253.915039062 465.86328125 260.1484375 494.196289062 c 0
 261.28125 500.4296875 262.556640625 506.37890625 263.973632812 512.045898438 c 0
 265.390625 517.712890625 267.798828125 526.35546875 271.198242188 537.971679688 c 0
 274.598632812 549.588867188 277.1484375 557.947265625 278.848632812 563.046875 c 1
 210.848632812 563.046875 l 2
 197.249023438 563.046875 183.08203125 562.763671875 168.348632812 562.197265625 c 2
 166.6484375 562.197265625 l 2
 151.915039062 562.197265625 141.1484375 566.1640625 134.348632812 574.096679688 c 0
 129.249023438 580.046875 126.698242188 587.430664062 126.698242188 596.249023438 c 0
 126.698242188 599.188476562 126.981445312 602.288085938 127.548828125 605.545898438 c 0
 127.548828125 606.11328125 127.83203125 606.962890625 128.3984375 608.096679688 c 0
 131.231445312 619.99609375 137.749023438 630.62109375 147.948242188 639.971679688 c 0
 158.1484375 649.321289062 171.465820312 653.99609375 187.8984375 653.99609375 c 0
 233.798828125 655.12890625 277.431640625 655.696289062 318.798828125 655.696289062 c 0
 401.53125 655.696289062 468.681640625 653.146484375 520.249023438 648.045898438 c 0
 532.1484375 646.913085938 541.215820312 643.23046875 547.448242188 636.997070312 c 0
 553.293945312 631.151367188 556.216796875 623.459960938 556.216796875 613.922851562 c 0
 556.216796875 610.516601562 555.84375 606.875 555.098632812 602.998046875 c 0
 552.265625 590.53125 546.032226562 578.9140625 536.399414062 568.147460938 c 0
 531.299804688 561.9140625 524.782226562 557.096679688 516.849609375 553.697265625 c 0
 511.749023438 551.997070312 506.932617188 550.864257812 502.399414062 550.296875 c 0
 499.56640625 550.296875 496.733398438 550.580078125 493.900390625 551.147460938 c 0
 480.299804688 553.4140625 444.317382812 556.53125 385.950195312 560.498046875 c 1
 384.25 554.264648438 381.416992188 542.931640625 377.450195312 526.499023438 c 0
 373.483398438 510.631835938 370.366210938 498.44921875 368.099609375 489.94921875 c 0
 365.83203125 481.44921875 363.565429688 472.666015625 361.298828125 463.598632812 c 0
 353.365234375 429.598632812 347.2734375 401.83203125 343.0234375 380.298828125 c 0
 338.7734375 358.765625 333.95703125 336.666015625 328.573242188 313.999023438 c 0
 323.190429688 291.33203125 314.973632812 259.314453125 303.923828125 217.948242188 c 0
 292.874023438 176.581054688 285.365234375 147.680664062 281.3984375 131.248046875 c 1
 304.065429688 131.248046875 322.198242188 130.96484375 335.798828125 130.397460938 c 2
 400.3984375 130.397460938 l 1
 401.53125 134.930664062 401.814453125 134.930664062 401.248046875 130.397460938 c 1xa0
 402.380859375 134.930664062 402.6640625 134.930664062 402.096679688 130.397460938 c 1
 403.229492188 134.930664062 403.512695312 134.930664062 402.946289062 130.397460938 c 1x60
 404.079101562 134.930664062 404.362304688 134.930664062 403.794921875 130.397460938 c 1
 419.095703125 130.397460938 429.153320312 126.573242188 433.970703125 118.922851562 c 0
 437.24609375 113.720703125 438.883789062 107.536132812 438.883789062 100.369140625 c 0
 438.883789062 96.9970703125 438.520507812 93.40625 437.794921875 89.59765625 c 0
 436.662109375 83.9306640625 434.961914062 78.5478515625 432.6953125 73.4482421875 c 0
 430.428710938 68.34765625 427.311523438 63.248046875 423.344726562 58.1474609375 c 0
 418.244140625 51.9150390625 412.01171875 47.6650390625 404.64453125 45.3974609375 c 0
 400.111328125 43.6982421875 396.002929688 42.84765625 392.3203125 42.84765625 c 2
 382.544921875 42.84765625 l 2xa0
 368.9453125 45.115234375 345.428710938 46.5322265625 311.995117188 47.0986328125 c 0
 277.428710938 47.0986328125 245.6953125 46.5322265625 216.794921875 45.3984375 c 1
 203.099609375 47.759765625 189.159179688 48.9404296875 174.971679688 48.9404296875 c 0
 155.111328125 48.9404296875 134.76953125 46.626953125 113.9453125 42 c 1x60
EndSplineSet
Validated: 524289
EndChar

StartChar: J
Encoding: 74 74 49
Width: 548
VWidth: 900
GlyphClass: 2
Flags: HMW
HStem: 20.8768 107.099<180.787 185.606> 560.626 93.4992<285.621 311.122>
LayerCount: 2
Fore
SplineSet
334.922851562 235.075195312 m 0
 303.189453125 136.475585938 269.754882812 73.009765625 234.622070312 44.6767578125 c 0
 215.921875 28.8095703125 196.088867188 20.876953125 175.122070312 20.876953125 c 0
 154.154296875 20.876953125 134.604492188 24.5595703125 116.471679688 31.9267578125 c 0
 98.3388671875 39.2939453125 83.3212890625 48.6435546875 71.421875 59.9765625 c 0
 60.654296875 71.876953125 51.1630859375 84.7685546875 42.9462890625 98.6513671875 c 0
 34.728515625 112.53515625 28.353515625 126.276367188 23.8212890625 139.876953125 c 0
 19.2880859375 153.4765625 16.1708984375 165.801757812 14.470703125 176.8515625 c 0
 13.1962890625 185.138671875 12.55859375 192.390625 12.55859375 198.60546875 c 0
 12.55859375 200.677734375 12.62890625 202.634765625 12.7705078125 204.4765625 c 0
 12.7705078125 210.709960938 14.0458984375 217.651367188 16.595703125 225.301757812 c 0
 19.1455078125 232.952148438 22.12109375 240.176757812 25.5205078125 246.9765625 c 0
 29.48828125 255.4765625 35.2958984375 262.702148438 42.9462890625 268.651367188 c 0
 50.595703125 274.6015625 59.5205078125 278.709960938 69.720703125 280.9765625 c 0
 73.12109375 281.543945312 76.5205078125 281.543945312 79.9208984375 280.9765625 c 0
 90.6875 280.9765625 98.62109375 277.577148438 103.720703125 270.776367188 c 0
 108.25390625 264.732421875 110.520507812 257.5546875 110.520507812 249.243164062 c 0
 110.520507812 245.086914062 109.954101562 240.6484375 108.821289062 235.92578125 c 0
 107.731445312 230.913085938 107.186523438 225.439453125 107.186523438 219.504882812 c 0
 107.186523438 210.008789062 108.581054688 199.333007812 111.37109375 187.475585938 c 0
 113.637695312 176.708984375 117.462890625 166.93359375 122.845703125 158.151367188 c 0
 128.228515625 149.368164062 136.586914062 142.142578125 147.919921875 136.475585938 c 0
 159.252929688 130.80859375 172.853515625 127.975585938 188.719726562 127.975585938 c 0
 189.287109375 127.975585938 190.13671875 128.258789062 191.270507812 128.826171875 c 0
 195.237304688 131.659179688 200.053710938 138.17578125 205.720703125 148.375976562 c 0
 218.75390625 172.17578125 231.50390625 209.008789062 243.970703125 258.875976562 c 2
 244.395507812 260.576171875 l 2
 244.678710938 261.708984375 245.954101562 267.517578125 248.220703125 278 c 0
 250.48828125 288.483398438 256.4375 316.674804688 266.071289062 362.575195312 c 0
 280.23828125 431.142578125 295.254882812 497.159179688 311.122070312 560.625976562 c 1
 281.655273438 561.475585938 253.958984375 561.901367188 228.034179688 561.901367188 c 0
 202.109375 561.901367188 177.955078125 561.475585938 155.571289062 560.625976562 c 2
 153.872070312 560.625976562 l 2
 139.138671875 560.625976562 128.372070312 564.592773438 121.571289062 572.526367188 c 0
 116.771484375 578.125976562 114.372070312 584.99609375 114.372070312 593.137695312 c 0
 114.372070312 596.529296875 114.788085938 600.141601562 115.622070312 603.975585938 c 2
 115.622070312 606.525390625 l 2
 118.455078125 618.424804688 125.11328125 629.049804688 135.595703125 638.400390625 c 0
 146.079101562 647.75 159.25390625 652.424804688 175.12109375 652.424804688 c 0
 221.587890625 653.55859375 265.220703125 654.125 306.020507812 654.125 c 0
 388.75390625 654.125 455.904296875 651.575195312 507.470703125 646.475585938 c 0
 519.37109375 645.341796875 528.154296875 641.659179688 533.821289062 635.42578125 c 0
 539.991210938 629.255859375 543.076171875 621.029296875 543.076171875 610.74609375 c 0
 543.076171875 607.807617188 542.82421875 604.701171875 542.3203125 601.426757812 c 0
 539.487304688 588.959960938 533.25390625 577.342773438 523.62109375 566.576171875 c 0
 518.520507812 560.342773438 512.00390625 555.526367188 504.071289062 552.125976562 c 0
 498.970703125 550.42578125 494.154296875 549.29296875 489.62109375 548.725585938 c 0
 486.788085938 548.725585938 483.670898438 549.008789062 480.270507812 549.576171875 c 0
 464.404296875 552.409179688 439.470703125 554.958984375 405.470703125 557.225585938 c 1
 402.637695312 543.05859375 393.004882812 493.475585938 376.571289062 408.475585938 c 0
 372.0390625 385.243164062 367.930664062 365.693359375 364.247070312 349.826171875 c 0
 360.564453125 333.958984375 358.439453125 324.041992188 357.872070312 320.075195312 c 0
 349.372070312 284.375 341.72265625 256.041992188 334.922851562 235.075195312 c 0
EndSplineSet
Validated: 524289
EndChar

StartChar: K
Encoding: 75 75 50
Width: 548
VWidth: 902
GlyphClass: 2
Flags: HMW
HStem: 34.1932 17.85G<45.3155 51.832 51.832 54.3812> 641.941 17.85G
LayerCount: 2
Fore
SplineSet
54.380859375 34.193359375 m 2
 51.83203125 34.193359375 l 2
 38.798828125 34.193359375 28.5986328125 37.8759765625 21.232421875 45.2431640625 c 0
 16.9462890625 49.91796875 14.8037109375 55.6650390625 14.8037109375 62.482421875 c 0
 14.8037109375 65.58203125 15.2470703125 68.9013671875 16.1318359375 72.443359375 c 0
 16.69921875 74.7099609375 17.548828125 76.9775390625 18.681640625 79.244140625 c 0
 24.3486328125 97.376953125 31.7158203125 127.41015625 40.783203125 169.342773438 c 0
 59.482421875 250.375976562 78.4658203125 339.909179688 97.732421875 437.942382812 c 0
 105.099609375 473.642578125 110.200195312 498.291992188 113.033203125 511.892578125 c 0
 115.866210938 524.92578125 120.682617188 543.342773438 127.482421875 567.142578125 c 0
 134.283203125 591.509765625 138.533203125 606.809570312 140.232421875 613.041992188 c 0
 144.200195312 627.775390625 151.56640625 639.392578125 162.333984375 647.892578125 c 0
 172.911132812 655.295898438 184.228515625 658.998046875 196.286132812 658.998046875 c 0
 197.1484375 658.998046875 198.013671875 658.979492188 198.8828125 658.94140625 c 2
 201.432617188 658.94140625 l 2
 213.899414062 658.94140625 224.099609375 655.82421875 232.033203125 649.591796875 c 0
 238.104492188 644.329101562 241.139648438 637.043945312 241.139648438 627.734375 c 0
 241.139648438 624.010742188 240.654296875 619.962890625 239.682617188 615.591796875 c 0
 236.849609375 601.991210938 230.049804688 575.07421875 219.283203125 534.841796875 c 0
 208.515625 495.174804688 200.298828125 462.591796875 194.631835938 437.091796875 c 1
 217.865234375 454.091796875 251.297851562 478.458007812 294.931640625 510.19140625 c 0
 390.130859375 585.55859375 446.514648438 629.475585938 464.081054688 641.942382812 c 0
 474.84765625 649.309570312 484.481445312 654.409179688 492.981445312 657.2421875 c 0
 498.6484375 658.942382812 503.46484375 659.791992188 507.431640625 659.791992188 c 0
 511.399414062 659.791992188 514.515625 659.509765625 516.783203125 658.942382812 c 0
 523.015625 657.2421875 528.399414062 654.125 532.931640625 649.592773438 c 0
 539.165039062 642.791992188 541.431640625 635.142578125 539.732421875 626.642578125 c 0
 536.33203125 611.342773438 526.69921875 594.909179688 510.83203125 577.342773438 c 0
 500.065429688 566.575195312 464.365234375 535.692382812 403.732421875 484.692382812 c 0
 341.96484375 437.092773438 287.84765625 395.725585938 241.380859375 360.592773438 c 1
 256.681640625 340.192382812 281.614257812 309.875 316.181640625 269.642578125 c 0
 351.314453125 231.67578125 381.630859375 197.392578125 407.130859375 166.791992188 c 0
 420.1640625 148.092773438 429.514648438 133.359375 435.181640625 122.592773438 c 0
 441.4140625 109.559570312 444.53125 100.4921875 444.53125 95.392578125 c 0
 444.53125 88.025390625 443.963867188 80.9423828125 442.831054688 74.142578125 c 0
 441.698242188 69.609375 439.71484375 65.076171875 436.881835938 60.54296875 c 0
 431.21484375 52.6103515625 423.565429688 46.376953125 413.931640625 41.84375 c 0
 401.569335938 36.6923828125 393.419921875 34.1162109375 389.486328125 34.1162109375 c 0
 389.092773438 34.1162109375 388.741210938 34.142578125 388.431640625 34.1943359375 c 2
 387.58203125 34.1943359375 l 2
 373.415039062 34.1943359375 361.797851562 41.27734375 352.731445312 55.4443359375 c 0
 349.331054688 62.244140625 333.748046875 81.7939453125 305.981445312 114.09375 c 0
 278.213867188 145.827148438 248.463867188 180.676757812 216.731445312 218.643554688 c 0
 192.931640625 243.577148438 173.948242188 264.827148438 159.78125 282.393554688 c 1
 118.981445312 73.2939453125 l 2
 114.448242188 60.8271484375 105.09765625 50.91015625 90.931640625 43.54296875 c 0
 79.03125 37.310546875 66.84765625 34.193359375 54.380859375 34.193359375 c 2
EndSplineSet
Validated: 524289
EndChar

StartChar: L
Encoding: 76 76 51
Width: 548
VWidth: 901
GlyphClass: 2
Flags: HMW
HStem: 44.175 89.25 634.925 17G<260.954 263.504 263.504 270.021>
LayerCount: 2
Fore
SplineSet
58.65625 73.9248046875 m 0
 58.65625 78.1748046875 59.505859375 82.4248046875 60.3564453125 86.6748046875 c 0
 61.2060546875 88.375 61.2060546875 90.9248046875 62.0556640625 94.3251953125 c 0
 62.90625 97.724609375 73.1064453125 128.325195312 92.65625 186.974609375 c 0
 112.206054688 245.625 130.055664062 301.724609375 144.505859375 355.275390625 c 0
 148.755859375 371.424804688 153.856445312 391.825195312 159.805664062 415.625 c 0
 164.876953125 436.752929688 178.350585938 496.53515625 199.391601562 594.969726562 c 0
 199.48828125 595.647460938 199.609375 596.497070312 199.755859375 597.525390625 c 0
 204.005859375 615.375 211.65625 628.974609375 223.555664062 638.325195312 c 0
 235.456054688 647.674804688 248.206054688 651.924804688 260.956054688 651.924804688 c 2
 263.505859375 651.924804688 l 2
 276.255859375 651.924804688 286.456054688 647.674804688 294.106445312 640.025390625 c 0
 300.055664062 634.075195312 303.456054688 626.424804688 303.456054688 616.224609375 c 0
 303.456054688 611.125 302.606445312 606.025390625 300.90625 600.075195312 c 0
 297.505859375 583.924804688 292.40625 562.674804688 284.755859375 535.474609375 c 0
 275.40625 498.924804688 266.055664062 464.075195312 257.555664062 431.775390625 c 0
 248.206054688 396.924804688 238.005859375 361.224609375 228.65625 324.674804688 c 0
 222.706054688 301.724609375 212.505859375 269.424804688 199.755859375 228.625 c 0
 187.005859375 187.825195312 178.505859375 156.375 172.555664062 133.424804688 c 1
 175.106445312 140.224609375 175.106445312 140.224609375 174.255859375 133.424804688 c 1
 219.305664062 133.424804688 272.856445312 135.974609375 334.90625 141.924804688 c 0
 395.255859375 147.875 436.055664062 152.974609375 456.456054688 158.075195312 c 0
 459.856445312 158.924804688 463.255859375 159.775390625 467.505859375 159.775390625 c 0
 471.755859375 159.775390625 475.15625 158.924804688 478.555664062 158.075195312 c 0
 484.505859375 155.525390625 489.606445312 150.424804688 493.005859375 143.625 c 0
 495.555664062 137.674804688 496.40625 131.724609375 496.40625 125.775390625 c 0
 497.255859375 118.974609375 496.40625 113.025390625 495.555664062 107.924804688 c 0
 493.005859375 95.1748046875 487.055664062 85.8251953125 478.555664062 77.3251953125 c 0
 470.055664062 68.8251953125 459.005859375 62.875 442.856445312 60.3251953125 c 0
 404.606445312 52.6748046875 345.106445312 47.5751953125 265.206054688 44.1748046875 c 0
 185.305664062 40.775390625 128.356445312 39.0751953125 93.505859375 39.0751953125 c 0
 80.755859375 39.0751953125 70.5556640625 44.1748046875 64.6064453125 53.525390625 c 0
 61.2060546875 59.474609375 58.65625 66.275390625 58.65625 73.9248046875 c 0
EndSplineSet
Validated: 524289
EndChar

StartChar: M
Encoding: 77 77 52
Width: 548
VWidth: 902
GlyphClass: 2
Flags: HMW
HStem: 43.598 17.85G<33.7284 36.5619 36.5619 38.2619>
LayerCount: 2
Fore
SplineSet
98.6162109375 105.649414062 m 2
 96.912109375 97.1484375 l 2
 93.51171875 81.84765625 86.4287109375 69.09765625 75.662109375 58.8984375 c 0
 63.76171875 48.6982421875 51.294921875 43.59765625 38.26171875 43.59765625 c 2
 36.5615234375 43.59765625 l 2
 30.89453125 43.59765625 25.794921875 44.7314453125 21.26171875 46.998046875 c 0
 15.029296875 50.3984375 11.0615234375 56.630859375 9.3623046875 65.6982421875 c 0
 9.1103515625 67.9638671875 8.984375 70.3984375 8.984375 73 c 0
 8.984375 82.1083984375 10.52734375 93.2744140625 13.6123046875 106.498046875 c 0
 15.3125 113.865234375 18.712890625 126.047851562 23.8125 143.047851562 c 0
 28.9130859375 159.481445312 35.99609375 181.297851562 45.0625 208.498046875 c 0
 54.6953125 237.3984375 65.462890625 271.680664062 77.3623046875 311.34765625 c 0
 89.2626953125 351.014648438 99.1796875 382.748046875 107.112304688 406.547851562 c 0
 132.612304688 488.1484375 151.595703125 544.815429688 164.0625 576.547851562 c 0
 171.99609375 596.380859375 179.079101562 610.263671875 185.311523438 618.197265625 c 0
 194.37890625 630.09765625 205.99609375 638.59765625 220.163085938 643.697265625 c 0
 232.0625 648.23046875 243.6796875 650.497070312 255.012695312 650.497070312 c 2
 260.112304688 650.497070312 l 2
 273.145507812 650.497070312 283.345703125 648.513671875 290.712890625 644.546875 c 0
 301.479492188 639.447265625 307.4296875 630.947265625 308.5625 619.046875 c 0
 308.768554688 614.514648438 308.872070312 609.447265625 308.872070312 603.84765625 c 0
 308.872070312 578.642578125 306.78515625 542.625976562 302.612304688 495.797851562 c 0
 297.512695312 438.565429688 290.712890625 373.3984375 282.212890625 300.297851562 c 0
 280.512695312 283.865234375 278.8125 268.565429688 277.112304688 254.3984375 c 1
 290.145507812 295.198242188 302.612304688 333.731445312 314.512695312 369.998046875 c 0
 330.379882812 417.03125 348.229492188 463.78125 368.0625 510.248046875 c 0
 387.895507812 557.28125 404.045898438 593.547851562 416.512695312 619.047851562 c 0
 421.045898438 627.547851562 428.6953125 634.630859375 439.462890625 640.297851562 c 0
 449.095703125 645.3984375 458.728515625 648.514648438 468.362304688 649.6484375 c 0
 474.594726562 650.21484375 479.6953125 650.639648438 483.662109375 650.922851562 c 0
 487.62890625 651.206054688 490.74609375 651.064453125 493.012695312 650.497070312 c 2
 496.413085938 650.497070312 l 1
 508.737304688 650.497070312 l 2
 511.854492188 650.497070312 515.962890625 649.647460938 521.0625 647.947265625 c 0
 526.729492188 646.814453125 531.262695312 645.114257812 534.663085938 642.84765625 c 0
 538.0625 640.580078125 540.895507812 637.180664062 543.163085938 632.647460938 c 0
 545.4296875 627.546875 546.5625 621.59765625 546.5625 614.796875 c 0
 544.862304688 597.796875 531.830078125 515.34765625 507.462890625 367.447265625 c 0
 483.663085938 220.114257812 471.762695312 136.814453125 471.762695312 117.546875 c 0
 471.762695312 106.213867188 470.345703125 95.7314453125 467.512695312 86.09765625 c 0
 465.8125 78.1650390625 462.6953125 71.365234375 458.163085938 65.6982421875 c 0
 451.9296875 57.7646484375 443.4296875 52.09765625 432.663085938 48.6982421875 c 0
 426.4296875 46.998046875 420.196289062 46.005859375 413.963867188 45.72265625 c 0
 407.73046875 45.4404296875 401.497070312 46.998046875 395.264648438 50.3984375 c 0
 384.497070312 56.0654296875 378.264648438 67.681640625 376.564453125 85.2490234375 c 0
 376.395507812 87.2724609375 376.311523438 89.642578125 376.311523438 92.3583984375 c 0
 376.311523438 135.278320312 397.362304688 264.658203125 439.46484375 480.499023438 c 1
 422.46484375 436.866210938 408.015625 395.499023438 396.115234375 356.3984375 c 0
 375.71484375 291.798828125 354.748046875 230.598632812 333.21484375 172.798828125 c 0
 311.115234375 114.999023438 295.532226562 79.58203125 286.46484375 66.548828125 c 0
 275.131835938 52.94921875 254.732421875 46.1484375 225.265625 46.1484375 c 2
 221.015625 46.1484375 l 2
 209.682617188 46.1484375 200.33203125 47.8486328125 192.96484375 51.2490234375 c 0
 183.8984375 55.2158203125 178.797851562 60.8828125 177.665039062 68.25 c 0
 177.62109375 70.3427734375 177.599609375 72.642578125 177.599609375 75.1474609375 c 0
 177.599609375 105.205078125 180.73828125 164.956054688 187.015625 254.399414062 c 0
 191.547851562 320.69921875 196.365234375 385.016601562 201.46484375 447.349609375 c 1
 198.065429688 436.016601562 191.83203125 415.616210938 182.765625 386.149414062 c 2
 170.015625 341.099609375 l 1
 147.065429688 266.299804688 l 2
 140.265625 243.06640625 132.8984375 218.983398438 124.96484375 194.05078125 c 0
 118.732421875 174.783203125 112.499023438 154.666992188 106.265625 133.69921875 c 0
 102.298828125 121.232421875 99.7490234375 111.8828125 98.6162109375 105.649414062 c 2
EndSplineSet
Validated: 524289
EndChar

StartChar: N
Encoding: 78 78 53
Width: 548
VWidth: 901
GlyphClass: 2
Flags: HMW
HStem: 41.6261 17.85G<27.8556 42.0225> 634.076 17G<190.774 198.708 507.541 520.574>
VStem: 6.03821 85.0017
LayerCount: 2
Fore
SplineSet
181.990234375 464.924804688 m 1
 176.890625 439.424804688 172.357421875 418.17578125 168.390625 401.17578125 c 0
 164.423828125 383.04296875 158.473632812 357.54296875 150.541015625 324.67578125 c 0
 142.607421875 292.375976562 132.690429688 253.276367188 120.791015625 207.375976562 c 0
 108.890625 160.342773438 101.240234375 130.875976562 97.8408203125 118.975585938 c 0
 95.0078125 107.076171875 93.3076171875 99.42578125 92.740234375 96.0263671875 c 0
 92.173828125 93.193359375 91.6064453125 90.642578125 91.0400390625 88.3759765625 c 0
 87.6396484375 73.076171875 80.83984375 61.458984375 70.6396484375 53.5263671875 c 0
 59.873046875 45.5927734375 48.255859375 41.6259765625 35.7890625 41.6259765625 c 0
 19.921875 41.6259765625 10.0048828125 46.7255859375 6.0380859375 56.92578125 c 0
 5.2138671875 60.6357421875 4.8017578125 64.8310546875 4.8017578125 69.5146484375 c 0
 4.8017578125 77.7099609375 6.0634765625 87.3974609375 8.587890625 98.576171875 c 0
 10.85546875 109.909179688 21.6220703125 153.826171875 40.888671875 230.326171875 c 0
 70.35546875 348.193359375 90.47265625 429.225585938 101.240234375 473.42578125 c 0
 111.439453125 517.625976562 119.939453125 557.859375 126.740234375 594.125976562 c 0
 127.306640625 596.392578125 127.874023438 598.943359375 128.440429688 601.776367188 c 0
 130.140625 610.276367188 133.541015625 617.642578125 138.640625 623.875976562 c 0
 144.307617188 631.809570312 151.390625 637.758789062 159.890625 641.725585938 c 0
 171.791015625 647.958984375 184.2578125 651.076171875 197.291015625 651.076171875 c 0
 200.124023438 651.076171875 202.95703125 650.79296875 205.790039062 650.225585938 c 0
 217.689453125 650.225585938 227.323242188 648.243164062 234.689453125 644.276367188 c 0
 245.45703125 639.17578125 251.407226562 630.67578125 252.540039062 618.776367188 c 0
 255.939453125 582.508789062 273.506835938 515.359375 305.240234375 417.326171875 c 0
 331.873046875 334.592773438 355.672851562 265.743164062 376.639648438 210.776367188 c 1
 389.106445312 259.508789062 403.83984375 323.258789062 420.83984375 402.026367188 c 0
 442.939453125 502.326171875 455.97265625 568.625976562 459.939453125 600.92578125 c 0
 460.506835938 604.326171875 461.073242188 607.443359375 461.640625 610.276367188 c 0
 463.907226562 620.475585938 469.291015625 629.258789062 477.791015625 636.625976562 c 0
 488.557617188 646.258789062 500.740234375 651.076171875 514.340820312 651.076171875 c 0
 526.807617188 651.076171875 536.440429688 648.809570312 543.240234375 644.276367188 c 0
 546.640625 642.008789062 549.190429688 638.609375 550.890625 634.076171875 c 0
 551.458007812 629.54296875 551.740234375 625.576171875 551.740234375 622.17578125 c 0
 551.740234375 618.208984375 551.173828125 612.258789062 550.041015625 604.326171875 c 0
 549.473632812 594.693359375 539.840820312 549.360351562 521.140625 468.327148438 c 0
 518.307617188 456.426757812 515.7578125 444.52734375 513.490234375 432.626953125 c 0
 497.057617188 361.793945312 479.208007812 288.693359375 459.940429688 213.327148438 c 0
 447.473632812 164.59375 437.2734375 128.327148438 429.340820312 104.52734375 c 0
 421.973632812 81.8603515625 416.0234375 67.41015625 411.490234375 61.1767578125 c 0
 400.723632812 47.5771484375 381.740234375 40.494140625 354.541015625 39.9267578125 c 2
 351.140625 39.9267578125 l 2
 340.940429688 39.9267578125 332.440429688 41.91015625 325.640625 45.876953125 c 0
 317.140625 50.41015625 312.041015625 56.0771484375 310.340820312 62.876953125 c 0
 307.5078125 74.2099609375 299.57421875 99.142578125 286.541015625 137.67578125 c 0
 272.94140625 177.909179688 258.774414062 216.442382812 244.041015625 253.275390625 c 0
 229.875 295.208007812 215.708007812 341.674804688 201.541015625 392.674804688 c 0
 193.607421875 418.7421875 187.090820312 442.825195312 181.990234375 464.924804688 c 1
EndSplineSet
Validated: 524289
EndChar

